<?xml version='1.0' encoding='utf-8'?>
<svg xmlns="http://www.w3.org/2000/svg" version="1.1" width="600px" height="976px" viewBox="0 0 600 976"> <g id="layer1"> <g style="fill:rgb(0,0,0); fill-opacity:1.0; stroke-linejoin: miter"> <path d="M306.12604,468.95624C306.01062,468.98508,305.94714,469.03125,305.92215,469.10626C305.901,469.17358,305.71634,469.38132,305.67786,469.38132C305.67017,469.38132,305.6394,469.41977,305.60864,469.46594C305.57977,469.5121,305.52594,469.57748,305.48938,469.61404C305.45477,469.64865,305.42398,469.6929,305.42398,469.71213C305.42398,469.73138,305.41245,469.74677,305.39706,469.74677C305.38165,469.74677,305.3509,469.7756,305.32974,469.8083C305.3086,469.84293,305.26434,469.8891,305.23358,469.91025C305.20087,469.9314,305.14124,469.99103,305.10278,470.0449C305.06238,470.0968,304.93542,470.2353,304.82004,470.35263C304.70462,470.46802,304.58154,470.61035,304.54498,470.6642C304.51038,470.72,304.46613,470.76617,304.45074,470.76617C304.40842,470.76617,304.2411,470.9508,304.193,471.047C304.17184,471.0893,304.12567,471.15085,304.09106,471.18164C304.05835,471.21432,303.99872,471.2778,303.9622,471.32394C303.92566,471.37012,303.83524,471.474,303.76022,471.55475C303.63715,471.68747,303.56018,471.7779,303.45248,471.91443C303.43134,471.94138,303.3871,471.9933,303.35248,472.03177C303.31784,472.0683,303.28516,472.11255,303.2794,472.12988C303.27362,472.1472,303.24475,472.17795,303.21207,472.1991C303.18127,472.22028,303.14474,472.26065,303.1332,472.2895C303.12164,472.32028,303.10434,472.34335,303.09665,472.34335C303.08704,472.34335,303.04858,472.39337,303.00818,472.453C302.9697,472.51456,302.89853,472.60495,302.8524,472.65497C302.80814,472.70496,302.76968,472.75882,302.76968,472.7742C302.76968,472.7896,302.74466,472.82422,302.71198,472.8492C302.68118,472.87616,302.55234,473.02234,302.42538,473.1743C302.1638,473.4878,302.1561,473.49548,301.92337,473.76093C301.8272,473.86862,301.75027,473.96094,301.75027,473.96674C301.75027,473.9725,301.6945,474.03595,301.62332,474.10712C301.55408,474.17828,301.47137,474.27063,301.43674,474.30908C301.40213,474.34756,301.3425,474.4168,301.30212,474.46295L301.2271,474.5476L300.93088,474.39758C300.76932,474.31488,300.62506,474.24756,300.60968,474.24756C300.59622,474.24756,300.55197,474.23022,300.51352,474.211C300.4731,474.18985,300.39426,474.1629,300.3404,474.14944C300.2846,474.1379,300.20575,474.11096,300.16345,474.09174C299.93265,473.9898,299.28445,473.9802,299.04785,474.07443C299.0267,474.08212,298.94016,474.09943,298.85553,474.11096C298.6574,474.14175,298.55356,474.17444,298.31122,474.28793C298.1381,474.3687,298.09387,474.39948,297.95154,474.54376C297.86304,474.63223,297.7784,474.73416,297.76303,474.77072C297.74573,474.80533,297.70724,474.93805,297.67456,475.065C297.61877,475.2862,297.61685,475.31503,297.61493,475.71896C297.613,475.9517,297.61493,476.20557,297.61877,476.28058C297.62454,476.38446,297.6207,476.421,297.6034,476.421C297.5899,476.421,297.57068,476.43256,297.563,476.44794C297.5553,476.4614,297.5207,476.4883,297.48605,476.5056C297.41296,476.54218,297.12637,476.7826,297.11868,476.8134C297.11676,476.82492,297.05905,476.8576,296.99365,476.88455C296.88596,476.92877,296.87442,476.93842,296.87442,476.99033C296.87442,477.03842,296.8821,477.0461,296.9225,477.0442C296.94943,477.04227,297.00906,477.02496,297.05713,477.0057C297.10522,476.98648,297.21677,476.96533,297.3072,476.95764C297.39758,476.94995,297.52838,476.93842,297.60147,476.9307L297.73035,476.9153L297.73035,477.05188C297.73035,477.2192,297.7592,477.36346,297.81882,477.4885C297.8419,477.54044,297.86496,477.5962,297.8688,477.60968C297.87653,477.64044,297.71878,477.7289,297.65723,477.7289C297.57452,477.7289,297.49182,477.79047,297.44183,477.8905C297.42642,477.92126,297.38412,477.9655,297.3495,477.98666C297.3168,478.00974,297.27832,478.054,297.26678,478.08667C297.25333,478.11743,297.22064,478.15784,297.19177,478.17514C297.08408,478.2367,297.06866,478.30786,297.086,478.67715C297.0937,478.8599,297.09946,479.06378,297.09753,479.1311C297.09753,479.19843,297.10522,479.26572,297.11676,479.27917C297.14175,479.30804,297.14175,479.68503,297.11868,479.77734C297.1033,479.84274,296.834,480.36786,296.69168,480.61404C296.5859,480.7929,296.57437,480.81793,296.31085,481.37378C296.21085,481.58536,296.1012,481.81616,296.06467,481.8854C296.0281,481.95657,295.99927,482.02582,295.99927,482.0412C295.99927,482.07007,295.88577,482.30664,295.8627,482.32587C295.8319,482.3528,295.80692,482.48358,295.80692,482.62976C295.80692,482.8221,295.86078,483.03177,295.93195,483.10678C295.95886,483.13562,295.98004,483.1664,295.98004,483.17603C295.98004,483.18564,295.99158,483.2049,296.0031,483.21832C296.01657,483.2318,296.0589,483.27795,296.09735,483.31836C296.18005,483.41068,296.2724,483.47992,296.3147,483.47992C296.332,483.47992,296.34546,483.4876,296.34546,483.4953C296.34546,483.5184,296.54166,483.5703,296.71094,483.5934C296.81863,483.60687,296.8821,483.60687,296.9629,483.58765C297.10522,483.553,297.21677,483.51263,297.2341,483.48953C297.2418,483.478,297.24948,483.4857,297.24948,483.50684C297.24948,483.53763,297.2591,483.53955,297.33987,483.528C297.3899,483.52032,297.4553,483.49915,297.4822,483.478C297.51105,483.45877,297.54376,483.44147,297.5553,483.44147C297.56683,483.44147,297.60916,483.4222,297.64954,483.39722C297.68802,483.37415,297.74765,483.34143,297.7784,483.32605C297.81113,483.31067,297.88037,483.27026,297.93613,483.23566C297.9919,483.20102,298.04193,483.17218,298.0477,483.17218C298.0554,483.17218,298.0823,483.15488,298.10925,483.13373C298.15732,483.09525,298.15732,483.09525,298.21118,483.13373C298.25543,483.1645,298.2958,483.17218,298.42276,483.17218L298.58047,483.17218L298.69205,483.0837C298.7536,483.0356,298.81512,482.97214,298.83054,482.9433C298.869,482.86444,298.9921,482.76056,299.01324,482.79135C299.04785,482.8471,299.09595,482.9356,299.12482,482.99908C299.23636,483.23758,299.36523,483.47607,299.4691,483.6338C299.5364,483.73383,299.6095,483.85114,299.63452,483.89346C299.65952,483.9358,299.73645,484.0531,299.80762,484.15314C299.87878,484.25314,299.95187,484.3666,299.9711,484.40317C300.0115,484.48395,300.1846,484.734,300.38464,485.00134C300.4635,485.10712,300.55774,485.23407,300.59238,485.2841C300.6289,485.3341,300.6693,485.38794,300.6847,485.40527C300.70007,485.42065,300.7116,485.44757,300.7116,485.4649C300.7116,485.4803,300.8078,485.58414,300.9232,485.6938C301.20016,485.95535,301.3521,486.14,301.39252,486.25925C301.40982,486.3131,301.4425,486.3785,301.46176,486.40735C301.4829,486.43622,301.5002,486.46506,301.5002,486.47275C301.5002,486.48044,301.5156,486.4997,301.53485,486.517C301.55408,486.5343,301.58868,486.57663,301.6137,486.6093C301.63678,486.64392,301.66754,486.6728,301.68103,486.6728C301.6945,486.6728,301.7387,486.7401,301.7772,486.8209C301.84644,486.96515,301.88684,487.04016,302.01184,487.26904C302.04456,487.32675,302.083,487.4056,302.09647,487.44214C302.11188,487.4787,302.14264,487.52487,302.16763,487.5441C302.20804,487.57678,302.32727,487.80377,302.32727,487.85184C302.32727,487.86337,302.34845,487.89224,302.37152,487.9134C302.40808,487.94415,302.41385,487.9615,302.4023,488.00955C302.32538,488.32117,301.9503,489.0328,301.63678,489.46173C301.5656,489.55984,301.531,489.5906,301.4733,489.606C301.4329,489.61752,301.38867,489.64255,301.37518,489.65985C301.36172,489.67715,301.3425,489.69254,301.33096,489.69254C301.31943,489.69254,301.30017,489.72333,301.28864,489.75986C301.27518,489.80026,301.23865,489.84644,301.2021,489.87143C301.16748,489.8945,301.10593,489.95413,301.0636,490.00223C300.97897,490.10416,300.91934,490.16956,300.8328,490.2561C300.7982,490.29266,300.76932,490.3292,300.76932,490.34073C300.76932,490.36,300.4635,490.6754,300.30002,490.82352C300.26154,490.86005,300.23077,490.8966,300.23077,490.90622C300.23077,490.91776,300.19806,490.9697,300.15576,491.02548C300.11536,491.08124,300.06342,491.16205,300.04227,491.20627C300.0192,491.25052,299.9788,491.30243,299.95187,491.3236C299.92496,491.34476,299.89032,491.39093,299.87686,491.42746C299.86148,491.4621,299.8057,491.56403,299.75183,491.6525C299.698,491.74097,299.65375,491.82178,299.65375,491.82947C299.65375,491.85062,299.54218,492.01602,299.51718,492.02948C299.50757,492.0372,299.46716,492.1045,299.43063,492.1795C299.39215,492.25647,299.32867,492.36032,299.29022,492.41418C299.24982,492.46613,299.13828,492.6623,299.04016,492.84888C298.944,493.0335,298.8209,493.23932,298.76898,493.30472C298.71512,493.3682,298.6728,493.4336,298.6728,493.44897C298.6728,493.48166,298.55356,493.68362,298.50162,493.7394C298.4651,493.7779,298.28235,494.0991,298.1554,494.34528C298.02075,494.60687,297.95343,494.92807,297.965,495.24738C297.97076,495.37622,297.9823,495.4705,297.99384,495.47818C298.00537,495.48587,298.0227,495.51855,298.0304,495.54935C298.0381,495.5801,298.06885,495.65512,298.0996,495.71667C298.18427,495.88788,298.57086,496.2533,298.99786,496.56683C299.0748,496.62454,299.2229,496.75146,299.32675,496.84958C299.74222,497.24963,299.898,497.38235,300.09805,497.51123C300.2577,497.61508,300.8732,498.02863,300.90012,498.04977C300.90204,498.0517,300.91357,498.10364,300.9251,498.1652C300.93665,498.22675,300.96744,498.32098,300.99243,498.37485C301.01746,498.42676,301.0386,498.4883,301.0386,498.50946C301.0386,498.53256,301.05206,498.56717,301.06744,498.58643C301.08667,498.61142,301.0963,498.67105,301.0963,498.7653C301.0963,498.91916,301.1194,499.00763,301.26172,499.4058C301.3098,499.5385,301.35788,499.6847,301.3675,499.73276C301.41943,499.9674,301.47714,500.1713,301.51175,500.24054C301.5252,500.27133,301.5387,500.30786,301.5387,500.32324C301.5387,500.33673,301.5464,500.36365,301.556,500.38287C301.58292,500.43674,301.65793,500.66177,301.66754,500.71948C301.67334,500.74832,301.68488,500.77142,301.6945,500.77142C301.7041,500.77142,301.7118,500.7945,301.7118,500.82333C301.7118,500.85413,301.72525,500.9195,301.74255,500.97336C301.79834,501.1561,301.83105,501.28113,301.84644,501.36768C301.8599,501.4427,301.89645,501.6081,301.983,501.98315C301.99454,502.03125,302.008,502.10242,302.01376,502.1428C302.01953,502.18127,302.03107,502.21973,302.0407,502.2255C302.05032,502.23126,302.058,502.2563,302.058,502.27936C302.058,502.30438,302.07532,502.39285,302.0984,502.47556C302.15033,502.67175,302.17148,502.78522,302.19266,502.9641C302.20035,503.04297,302.2138,503.13144,302.2215,503.16028C302.23303,503.20645,302.2292,503.21414,302.1811,503.22568C302.15033,503.23145,302.11572,503.25067,302.10223,503.26608C302.083,503.29108,302.07147,503.2853,302.01953,503.22568C301.97147,503.1718,301.9426,503.15643,301.8926,503.15643C301.72333,503.15643,301.70218,503.32764,301.84644,503.54114C301.87912,503.59113,301.8849,503.7123,301.85605,503.7777C301.84836,503.79694,301.85028,503.8335,301.86182,503.8585C301.87527,503.88733,301.8772,503.9085,301.86566,503.9162C301.85413,503.9239,301.84644,503.9431,301.84644,503.96042C301.84644,504.0066,301.73486,504.12006,301.6118,504.19702C301.556,504.23163,301.4983,504.27203,301.48483,504.2874C301.4483,504.3201,301.3675,504.3605,301.29825,504.3759C301.20786,504.39896,301.19247,504.42206,301.19247,504.5413L301.19247,504.65094L301.0213,504.76056C300.92703,504.8202,300.84048,504.88174,300.82703,504.89713C300.81357,504.91443,300.77124,504.94138,300.7328,504.95868C300.6943,504.97598,300.6039,505.0164,300.5289,505.051C300.32886,505.14526,300.29233,505.1568,300.22308,505.1568C300.18652,505.1568,300.14807,505.17026,300.13458,505.18564C300.12112,505.20102,300.08844,505.21448,300.05957,505.21448C300.03265,505.21448,299.92688,505.24142,299.82684,505.2722C299.72684,505.30298,299.62488,505.3299,299.6018,505.3299C299.5268,505.3299,299.49796,505.35297,299.42487,505.46838C299.36716,505.55493,299.34793,505.60687,299.33832,505.7011C299.3229,505.83383,299.32675,505.85498,299.39984,505.99347C299.44986,506.0935,299.54602,506.19543,299.59027,506.19543C299.60373,506.19543,299.61526,506.21082,299.61526,506.22812C299.61526,506.2589,299.71146,506.27814,300.3808,506.3839L301.14438,506.50317L302.57733,506.43585C303.36594,506.39932,304.07373,506.36276,304.1507,506.357L304.29303,506.34546L304.28146,506.2839C304.26608,506.2012,304.31802,506.03003,304.36224,506.0185C304.37958,506.0127,304.4161,505.96848,304.4392,505.91846C304.47766,505.84344,304.48343,505.81268,304.4719,505.72803C304.4642,505.67227,304.44882,505.6165,304.43536,505.6011C304.42188,505.5838,304.41418,505.4607,304.41226,505.25488C304.41034,505.06638,304.40073,504.9125,304.38727,504.88174C304.36035,504.81442,304.3584,504.3682,304.38535,504.3682C304.39688,504.3682,304.40457,504.35666,304.40457,504.3432C304.40457,504.3297,304.4238,504.29703,304.44882,504.27008C304.51038,504.20087,304.5392,504.14508,304.5392,504.09506C304.5392,504.0547,304.54306,504.0566,304.56998,504.10852C304.60846,504.18353,304.79117,504.35858,304.84888,504.3759C304.8739,504.38358,304.9739,504.3932,305.07007,504.39896C305.23932,504.40665,305.24704,504.40472,305.30472,504.3528C305.33936,504.32202,305.36627,504.28357,305.36627,504.26624C305.36627,504.247,305.37396,504.23355,305.38165,504.23355C305.42014,504.23355,305.55862,504.09122,305.60095,504.0066C305.6875,503.8335,305.75098,503.73923,305.7952,503.71616C305.8202,503.7027,305.85675,503.6642,305.87598,503.63153C305.8952,503.5969,305.91638,503.56613,305.92407,503.56036C305.93945,503.54883,306.001,503.4161,306.001,503.393C306.001,503.3853,306.0183,503.35648,306.0395,503.32956C306.06064,503.3026,306.07794,503.26224,306.07794,503.24106C306.07794,503.218,306.10486,503.1795,306.14142,503.15067C306.20105,503.10645,306.328,502.89102,306.328,502.83716C306.328,502.80252,306.42416,502.6198,306.46838,502.57172C306.48572,502.55057,306.5011,502.52557,306.5011,502.51788C306.5011,502.50824,306.52225,502.46786,306.5492,502.42554C306.5761,502.38324,306.59726,502.3217,306.59726,502.28705C306.59726,502.25244,306.62805,502.17166,306.66266,502.1082C306.8319,501.81006,307.07236,501.34457,307.22046,501.03107C307.31085,500.84064,307.39355,500.66946,307.4051,500.65216C307.4147,500.63293,307.42432,500.606,307.42432,500.5906C307.42432,500.57715,307.4378,500.55408,307.4532,500.5406C307.46857,500.52713,307.48203,500.48676,307.48203,500.4502C307.48203,500.35596,307.59552,500.04626,307.64746,499.99628C307.67245,499.9732,307.6936,499.9424,307.6936,499.92896C307.6936,499.9155,307.7013,499.89047,307.71094,499.87125C307.75516,499.7847,307.76862,499.73276,307.78015,499.60388L307.7917,499.4654L307.7244,499.42117C307.6859,499.39618,307.65515,499.36346,307.65515,499.34808C307.65515,499.30768,307.46088,499.13843,307.41663,499.1365C307.39548,499.1365,307.3628,499.12112,307.3416,499.10382C307.31277,499.07687,307.27625,499.0711,307.18005,499.07495C307.0762,499.0788,307.04733,499.07303,307.02234,499.04227C307.00504,499.02112,306.95502,498.99802,306.9146,498.99033C306.8723,498.98456,306.80307,498.9615,306.76074,498.94223C306.68958,498.91147,306.6569,498.90378,306.48764,498.873C306.453,498.86722,306.42416,498.85568,306.42416,498.84607C306.42416,498.82108,306.25488,498.82492,306.2395,498.8499C306.2318,498.86337,306.2126,498.85568,306.18567,498.82684C306.1645,498.80182,306.1222,498.76913,306.09332,498.75375C306.06256,498.73837,306.0395,498.71912,306.0395,498.7095C306.0395,498.7018,306.02792,498.69412,306.01447,498.69412C305.976,498.69412,305.84714,498.5787,305.84714,498.54218C305.84714,498.50754,305.75482,498.4133,305.6798,498.37097C305.61826,498.3383,305.42206,498.34213,305.37012,498.3787C305.32013,498.4133,305.31433,498.4864,305.35858,498.52872C305.3855,498.55756,305.3855,498.55948,305.34897,498.55948C305.32782,498.55948,305.30472,498.54987,305.29895,498.54025C305.29318,498.52872,305.26627,498.52103,305.23932,498.52103C305.21432,498.52103,305.17395,498.49985,305.15085,498.47293C305.12778,498.446,305.09314,498.42484,305.0739,498.42484C305.0547,498.42484,305.0393,498.41522,305.0393,498.4056C305.0393,498.39407,305.02585,498.38638,305.01236,498.38638C304.99698,498.38638,304.88928,498.29407,304.7758,498.17865C304.66232,498.06516,304.48535,497.89398,304.38342,497.7959C304.28146,497.69778,304.15454,497.5689,304.10452,497.5093C304.05258,497.44775,303.9891,497.3766,303.9641,497.34967C303.93912,497.32272,303.88718,497.26117,303.8487,497.2131C303.81024,497.165,303.7756,497.12268,303.76984,497.1169C303.76407,497.11115,303.7237,497.06308,303.6833,497.01114C303.641,496.95728,303.6006,496.91302,303.5929,496.90918C303.58328,496.90533,303.5775,496.88995,303.5775,496.87457C303.5775,496.8592,303.57175,496.84766,303.56403,496.84766C303.54288,496.84766,303.50058,496.75146,303.50058,496.70917C303.50058,496.68607,303.48517,496.67453,303.4544,496.67453C303.39093,496.67453,303.38324,496.63992,303.4371,496.58606C303.4621,496.56107,303.48132,496.52066,303.48132,496.49374C303.48132,496.4322,303.5583,496.34372,303.69098,496.2514C303.79678,496.17828,303.89487,496.08597,303.93335,496.02057C303.96603,495.9629,304.18723,495.63205,304.2834,495.49356C304.3334,495.4224,304.38535,495.34738,304.39496,495.33008C304.4065,495.31274,304.44113,495.26083,304.47382,495.21274C304.50653,495.16467,304.5392,495.11273,304.5469,495.09735C304.55267,495.08194,304.59308,495.0204,304.63538,494.9627C304.6777,494.905,304.7604,494.78766,304.8181,494.70303C304.87775,494.6184,304.96814,494.49338,305.02008,494.42413C305.13162,494.27795,305.32782,493.99713,305.35858,493.94138C305.37012,493.92023,305.39706,493.88367,305.4182,493.8606C305.43936,493.8375,305.49707,493.7567,305.54517,493.68362C305.59515,493.6086,305.67786,493.48743,305.72787,493.41437C305.77982,493.33936,305.84906,493.23547,305.88174,493.18353C305.91638,493.1297,305.95676,493.07007,305.97217,493.0489C305.98947,493.02774,306.0568,492.9335,306.1222,492.83926C306.35492,492.5065,306.39337,492.4507,306.49918,492.30838C306.5588,492.22952,306.62036,492.14297,306.63574,492.11414C306.65112,492.0872,306.68958,492.03333,306.71844,491.99872C306.74728,491.9622,306.8704,491.80252,306.99158,491.6448C307.11465,491.48517,307.27237,491.2832,307.34354,491.1928C307.53012,490.95816,307.70706,490.68695,307.7898,490.51C307.8725,490.33688,307.9244,490.1907,307.9244,490.13495C307.9244,490.1157,307.93402,490.09262,307.9456,490.08493C307.95905,490.07724,307.9629,490.04068,307.95712,489.99066C307.94943,489.93683,307.95328,489.89835,307.9725,489.87335C308.01483,489.8118,308.0956,489.5425,308.11484,489.3944C308.12445,489.3194,308.13983,489.06937,308.1456,488.83664C308.161,488.35193,308.14368,488.2019,308.05905,488.03842C308.0283,487.9807,307.9725,487.86337,307.93597,487.77875C307.8994,487.69412,307.8244,487.52487,307.77054,487.4037C307.71478,487.2825,307.6359,487.10364,307.59744,487.0094C307.4936,486.76318,307.31277,486.4343,307.22815,486.33618C307.18774,486.29004,307.15506,486.24002,307.15506,486.22464C307.15506,486.20734,307.14737,486.18808,307.1358,486.1823C307.1262,486.17654,307.11658,486.1554,307.11658,486.1381C307.11658,486.0996,306.85693,485.82648,306.82037,485.82648C306.80692,485.82648,306.7569,485.78033,306.71075,485.72455C306.66458,485.6707,306.62036,485.62262,306.61264,485.61877C306.60303,485.61493,306.59726,485.60144,306.59726,485.58798C306.59726,485.57645,306.528,485.47833,306.4434,485.37448C306.35876,485.2687,306.28952,485.17255,306.28952,485.16098C306.28952,485.15137,306.25873,485.1129,306.2222,485.07635C306.18567,485.0398,306.15488,484.99942,306.15488,484.98596C306.15488,484.9725,306.1491,484.96094,306.14142,484.96094C306.1318,484.96094,306.1087,484.92633,306.08948,484.88403C306.06833,484.8417,306.04718,484.80707,306.0395,484.80707C306.03177,484.80707,306.01447,484.78015,306.001,484.7494C305.98755,484.71667,305.9702,484.69168,305.96252,484.69168C305.95483,484.69168,305.9433,484.6436,305.9356,484.58588C305.92984,484.5282,305.91446,484.45703,305.90292,484.42816C305.89136,484.39932,305.87405,484.35507,305.86444,484.33008C305.85483,484.307,305.83945,484.26852,305.8279,484.24353C305.8183,484.22043,305.7875,484.13196,305.7606,484.04926C305.73364,483.96463,305.7048,483.8877,305.69327,483.8742C305.68365,483.86267,305.66824,483.80692,305.6567,483.7492C305.6471,483.6915,305.60095,483.4876,305.55286,483.2972C305.50668,483.10678,305.45667,482.8683,305.4432,482.76825C305.43167,482.66824,305.4086,482.5509,305.39322,482.5086C305.37976,482.46628,305.36627,482.40857,305.36627,482.37973C305.36627,482.3509,305.35858,482.32394,305.34897,482.31818C305.34128,482.3124,305.3259,482.2624,305.3182,482.20663C305.28934,481.9912,305.27203,481.9085,305.24127,481.79694C305.22202,481.73346,305.20087,481.6123,305.19318,481.52765C305.1778,481.3488,305.0951,480.9641,305.05276,480.86023C305.03738,480.82178,305.01428,480.74097,305.00082,480.67752C304.9739,480.53326,304.8816,480.2409,304.86234,480.23322C304.85464,480.22937,304.84695,480.19666,304.84695,480.16205C304.84695,480.1255,304.83926,480.0928,304.82965,480.08704C304.82004,480.08124,304.8085,480.05624,304.80273,480.03317C304.79694,480.00818,304.76233,479.90237,304.72577,479.79657C304.6527,479.58887,304.6527,479.6004,304.74118,479.39267C304.8335,479.17917,304.87195,478.9118,304.83157,478.77142C304.82004,478.73294,304.80078,478.66177,304.78925,478.6137C304.73926,478.42136,304.66617,478.3117,304.46613,478.1136C304.32764,477.97705,304.08914,477.80585,303.8718,477.68274C303.85834,477.67505,303.65637,477.602,303.42172,477.51733L302.99664,477.3654L302.7235,477.3827C302.25226,477.41348,301.89838,477.4404,301.8022,477.45197L301.7118,477.4654L301.72333,477.40002C301.73102,477.36346,301.7522,477.30194,301.77142,477.26346C301.80988,477.18845,301.81952,477.11343,301.79065,477.11343C301.78104,477.11343,301.7695,476.99417,301.76373,476.848C301.74835,476.46524,301.73486,476.33636,301.69257,476.1652C301.6714,476.08057,301.65408,475.96707,301.65408,475.9132C301.65408,475.80743,301.63678,475.75165,301.54254,475.5516C301.5079,475.48047,301.481,475.40158,301.481,475.3766C301.481,475.35156,301.4733,475.32465,301.46176,475.3131C301.45215,475.3035,301.43866,475.2458,301.43097,475.18808L301.41943,475.07846L301.46753,475.08807C301.50983,475.09576,301.5464,475.06885,301.7041,474.91882C301.80603,474.8188,301.91376,474.713,301.94067,474.68225C302.11765,474.48413,303.0447,473.58972,303.45248,473.2262C303.58713,473.10696,304.3661,472.3395,304.75848,471.94138C304.93927,471.7567,305.20087,471.49323,305.33743,471.3528C305.5663,471.122,305.69904,470.9816,306.41455,470.22952C306.54147,470.0968,306.6742,469.96027,306.70883,469.92563C306.74152,469.89294,306.7704,469.85638,306.7704,469.84485C306.7704,469.8333,306.77808,469.8237,306.7896,469.8237C306.83575,469.8237,306.8704,469.7025,306.8627,469.56595C306.8531,469.39285,306.81653,469.31592,306.6665,469.16397C306.47992,468.97354,306.31644,468.91006,306.12604,468.95624 Z M298.6786,479.22726C298.69205,479.29266,298.8363,479.38306,298.92862,479.38306L298.98633,479.38306L298.94208,479.43115C298.91708,479.45807,298.8882,479.47922,298.8786,479.47922C298.869,479.47922,298.82666,479.5081,298.7863,479.54077C298.74588,479.57538,298.64395,479.66003,298.5574,479.72928C298.38235,479.8697,298.21118,480.0351,298.21118,480.06778C298.21118,480.08124,298.18234,480.13318,298.1477,480.1832C298.1131,480.23514,298.0727,480.31592,298.0573,480.36206C298.04193,480.40823,298.01498,480.46402,297.99576,480.4871C297.96115,480.5275,297.96115,480.52557,297.9727,480.45056C297.9823,480.3794,298.00345,480.32745,298.08038,480.18127C298.09772,480.14856,298.15732,480.03317,298.21118,479.9216C298.26697,479.81006,298.32468,479.70618,298.33813,479.68887C298.35352,479.67157,298.38623,479.60425,298.41122,479.53885C298.4651,479.40613,298.62857,479.14648,298.65356,479.16187C298.66125,479.1657,298.6728,479.19647,298.6786,479.22726 Z M304.00256,500.78104C304.02182,500.78873,304.07568,500.78873,304.1199,500.78104L304.2026,500.76947L304.28918,500.90027C304.33725,500.97144,304.38342,501.04837,304.3911,501.06955C304.40073,501.0907,304.4238,501.25418,304.44498,501.435C304.4642,501.61386,304.48727,501.77542,304.49304,501.79083C304.50653,501.82544,304.5373,502.0178,304.55844,502.20435C304.5777,502.37744,304.6046,502.49286,304.6469,502.58902C304.66617,502.63135,304.67963,502.67175,304.6777,502.67752C304.63345,502.86792,304.61038,503.01987,304.59692,503.22375C304.5796,503.45648,304.54883,503.73923,304.52768,503.84695L304.51807,503.8931L304.47382,503.8508C304.41418,503.7931,304.3334,503.79694,304.30457,503.8585C304.27954,503.91428,304.25455,503.92004,304.23724,503.87387C304.21222,503.8104,304.16415,503.77002,304.093,503.76038C304.01028,503.74692,304.00256,503.7296,303.98718,503.56036C303.9814,503.49112,303.96796,503.41803,303.95642,503.39685C303.9449,503.3757,303.9295,503.293,303.91986,503.21414C303.91025,503.13528,303.8968,503.0141,303.88718,502.94485C303.87756,502.8756,303.85638,502.68137,303.83908,502.5121C303.82178,502.34283,303.7987,502.1255,303.78717,502.03125C303.72754,501.5042,303.71408,501.1484,303.74677,500.95413C303.78717,500.72525,303.79294,500.7137,303.84485,500.68677C303.89102,500.66177,303.8968,500.66177,303.9295,500.7137C303.94873,500.74448,303.9814,500.77527,304.00256,500.78104 Z"/> </g> </g> </svg>