<svg xmlns="http://www.w3.org/2000/svg" viewBox="0 0 960 150" style="enable-background:new 0 0 960 150" xml:space="preserve"><style>.st0{fill:#fff}.st1{fill:#ed7540}.st2{fill:#2b4656}.st4,.st5,.st6{display:inline}.st5,.st6{fill:#ed7540}.st6{fill:#2b4656}</style><g id="Capitol"><circle class="st0" cx="89" cy="75" r="70"/><path class="st1" d="M88.5 0C47.35 0 14 33.35 14 74.5S47.35 149 88.5 149 163 115.65 163 74.5 129.65 0 88.5 0zm-.22 126.19c-28.69 0-51.95-23.26-51.95-51.95s23.26-51.95 51.95-51.95 51.95 23.26 51.95 51.95-23.26 51.95-51.95 51.95z"/><circle class="st2" cx="88.29" cy="74.27" r="49.67"/><path class="st0" d="m115.73 93.62-3.01-6.39h-.06l-6.86 13.81c-.25.44-.36.58-.78.58h-2.6c-.34 0-.5-.3-.36-.58l10.11-18.91c.2-.33.28-.55.48-.55h.08c.22 0 .28.22.5.55l5.77 11.5-3.27-.01zm3.46 1 3.71 6.54c.14.26-.03.54-.39.54h-2.57c-.42 0-.56-.13-.78-.55l-1.84-3.56-8.33-.01 1.63-2.98 8.57.02zM56.99 54.91l-1.15 10.06c-.06.47-.14.58-.59.58h-2.22c-.45 0-.65-.17-.59-.58l1.8-14.59 2.75 4.53zM55.08 44.8h.45c.11 0 .23.06.34.25l9.09 15 9.09-15c.11-.19.22-.25.34-.25h.37l.53 3.89-9.53 15.7c-.25.36-.42.58-.65.58h-.31c-.23 0-.39-.22-.62-.58l-9.53-15.7.43-3.89zm20.57 5.6 1.83 14.56c.06.42-.14.58-.59.58h-2.22c-.45 0-.56-.11-.59-.58L72.9 54.93l2.75-4.53z"/><path class="st1" d="M117.2 60.47c.02-.1.07-.28.21-.42.04-.04.17-.16.32-.14.06.01.15.04.17.11 0 .01 0 .02-.01.1 0 0-.02.19-.03.29v.13c-.01.27-.01.3 0 .31.01 0 .04-.07.08-.19.02-.06.04-.11.05-.17 0-.01.01-.02.01-.03.01-.02.04-.12.04-.13.59-1.11-.1-1.92-.1-1.92-.14-.36-.13-.47-.09-.5.1-.07.49.22.73.56.28.39.34.78.4 1.19.05.31.1.7 0 1.19-.09.45-.27.79-.4.99-.21.22-.65.59-.99 1.19-.99 2.98-3.18 7.15-5.13 8.21-.31.09-.58.17-.58.17-.24 0-.43-.03-.54-.06-1.35-.39-6.02-2.76-5.84-3.45 0 0 0-.26.01-.26v.01c.11.17-.53 1.75-2.56 2.63-2.08.74-5.1 1.42-5.36 1.72-.02.02-.05.02-.05.02-.07.03-.21.11-.42.23-.34.2-.63.42-1.09.75-.27.2.01.24-.01.3-.11.46 1.2.91 2.66 1.88 1.42.94 3.88 2.64 4.15 2.83 0 0 .71.68.94 1.54.09.35.05.68.05.68-.03.27-.12.47-.19.6 0 0-.24.5-.72.91-.13.11-.2.18-.26.25-.08.09-.1.11-.18.2-.13.15-.2.19-.33.31-.17.16-.33.37-.33.37l-1.67 1.54c-.37.3-.88.65-1.56 1.19-2.43 1.95-3.17 2.25-3.93 3.1-.48.53-.81 1.01-.99 1.3-.09.11-.21.3-.26.54-.05.21.2.72.82 1.6.79 1.11 1.91 1.7 2.25 2.2.33.5.47.58.54.79.06.15.06.36-.04.51-.16.23-.53.24-.77.23-1.48-.03-2.22-.4-2.22-.4-1.5-.66-.74-.42-2.15-1.18-.92-.5-1.6-.82-2.11-1.04-.45-.2-1.24-.24-1.51-.74-.08-.15-.1-.3-.1-.32-.05-.42.22-.75.33-.89.23-.28.43-.34.96-.64.31-.18.83-.76 1.22-1.09.09-.08.15-.13.26-.24.51-.49.87-.93 1.18-1.31.58-.72.96-1.22.96-1.22 1.5-1.98 2.25-2.97 2.65-3.64.09-.14.29-.48.63-.88.15-.18.63-.71 1.11-.99.22-.12.4-.32.63-.38.02-.01.12-.03.13-.09v-.02c-.36-.12-.7-.22-1.02-.32-1.85.5-7.7-2.01-8.48-2.82-.01-.02-.5-.37-.5-.37.15.09-.74 3.66-6 5.82-.83.34-3.49 1.4-3.49 1.4-2.44 2.67-4.88 3.04-7.29 3.7-2.08.57-3.31 1.73-4.03 2.33-.35.29-.65.55-1.02.95-.78.86-.83 1.3-1.8 2.47-.2.25-.41.5-.61.75-.47.59-.7.89-.78 1.08-.03.07-.15.38-.4.73-.16.23-.26.31-.39.36-.21.07-.44.01-.56-.06-.6-.36-.13-2.13.11-3.99.01-.06.06-.49.14-.96.02-.11.04-.23.06-.37.06-.35.11-.59.12-.67.13-.72.02-.83.15-1.33.08-.33.24-.96.7-1.12.18-.06.33-.03.6.02.49.09.82.29.9.33.84.44 2.75-.87 2.76-.88 2.2-1.66 3.48-3.93 5.95-5.04 1.23-.55 1.6-.31 2.65-1.02.25-.17.48-.3.54-.43 2.65-5.31 5.68-6.16 5.71-6.16.04-.71.24-2.82 1.81-4.16 1-.85 3.38-1.52 3.87-1.65.08-.02.45-.11.9-.32 0 0 .16-.09.32-.17 1.28-.62 2.27-1.85 4.26-4.3.46-.56.62-.78.85-1.07 0 0 .16-.2.32-.37 1.72-1.97 2.92-2.23 3.18-2.2.35.04.83.31.99.42.2.13.38.27.67.29.12.01.25-.01.25-.04.01-.04-.17-.08-.47-.23-.05-.03-.1-.05-.14-.08-.43-.26-.8-.77-.8-.77-.15-.15-.27-.36-.47-.44-2.45-.97-4.61-1.95-5.47-4.03l-.14.04c-.36.36-3.84-.45-6.31-.96-.42-.09-.75.16-.75.16-.06.03-.11.06-.13.07-.18.11-.33.16-.43.2-.38.12-.66.07-1.26.14-.06.01-.11.01-.17.02-.33.04-.37.06-.47.03-.12-.03-.2-.1-.23-.13-.03-.02-.07-.06-.1-.13-.03-.05-.04-.07-.04-.08 0-.05.05-.1.09-.11.05-.02.11-.02.13-.02.14 0 .26-.05.35-.09.01-.01.22-.09.2-.13l-.27-.03c-.06.02-.16.04-.27.06-.1.02-.16.04-.2.05-.03.01.63-.08.27-.03-.26.04-.92.27-1.14.31-.14.02-.21.03-.3-.01-.18-.07-.26-.24-.3-.31 0-.1-.03-.21.01-.3.07-.18.33-.37.63-.59.99-.74 2.1-.82 2.77-.83.63-.01.92.04 1.55.09 2.09.16 4.82-.18 6.43-.05.4.03.8.4.8.4.31.05 1.46.82 4.17 1.87.67.26 1.09.4 1.46.59.66.35 1.19.56 1.29.59 1.36.51 3.33.96 3.94 1.81 0 0 .28.39.75.56.04.02.17.07.29.01 0 0 .01 0 .01-.01.13-.07.14-.36.14-.36.01-.68-.1-1.73-.1-1.73-.1-.88.21-1.59.31-1.81.14-.32.43-.95 1.13-1.36.65-.39 1.65-.68 1.92-.68.32 0 .6.05.74.08.22.04.78.24 1.2.41.75.3 1.44.94 1.84 1.42.27.32.47.62.51 1.04.04.35-.04.66-.08.81-.05.19-.11.4-.27.61-.1.12-.12.11-.17.19-.03.05-.1.19 0 .73.03.18.05.27.06.31.01.04.1.42.06.57-.01.03-.01.05-.03.08-.1.21-.24.14-.39.36-.11.16-.15.45-.23 1.02-.01.04-.02.13-.08.21-.11.14-.29.16-.4.17-1.23.16-1.46.16-1.55.15h-.02c-.01 0-1.03.07-1.03.07-.13.08-.3.21-.37.3-.04.04-.06.07-.07.1-.14.21-.68.84-.7.93-.09.44.24.95.74 1.18 1.66.77 3.99 2.02 4.1 2.57 0 0 .03.82-.05 1.42-.02.17-.05.37-.01.39.05.02.2-.28.27-.53.01-.05.04-.13.05-.24.01-.1.01-.16.01-.3 0 0 0-.14.01-.3.02-.44 2.88-2.22 3.69-3.36.09-.13.35-.14.39-.59.02-.19.25-.02.2-.39-.02-.15.14-.43.14-.71.07-.25.11-.54.35-1.56z"/><path class="st0" d="M115.82 59.62c.03-.1.07-.28.21-.42.04-.04.17-.16.32-.13.06.01.15.04.17.11 0 .01 0 .02-.01.1 0 0-.02.19-.03.29v.13c-.01.27-.02.3-.01.31.01 0 .04-.07.08-.18.02-.06.04-.11.06-.17 0-.01.01-.02.01-.03.01-.02.04-.12.04-.13.11-.2.05-1 .19-1.3.03-.08.14-.24.31-.29.08-.02.15-.01.3.01.17.03.33.05.46.17.04.04.07.08.14.16.01.01.13.17.22.36.17.35.26.65.27.86.03 1.24.05.93-.29 1.84-.11.3-.25.52-.35.68-.04.05-.11.14-.2.26 0 0-.24.31-.41.55-.38.51-1.85 5.81-5.07 7.82-.08.05-.22.13-.39.22-.19.16-.54.05-.66.01-.84-.27-6.8-3.45-6.51-4.67.02-.05-.17-.28-.24-.26-.04.02-.04.12-.03.24.01.28.12.53.24.75.09.16.19.33.23.5.02.12.01.2-.01.25-.02.05-.04.08-.05.1-.05.11-.12.24-.22.38-.63.96-1.6 1.32-2.86 1.75-3.24 1.12-4.86 1.68-4.91 1.69-.47.09-.88.37-1.32.55-.06.02-.23.1-.3.26 0 .01-.01.02-.01.03-.11.46 1.2.92 2.66 1.89 1.42.94 3.87 2.65 4.13 2.84 0 0 1.01.7 1.23 1.56.09.35.05.68.05.68-.03.27-.13.47-.19.6 0 0-.24.5-.72.91-.13.11-.21.18-.26.24-.08.09-.1.11-.18.2-.13.15-.2.19-.33.31-.17.16-.26.28-.34.37-.49.57-1.67 1.54-1.67 1.54-.37.3-.88.65-1.56 1.19-2.43 1.94-3.18 2.24-3.95 3.09-.48.53-.81 1.01-.99 1.29-.09.11-.21.3-.26.54-.05.21-.11.71.51 1.59.79 1.12 2.29 2.33 2.79 2.66.05.03.22.15.29.35.06.15.06.36-.04.51-.15.22-.52.23-.76.22-1.48-.04-2.38-.44-2.38-.44-1.05-.47-.86-.7-2.27-1.47-.92-.5-1.6-.83-2.1-1.05-.45-.2-1.24-.24-1.5-.75-.08-.15-.1-.3-.1-.32-.05-.42.22-.75.34-.89.23-.28.43-.34.96-.63.31-.18.82-.46 1.21-.78.09-.08.15-.13.26-.24.51-.49.87-.93 1.19-1.31.58-.71.97-1.22.97-1.22 1.51-1.98 2.26-2.97 2.67-3.63.09-.14.29-.48.64-.87.16-.18.63-.71 1.11-.98.22-.12.4-.32.64-.38.02-.01.12-.03.13-.09v-.02c.01-.1-3.02-.67-3.02-.67s-2.98-.56-5.89-2.19c-.01 0-.39-.22-.39-.22-.05-.03-.11-.06-.18-.11-.06-.04-.16-.1-.3-.2-.58-.39-.88-.59-1.07-.79-.03-.03-.07-.07-.08-.07-.03.02-.23.05.05.4.08.1.24.29.51.48.26.19.39.17.38.24-.01.05-.95 3.09-6 5.35-.82.37-3.34 1.72-3.34 1.72-2.71 2.52-4.93 2.66-7.24 3.43 0 0-2.87 1.22-4.21 2.43-.09.08-.34.32-.77.71-.54.49-.61.54-.77.71-.35.37-.37.5-.79 1.08-.36.5-.33.38-1.18 1.44-.47.59-.71.89-.79 1.08-.03.07-.15.38-.4.72-.16.23-.27.31-.39.36-.21.07-.44.01-.56-.06-.6-.37-.12-2.13.13-3.99.01-.06.07-.49.14-.96.02-.11.04-.23.06-.37.06-.35.11-.59.12-.67.14-.72.03-.83.15-1.33.08-.33.25-.96.7-1.11.18-.06.33-.03.6.02.49.09.82.29.9.33.83.45 2.75-.86 2.77-.87 2.21-1.66 3.49-3.91 5.97-5.01 1.23-.55 1.6-.31 2.66-1.01.25-.17.48-.3.54-.42 2.68-5.3 5.71-6.13 5.74-6.14.04-.7.25-2.81 1.82-4.15 1-.85 3.39-1.51 3.87-1.63.08-.02.45-.11.9-.32 0 0 .16-.09.32-.17 1.28-.61 2.28-1.84 4.27-4.28.46-.56.62-.78.86-1.07 0 0 .17-.2.32-.37 1.73-1.97 2.95-2.52 3.2-2.49.73.09.99.43.99.43.04.05.2.23.46.3.1.03.23.05.25.01.02-.04-.07-.1-.26-.29-.17-.17-.15-.16-.22-.22-.14-.12-.25-.16-.5-.26-.16-.07-.31-.16-.47-.23-3.09-1.27-4.8-3.33-4.77-3.3 0 0 .24.3 0 0-.06-.07-.09-.11-.1-.13l-.02-.02c-.01-.05.15-.11.15-.11l.3-.23c0-.01.13-.3.08-.34-.08-.06-.44.48-.92.5-.11.01-.2-.01-.27-.03-3.41-.61-5.93-.98-6.3-.98-.43 0-.75.16-.75.16-.06.03-.11.06-.13.07-.18.11-.33.16-.43.19-.38.11-.66.07-1.26.13-.06.01-.11.01-.17.02-.33.03-.37.06-.48.03-.12-.03-.2-.1-.23-.13-.03-.02-.07-.07-.1-.13-.03-.05-.04-.07-.04-.08 0-.05.05-.1.09-.11.05-.02.11-.02.13-.02.14 0 .26-.05.35-.09.01-.01.22-.09.21-.13l-.27-.03c-.06.01-.16.04-.27.06-.1.02-.16.04-.2.05-.03.01-.08.02-.09.02-.25.06-.51.26-.78.25-.14.02-.21.02-.3-.01-.18-.07-.26-.24-.29-.31 0-.1-.03-.21.01-.3.07-.18.34-.37.63-.59.99-.73 2.1-.81 2.77-.82.63-.01.92.05 1.55.1 2.09.16 4.82-.16 6.43-.02.4.03.81.1.81.1.31.05 1.18.2 3.88 1.26.67.26 1.09.41 1.45.6.66.35 1.19.56 1.28.6 1.36.52 3.31 1.28 3.92 2.13 0 0 .28.39.75.57.04.02.17.07.29.01 0 0 .01 0 .01-.01.13-.07.14-.36.14-.36.02-.68-.09-1.73-.09-1.73-.09-.88.22-1.59.32-1.81.14-.32.44-.95 1.13-1.36.66-.39 1.33-.38 1.61-.38.3 0 .52.04.74.08.93.17 1.8.65 1.8.65.6.32.93.5 1.25.89.15.18.46.52.51 1.04.04.35-.05.96-.1 1.12-.05.19-.11.4-.28.6-.1.12-.12.11-.17.19-.03.05-.1.19 0 .73.03.18.05.27.06.31.01.04.1.42.06.57-.01.03-.01.05-.03.08-.1.21-.24.14-.39.36-.11.16-.16.45-.24 1.02-.01.04-.02.13-.08.21-.11.14-.29.16-.4.17-1.23.15-1.46.15-1.55.14h-.02c-.01 0-1.03.06-1.03.06-.13.08-.3.21-.38.3-.04.04-.06.07-.07.1-.14.21-.37.54-.39.63-.1.49.4.95.73 1.19 1.15.34 3.07 1.89 4.07 3 .37.55-.14 1.38-.04 1.4.07.01.21-.32.28-.53.01-.05.04-.13.05-.24.01-.1.01-.16.01-.3 0 0 0-.14.01-.3.02-.44 2.84-2.03 3.65-3.17.09-.12.3-.44.34-.89.02-.19-.06-.28-.11-.65-.02-.15-.05-.38-.04-.65.04-.28.07-.26.32-1.28z"/><path class="st2" d="m195.87 75.1-3.31 29.21c-.16 1.37-.4 1.69-1.69 1.69h-6.37c-1.29 0-1.86-.48-1.69-1.69l5.16-42.36 7.9 13.15zm-5.52-28.93h1.29c.32 0 .65.16.97.73l26.06 43.57 26.06-43.57c.32-.56.65-.73.97-.73h1.05l1.53 11.3-27.35 45.59c-.73 1.05-1.21 1.69-1.86 1.69h-.89c-.64 0-1.13-.64-1.78-1.69l-27.35-45.59 1.3-11.3zm58.94 15.86 5.24 42.28c.16 1.21-.4 1.69-1.69 1.69h-6.37c-1.29 0-1.61-.32-1.69-1.69l-3.39-29.13 7.9-13.15zM290.61 104.74c-12.51-.24-23.07-8.23-23.07-24.28V48.91c0-1.29.48-1.69 1.78-1.69h6.29c1.37 0 1.69.4 1.69 1.69v31.14c0 11.3 5.56 16.01 13.31 16.17v8.52zM290.61 96.22c7.75-.16 13.31-4.87 13.31-16.17V48.91c0-1.29.32-1.69 1.69-1.69h6.29c1.29 0 1.78.4 1.78 1.69v31.55c0 16.06-10.57 24.04-23.07 24.28v-8.52zM349.28 104.58c-7.56-.24-14.69-2.34-20.28-6.13-1.23-.73-1.07-1.29-.49-2.42l2.55-4.03c.66-1.13 1.15-1.53 2.38-.73 4.93 3.15 11.08 4.6 15.84 4.76v8.55zm.63-49.7c-8.63.4-11.41 5-11.41 8.79 0 5.41 5.73 6.62 13.96 7.66 9.84 1.21 19.28 4.28 19.28 16.22 0 8.71-8.02 17.35-22.46 17.02v-8.55c7.42 0 13.02-2.5 13.02-8.07 0-5.81-5.41-7.34-14.44-8.55-8.79-1.13-18.8-4.2-18.8-15.41 0-6.86 5.84-17.43 20.84-17.67v8.56zm0-8.55c8.44.16 13.86 2.58 19.79 6.13 1.17.65 1 1.29.42 2.42l-2.51 3.95c-.67 1.13-1.25 1.61-2.42.81-5.1-3.31-9.51-4.84-15.28-4.76v-8.55zM412.77 104.74c-16.22-.4-29.43-13.72-29.43-29.29s13.29-28.88 29.43-29.29v8.55c-11.21.32-19.59 10.57-19.59 20.74 0 10.09 8.29 20.49 19.59 20.74v8.55zm0-58.57c7.59.24 15.77 3.47 20.67 8.31.9.89.73 1.45-.16 2.42l-3.75 4.03c-.9.97-1.47 1.13-2.45.16-3.43-3.63-8.59-6.21-14.3-6.37v-8.55zm0 50.02c5.8-.24 10.87-2.74 14.38-6.45.98-.97 1.55-.73 2.45.16l3.75 4.03c.9 1.05 1.06 1.53.08 2.5-4.98 4.84-12.99 8.07-20.67 8.31v-8.55zM457.7 103.69h-8.07c-1.29 0-1.69-.4-1.69-1.69V48.91c0-1.29.4-1.69 1.69-1.69H456c1.29 0 1.69.4 1.69 1.69v54.78zm-.16-8.31h23.64c1.29 0 1.69.32 1.69 1.69V102c0 1.29-.4 1.69-1.69 1.69h-23.64v-8.31zM507.46 103.69h-7.99c-1.37 0-1.77-.4-1.77-1.69V48.91c0-1.29.48-1.69 1.77-1.69h7.99v56.47zm-.09-56.47h26.79c1.29 0 1.78.4 1.78 1.69v4.92c0 1.29-.48 1.78-1.78 1.78h-26.79v-8.39zm0 23.88h25.58c1.37 0 1.69.32 1.69 1.69v4.92c0 1.29-.32 1.69-1.69 1.69h-25.58v-8.3zm0 24.28h26.79c1.37 0 1.78.32 1.78 1.69V102c0 1.29-.4 1.69-1.78 1.69h-26.79v-8.31zM603.13 81l-8.92-19.07h-.17l-18.33 40.38c-.74 1.32-1.07 1.73-2.31 1.73h-7.68c-.99 0-1.49-.91-1.07-1.73l27.91-55.65c.58-.99.83-1.65 1.4-1.65h.25c.66 0 .83.66 1.49 1.65L612.79 81h-9.66zm11.19 2.27 10.07 19.82c.41.83-.08 1.73-1.16 1.73h-7.6c-1.24 0-1.65-.41-2.31-1.73l-5.45-11.31h-24.61l3.88-8.5h27.18zM703.55 104.04h-8.26c-1.32 0-1.73-.41-1.73-1.73V47.97c0-1.32.41-1.73 1.73-1.73h8.26v57.8zm-.17-8.34h10.98c11.97 0 19.16-9.83 19.16-20.56 0-10.82-7.18-20.56-19.16-20.56h-10.98v-8.34h11.06c16.27 0 29.15 12.47 29.15 28.9s-12.88 28.9-29.15 28.9h-11.06V95.7zM755.28 47.97c0-1.32.41-1.73 1.73-1.73h6.52c1.4 0 1.73.41 1.73 1.73v54.33c0 1.32-.41 1.73-1.73 1.73h-6.52c-1.32 0-1.73-.41-1.73-1.73V47.97zM805.62 102.3c0 1.32-.41 1.73-1.82 1.73h-6.44c-1.4 0-1.73-.41-1.73-1.73V55.16h-18.08c-1.4 0-1.73-.41-1.73-1.73v-5.45c0-1.32.41-1.73 1.73-1.73h28.07v56.05zm-.17-56.06h16.6c1.4 0 1.73.41 1.73 1.73v5.45c0 1.4-.41 1.73-1.73 1.73h-16.6v-8.91zM859.01 104.35c-15.72-.05-28.33-13.6-28.33-29.13 0-15.52 12.61-29.2 28.33-29.2v8.52c-11.23-.3-18.45 10.55-18.45 20.68s7.23 20.86 18.45 20.61v8.52zM908.46 102.3c0 1.4-.41 1.73-1.73 1.73h-6.52c-1.32 0-1.73-.33-1.73-1.73V47.97c0-1.32.41-1.73 1.73-1.73h8.26v56.06zm-.17-21.13v-8.34h10.07c8.59 0 11.31-4.05 11.31-9.25 0-6.28-4.21-9-11.31-9h-10.07v-8.34h10.49c9.41 0 20.56 3.96 20.56 17.34s-10.9 17.59-20.56 17.59h-10.49zm19.38-2.42 14.35 22.37c1.04 1.66-.09 2.5-1.57 2.5h-6.44c-1.48 0-2.35-.65-3.22-1.94l-14.09-22.1h2.61c3.57 0 5.91-.37 8.09-1.2l.27.37zM655.47 105.41c-12.8-.25-23.61-8.42-23.61-24.85V48.27c0-1.32.5-1.73 1.82-1.73h6.44c1.4 0 1.73.41 1.73 1.73v31.87c0 11.56 5.69 16.38 13.62 16.55v8.72z"/><path class="st2" d="M655.47 96.69c7.93-.17 13.62-4.99 13.62-16.55V48.27c0-1.32.33-1.73 1.73-1.73h6.44c1.32 0 1.82.41 1.82 1.73v32.28c0 16.43-10.81 24.61-23.61 24.85v-8.71zM859.01 95.83c11.23.25 18.45-10.51 18.45-20.64s-7.23-20.96-18.45-20.66v-8.52c15.72 0 28.33 13.66 28.33 29.18 0 15.51-12.61 29.11-28.33 29.15v-8.51z"/></g></svg>