<?xml version="1.0" encoding="utf-8"?>
<!-- Generator: Adobe Illustrator 24.2.1, SVG Export Plug-In . SVG Version: 6.00 Build 0)  -->
<svg version="1.1" xmlns="http://www.w3.org/2000/svg" xmlns:xlink="http://www.w3.org/1999/xlink" x="0px" y="0px"
	 viewBox="0 0 960 150" style="enable-background:new 0 0 960 150;" xml:space="preserve">
<style type="text/css">
	.st0{fill:#FFFFFF;}
	.st1{fill:#ED7540;}
	.st2{fill:#2B4656;}
	.st3{display:none;}
	.st4{display:inline;}
	.st5{display:inline;fill:#ED7540;}
	.st6{display:inline;fill:#2B4656;}
	.st7{display:inline;fill:#FFFFFF;}
</style>
<g id="Capitol">
	<g>
		<circle class="st0" cx="89" cy="75" r="70"/>
	</g>
	<path class="st1" d="M88.5,0C47.35,0,14,33.35,14,74.5S47.35,149,88.5,149S163,115.65,163,74.5S129.65,0,88.5,0z M88.28,126.19
		c-28.69,0-51.95-23.26-51.95-51.95s23.26-51.95,51.95-51.95s51.95,23.26,51.95,51.95S116.97,126.19,88.28,126.19z"/>
	<circle class="st2" cx="88.29" cy="74.27" r="49.67"/>
	<g>
		<path class="st0" d="M115.73,93.62l-3.01-6.39l-0.06,0l-6.86,13.81c-0.25,0.44-0.36,0.58-0.78,0.58l-2.6,0
			c-0.34,0-0.5-0.3-0.36-0.58l10.11-18.91c0.2-0.33,0.28-0.55,0.48-0.55l0.08,0c0.22,0,0.28,0.22,0.5,0.55l5.77,11.5L115.73,93.62z
			 M119.19,94.62l3.71,6.54c0.14,0.26-0.03,0.54-0.39,0.54l-2.57,0c-0.42,0-0.56-0.13-0.78-0.55l-1.84-3.56l-8.33-0.01l1.63-2.98
			L119.19,94.62z"/>
	</g>
	<g>
		<g>
			<path class="st0" d="M56.99,54.91l-1.15,10.06c-0.06,0.47-0.14,0.58-0.59,0.58h-2.22c-0.45,0-0.65-0.17-0.59-0.58l1.8-14.59
				L56.99,54.91z M55.08,44.8h0.45c0.11,0,0.23,0.06,0.34,0.25l9.09,15l9.09-15c0.11-0.19,0.22-0.25,0.34-0.25h0.37l0.53,3.89
				l-9.53,15.7c-0.25,0.36-0.42,0.58-0.65,0.58h-0.31c-0.23,0-0.39-0.22-0.62-0.58l-9.53-15.7L55.08,44.8z M75.65,50.4l1.83,14.56
				c0.06,0.42-0.14,0.58-0.59,0.58h-2.22c-0.45,0-0.56-0.11-0.59-0.58l-1.18-10.03L75.65,50.4z"/>
		</g>
	</g>
	<path class="st1" d="M117.2,60.47c0.02-0.1,0.07-0.28,0.21-0.42c0.04-0.04,0.17-0.16,0.32-0.14c0.06,0.01,0.15,0.04,0.17,0.11
		c0,0.01,0,0.02-0.01,0.1c0,0-0.02,0.19-0.03,0.29c0,0,0,0.01,0,0.01c0,0.01,0,0.02,0,0.12c-0.01,0.27-0.01,0.3,0,0.31
		c0.01,0,0.04-0.07,0.08-0.19c0.02-0.06,0.04-0.11,0.05-0.17c0-0.01,0.01-0.02,0.01-0.03c0.01-0.02,0.04-0.12,0.04-0.13
		c0.59-1.11-0.1-1.92-0.1-1.92c-0.14-0.36-0.13-0.47-0.09-0.5c0.1-0.07,0.49,0.22,0.73,0.56c0.28,0.39,0.34,0.78,0.4,1.19
		c0.05,0.31,0.1,0.7,0,1.19c-0.09,0.45-0.27,0.79-0.4,0.99c-0.21,0.22-0.65,0.59-0.99,1.19c-0.99,2.98-3.18,7.15-5.13,8.21
		c-0.31,0.09-0.58,0.17-0.58,0.17c-0.24,0-0.43-0.03-0.54-0.06c-1.35-0.39-6.02-2.76-5.84-3.45c0,0,0-0.26,0.01-0.26
		c0,0,0,0.01,0,0.01c0.11,0.17-0.53,1.75-2.56,2.63c-2.08,0.74-5.1,1.42-5.36,1.72c-0.02,0.02-0.05,0.02-0.05,0.02
		c-0.07,0.03-0.21,0.11-0.42,0.23c-0.34,0.2-0.63,0.42-1.09,0.75c-0.27,0.2,0.01,0.24-0.01,0.3c-0.11,0.46,1.2,0.91,2.66,1.88
		c1.42,0.94,3.88,2.64,4.15,2.83c0,0,0.71,0.68,0.94,1.54c0.09,0.35,0.05,0.68,0.05,0.68c-0.03,0.27-0.12,0.47-0.19,0.6
		c0,0-0.24,0.5-0.72,0.91c-0.13,0.11-0.2,0.18-0.26,0.25c-0.08,0.09-0.1,0.11-0.18,0.2c-0.13,0.15-0.2,0.19-0.33,0.31
		c-0.17,0.16-0.33,0.37-0.33,0.37s-1.67,1.54-1.67,1.54c-0.37,0.3-0.88,0.65-1.56,1.19c-2.43,1.95-3.17,2.25-3.93,3.1
		c-0.48,0.53-0.81,1.01-0.99,1.3c-0.09,0.11-0.21,0.3-0.26,0.54c-0.05,0.21,0.2,0.72,0.82,1.6c0.79,1.11,1.91,1.7,2.25,2.2
		c0.33,0.5,0.47,0.58,0.54,0.79c0.06,0.15,0.06,0.36-0.04,0.51c-0.16,0.23-0.53,0.24-0.77,0.23c-1.48-0.03-2.22-0.4-2.22-0.4
		c-1.5-0.66-0.74-0.42-2.15-1.18c-0.92-0.5-1.6-0.82-2.11-1.04c-0.45-0.2-1.24-0.24-1.51-0.74c-0.08-0.15-0.1-0.3-0.1-0.32
		c-0.05-0.42,0.22-0.75,0.33-0.89c0.23-0.28,0.43-0.34,0.96-0.64c0.31-0.18,0.83-0.76,1.22-1.09c0.09-0.08,0.15-0.13,0.26-0.24
		c0.51-0.49,0.87-0.93,1.18-1.31c0.58-0.72,0.96-1.22,0.96-1.22c1.5-1.98,2.25-2.97,2.65-3.64c0.09-0.14,0.29-0.48,0.63-0.88
		c0.15-0.18,0.63-0.71,1.11-0.99c0.22-0.12,0.4-0.32,0.63-0.38c0.02-0.01,0.12-0.03,0.13-0.09c0,0,0,0,0,0c0-0.01,0-0.02,0-0.02
		c-0.36-0.12-0.7-0.22-1.02-0.32c-1.85,0.5-7.7-2.01-8.48-2.82c-0.01-0.02-0.5-0.37-0.5-0.37c0.15,0.09-0.74,3.66-6,5.82
		c-0.83,0.34-3.49,1.4-3.49,1.4c-2.44,2.67-4.88,3.04-7.29,3.7c-2.08,0.57-3.31,1.73-4.03,2.33c-0.35,0.29-0.65,0.55-1.02,0.95
		c-0.78,0.86-0.83,1.3-1.8,2.47c-0.2,0.25-0.41,0.5-0.61,0.75c-0.47,0.59-0.7,0.89-0.78,1.08c-0.03,0.07-0.15,0.38-0.4,0.73
		c-0.16,0.23-0.26,0.31-0.39,0.36c-0.21,0.07-0.44,0.01-0.56-0.06c-0.6-0.36-0.13-2.13,0.11-3.99c0.01-0.06,0.06-0.49,0.14-0.96
		c0.02-0.11,0.04-0.23,0.06-0.37c0.06-0.35,0.11-0.59,0.12-0.67c0.13-0.72,0.02-0.83,0.15-1.33c0.08-0.33,0.24-0.96,0.7-1.12
		c0.18-0.06,0.33-0.03,0.6,0.02c0.49,0.09,0.82,0.29,0.9,0.33c0.84,0.44,2.75-0.87,2.76-0.88l0,0c2.2-1.66,3.48-3.93,5.95-5.04
		c1.23-0.55,1.6-0.31,2.65-1.02c0.25-0.17,0.48-0.3,0.54-0.43c2.65-5.31,5.68-6.16,5.71-6.16c0.04-0.71,0.24-2.82,1.81-4.16
		c1-0.85,3.38-1.52,3.87-1.65c0.08-0.02,0.45-0.11,0.9-0.32c0,0,0.16-0.09,0.32-0.17c1.28-0.62,2.27-1.85,4.26-4.3
		c0.46-0.56,0.62-0.78,0.85-1.07c0,0,0.16-0.2,0.32-0.37c1.72-1.97,2.92-2.23,3.18-2.2c0.35,0.04,0.83,0.31,0.99,0.42
		c0.2,0.13,0.38,0.27,0.67,0.29c0.12,0.01,0.25-0.01,0.25-0.04c0.01-0.04-0.17-0.08-0.47-0.23c-0.05-0.03-0.1-0.05-0.14-0.08
		c-0.43-0.26-0.8-0.77-0.8-0.77c-0.15-0.15-0.27-0.36-0.47-0.44c-2.45-0.97-4.61-1.95-5.47-4.03c0,0-0.14,0.04-0.14,0.04
		c-0.36,0.36-3.84-0.45-6.31-0.96c-0.42-0.09-0.75,0.16-0.75,0.16c-0.06,0.03-0.11,0.06-0.13,0.07c-0.18,0.11-0.33,0.16-0.43,0.2
		c-0.38,0.12-0.66,0.07-1.26,0.14c-0.06,0.01-0.11,0.01-0.17,0.02c-0.33,0.04-0.37,0.06-0.47,0.03c-0.12-0.03-0.2-0.1-0.23-0.13
		c-0.03-0.02-0.07-0.06-0.1-0.13c-0.03-0.05-0.04-0.07-0.04-0.08c0-0.05,0.05-0.1,0.09-0.11c0.05-0.02,0.11-0.02,0.13-0.02
		c0,0,0,0,0,0c0.14,0,0.26-0.05,0.35-0.09c0.01-0.01,0.22-0.09,0.2-0.13c0,0-0.27-0.03-0.27-0.03c-0.06,0.02-0.16,0.04-0.27,0.06
		c-0.1,0.02-0.16,0.04-0.2,0.05c-0.03,0.01,0.63-0.08,0.27-0.03c-0.26,0.04-0.92,0.27-1.14,0.31l0,0c-0.14,0.02-0.21,0.03-0.3-0.01
		c-0.18-0.07-0.26-0.24-0.3-0.31c0-0.1-0.03-0.21,0.01-0.3c0.07-0.18,0.33-0.37,0.63-0.59c0.99-0.74,2.1-0.82,2.77-0.83
		c0.63-0.01,0.92,0.04,1.55,0.09c2.09,0.16,4.82-0.18,6.43-0.05c0.4,0.03,0.8,0.4,0.8,0.4c0.31,0.05,1.46,0.82,4.17,1.87
		c0.67,0.26,1.09,0.4,1.46,0.59c0.66,0.35,1.19,0.56,1.29,0.59c1.36,0.51,3.33,0.96,3.94,1.81c0,0,0.28,0.39,0.75,0.56
		c0.04,0.02,0.17,0.07,0.29,0.01c0,0,0,0,0,0c0,0,0.01,0,0.01-0.01c0.13-0.07,0.14-0.36,0.14-0.36c0.01-0.68-0.1-1.73-0.1-1.73
		c-0.1-0.88,0.21-1.59,0.31-1.81c0.14-0.32,0.43-0.95,1.13-1.36c0.65-0.39,1.65-0.68,1.92-0.68c0.32,0,0.6,0.05,0.74,0.08
		c0.22,0.04,0.78,0.24,1.2,0.41c0.75,0.3,1.44,0.94,1.84,1.42c0.27,0.32,0.47,0.62,0.51,1.04c0.04,0.35-0.04,0.66-0.08,0.81
		c-0.05,0.19-0.11,0.4-0.27,0.61c-0.1,0.12-0.12,0.11-0.17,0.19c-0.03,0.05-0.1,0.19,0,0.73c0.03,0.18,0.05,0.27,0.06,0.31
		c0.01,0.04,0.1,0.42,0.06,0.57c-0.01,0.03-0.01,0.05-0.03,0.08c-0.1,0.21-0.24,0.14-0.39,0.36c-0.11,0.16-0.15,0.45-0.23,1.02
		c-0.01,0.04-0.02,0.13-0.08,0.21c-0.11,0.14-0.29,0.16-0.4,0.17c-1.23,0.16-1.46,0.16-1.55,0.15c0,0,0,0-0.01,0
		c-0.01,0-0.01,0-0.01,0c-0.01,0-1.03,0.07-1.03,0.07c0,0,0,0,0,0c-0.13,0.08-0.3,0.21-0.37,0.3c-0.04,0.04-0.06,0.07-0.07,0.1
		c0,0,0,0,0,0c0,0,0,0,0,0l0,0c-0.14,0.21-0.68,0.84-0.7,0.93c-0.09,0.44,0.24,0.95,0.74,1.18c1.66,0.77,3.99,2.02,4.1,2.57
		c0,0,0.03,0.82-0.05,1.42c-0.02,0.17-0.05,0.37-0.01,0.39c0.05,0.02,0.2-0.28,0.27-0.53c0.01-0.05,0.04-0.13,0.05-0.24
		c0.01-0.1,0.01-0.16,0.01-0.3c0,0,0-0.14,0.01-0.3c0.02-0.44,2.88-2.22,3.69-3.36c0.09-0.13,0.35-0.14,0.39-0.59
		c0.02-0.19,0.25-0.02,0.2-0.39c-0.02-0.15,0.14-0.43,0.14-0.71C116.92,61.78,116.96,61.49,117.2,60.47z"/>
	<path class="st0" d="M115.82,59.62c0.03-0.1,0.07-0.28,0.21-0.42c0.04-0.04,0.17-0.16,0.32-0.13c0.06,0.01,0.15,0.04,0.17,0.11
		c0,0.01,0,0.02-0.01,0.1c0,0-0.02,0.19-0.03,0.29c0,0,0,0.01,0,0.01c0,0.01,0,0.02,0,0.12c-0.01,0.27-0.02,0.3-0.01,0.31
		c0.01,0,0.04-0.07,0.08-0.18c0.02-0.06,0.04-0.11,0.06-0.17c0-0.01,0.01-0.02,0.01-0.03c0.01-0.02,0.04-0.12,0.04-0.13
		c0.11-0.2,0.05-1,0.19-1.3c0.03-0.08,0.14-0.24,0.31-0.29c0.08-0.02,0.15-0.01,0.3,0.01c0.17,0.03,0.33,0.05,0.46,0.17
		c0.04,0.04,0.07,0.08,0.14,0.16c0.01,0.01,0.13,0.17,0.22,0.36c0.17,0.35,0.26,0.65,0.27,0.86c0.03,1.24,0.05,0.93-0.29,1.84
		c-0.11,0.3-0.25,0.52-0.35,0.68c-0.04,0.05-0.11,0.14-0.2,0.26c0,0,0,0,0,0c0,0-0.24,0.31-0.41,0.55
		c-0.38,0.51-1.85,5.81-5.07,7.82c-0.08,0.05-0.22,0.13-0.39,0.22c0,0,0,0,0,0c-0.19,0.16-0.54,0.05-0.66,0.01
		c-0.84-0.27-6.8-3.45-6.51-4.67c0.02-0.05-0.17-0.28-0.24-0.26c-0.04,0.02-0.04,0.12-0.03,0.24c0.01,0.28,0.12,0.53,0.24,0.75
		c0.09,0.16,0.19,0.33,0.23,0.5c0.02,0.12,0.01,0.2-0.01,0.25c-0.02,0.05-0.04,0.08-0.05,0.1c-0.05,0.11-0.12,0.24-0.22,0.38
		c-0.63,0.96-1.6,1.32-2.86,1.75c-3.24,1.12-4.86,1.68-4.91,1.69c-0.47,0.09-0.88,0.37-1.32,0.55c-0.06,0.02-0.23,0.1-0.3,0.26
		c0,0.01-0.01,0.02-0.01,0.03c-0.11,0.46,1.2,0.92,2.66,1.89c1.42,0.94,3.87,2.65,4.13,2.84c0,0,1.01,0.7,1.23,1.56
		c0.09,0.35,0.05,0.68,0.05,0.68c-0.03,0.27-0.13,0.47-0.19,0.6c0,0-0.24,0.5-0.72,0.91c-0.13,0.11-0.21,0.18-0.26,0.24
		c-0.08,0.09-0.1,0.11-0.18,0.2c-0.13,0.15-0.2,0.19-0.33,0.31c-0.17,0.16-0.26,0.28-0.34,0.37c-0.49,0.57-1.67,1.54-1.67,1.54
		c-0.37,0.3-0.88,0.65-1.56,1.19c-2.43,1.94-3.18,2.24-3.95,3.09c-0.48,0.53-0.81,1.01-0.99,1.29c-0.09,0.11-0.21,0.3-0.26,0.54
		c-0.05,0.21-0.11,0.71,0.51,1.59c0.79,1.12,2.29,2.33,2.79,2.66c0.05,0.03,0.22,0.15,0.29,0.35c0.06,0.15,0.06,0.36-0.04,0.51
		C96.21,95,95.84,95.01,95.6,95c-1.48-0.04-2.38-0.44-2.38-0.44c-1.05-0.47-0.86-0.7-2.27-1.47c-0.92-0.5-1.6-0.83-2.1-1.05
		c-0.45-0.2-1.24-0.24-1.5-0.75c-0.08-0.15-0.1-0.3-0.1-0.32c-0.05-0.42,0.22-0.75,0.34-0.89c0.23-0.28,0.43-0.34,0.96-0.63
		c0.31-0.18,0.82-0.46,1.21-0.78c0.09-0.08,0.15-0.13,0.26-0.24c0.51-0.49,0.87-0.93,1.19-1.31c0.58-0.71,0.97-1.22,0.97-1.22
		c1.51-1.98,2.26-2.97,2.67-3.63c0.09-0.14,0.29-0.48,0.64-0.87c0.16-0.18,0.63-0.71,1.11-0.98c0.22-0.12,0.4-0.32,0.64-0.38
		c0.02-0.01,0.12-0.03,0.13-0.09c0,0,0,0,0,0c0-0.01,0-0.02,0-0.02c0.01-0.1-3.02-0.67-3.02-0.67c0,0-2.98-0.56-5.89-2.19
		c-0.01,0-0.39-0.22-0.39-0.22c-0.05-0.03-0.11-0.06-0.18-0.11c-0.06-0.04-0.16-0.1-0.3-0.2c-0.58-0.39-0.88-0.59-1.07-0.79
		c-0.03-0.03-0.07-0.07-0.08-0.07c-0.03,0.02-0.23,0.05,0.05,0.4c0.08,0.1,0.24,0.29,0.51,0.48c0.26,0.19,0.39,0.17,0.38,0.24
		c-0.01,0.05-0.95,3.09-6,5.35c-0.82,0.37-3.34,1.72-3.34,1.72c-2.71,2.52-4.93,2.66-7.24,3.43c0,0-2.87,1.22-4.21,2.43
		c-0.09,0.08-0.34,0.32-0.77,0.71c-0.54,0.49-0.61,0.54-0.77,0.71c-0.35,0.37-0.37,0.5-0.79,1.08c-0.36,0.5-0.33,0.38-1.18,1.44
		c-0.47,0.59-0.71,0.89-0.79,1.08c-0.03,0.07-0.15,0.38-0.4,0.72c-0.16,0.23-0.27,0.31-0.39,0.36c-0.21,0.07-0.44,0.01-0.56-0.06
		c-0.6-0.37-0.12-2.13,0.13-3.99c0.01-0.06,0.07-0.49,0.14-0.96c0.02-0.11,0.04-0.23,0.06-0.37c0.06-0.35,0.11-0.59,0.12-0.67
		c0.14-0.72,0.03-0.83,0.15-1.33c0.08-0.33,0.25-0.96,0.7-1.11c0.18-0.06,0.33-0.03,0.6,0.02c0.49,0.09,0.82,0.29,0.9,0.33
		c0.83,0.45,2.75-0.86,2.77-0.87l0,0c2.21-1.66,3.49-3.91,5.97-5.01c1.23-0.55,1.6-0.31,2.66-1.01c0.25-0.17,0.48-0.3,0.54-0.42
		c2.68-5.3,5.71-6.13,5.74-6.14c0.04-0.7,0.25-2.81,1.82-4.15c1-0.85,3.39-1.51,3.87-1.63c0.08-0.02,0.45-0.11,0.9-0.32
		c0,0,0.16-0.09,0.32-0.17c1.28-0.61,2.28-1.84,4.27-4.28c0.46-0.56,0.62-0.78,0.86-1.07c0,0,0.17-0.2,0.32-0.37
		c1.73-1.97,2.95-2.52,3.2-2.49c0.73,0.09,0.99,0.43,0.99,0.43c0.04,0.05,0.2,0.23,0.46,0.3c0.1,0.03,0.23,0.05,0.25,0.01
		c0.02-0.04-0.07-0.1-0.26-0.29c-0.17-0.17-0.15-0.16-0.22-0.22c-0.14-0.12-0.25-0.16-0.5-0.26c-0.16-0.07-0.31-0.16-0.47-0.23
		c-3.09-1.27-4.8-3.33-4.77-3.3c0,0,0.24,0.3,0,0c-0.06-0.07-0.09-0.11-0.1-0.13c-0.01-0.01-0.01-0.01-0.02-0.02
		c-0.01-0.05,0.15-0.11,0.15-0.11c0,0,0.3-0.23,0.3-0.23c0-0.01,0.13-0.3,0.08-0.34c-0.08-0.06-0.44,0.48-0.92,0.5
		c-0.11,0.01-0.2-0.01-0.27-0.03c-3.41-0.61-5.93-0.98-6.3-0.98c-0.43,0-0.75,0.16-0.75,0.16c-0.06,0.03-0.11,0.06-0.13,0.07
		c-0.18,0.11-0.33,0.16-0.43,0.19c-0.38,0.11-0.66,0.07-1.26,0.13c-0.06,0.01-0.11,0.01-0.17,0.02c-0.33,0.03-0.37,0.06-0.48,0.03
		c-0.12-0.03-0.2-0.1-0.23-0.13c-0.03-0.02-0.07-0.07-0.1-0.13c-0.03-0.05-0.04-0.07-0.04-0.08c0-0.05,0.05-0.1,0.09-0.11
		c0.05-0.02,0.11-0.02,0.13-0.02c0,0,0,0,0,0c0.14,0,0.26-0.05,0.35-0.09c0.01-0.01,0.22-0.09,0.21-0.13c0,0-0.27-0.03-0.27-0.03
		c-0.06,0.01-0.16,0.04-0.27,0.06c-0.1,0.02-0.16,0.04-0.2,0.05c-0.03,0.01-0.08,0.02-0.09,0.02c-0.25,0.06-0.51,0.26-0.78,0.25h0
		c-0.14,0.02-0.21,0.02-0.3-0.01c-0.18-0.07-0.26-0.24-0.29-0.31c0-0.1-0.03-0.21,0.01-0.3c0.07-0.18,0.34-0.37,0.63-0.59
		c0.99-0.73,2.1-0.81,2.77-0.82c0.63-0.01,0.92,0.05,1.55,0.1c2.09,0.16,4.82-0.16,6.43-0.02c0.4,0.03,0.81,0.1,0.81,0.1
		c0.31,0.05,1.18,0.2,3.88,1.26c0.67,0.26,1.09,0.41,1.45,0.6c0.66,0.35,1.19,0.56,1.28,0.6c1.36,0.52,3.31,1.28,3.92,2.13
		c0,0,0.28,0.39,0.75,0.57c0.04,0.02,0.17,0.07,0.29,0.01c0,0,0,0,0,0c0,0,0.01,0,0.01-0.01c0.13-0.07,0.14-0.36,0.14-0.36
		c0.02-0.68-0.09-1.73-0.09-1.73c-0.09-0.88,0.22-1.59,0.32-1.81c0.14-0.32,0.44-0.95,1.13-1.36c0.66-0.39,1.33-0.38,1.61-0.38
		c0.3,0,0.52,0.04,0.74,0.08c0.93,0.17,1.8,0.65,1.8,0.65c0.6,0.32,0.93,0.5,1.25,0.89c0.15,0.18,0.46,0.52,0.51,1.04
		c0.04,0.35-0.05,0.96-0.1,1.12c-0.05,0.19-0.11,0.4-0.28,0.6c-0.1,0.12-0.12,0.11-0.17,0.19c-0.03,0.05-0.1,0.19,0,0.73
		c0.03,0.18,0.05,0.27,0.06,0.31c0.01,0.04,0.1,0.42,0.06,0.57c-0.01,0.03-0.01,0.05-0.03,0.08c-0.1,0.21-0.24,0.14-0.39,0.36
		c-0.11,0.16-0.16,0.45-0.24,1.02c-0.01,0.04-0.02,0.13-0.08,0.21c-0.11,0.14-0.29,0.16-0.4,0.17c-1.23,0.15-1.46,0.15-1.55,0.14
		c0,0,0,0-0.01,0c-0.01,0-0.01,0-0.01,0c-0.01,0-1.03,0.06-1.03,0.06c0,0,0,0,0,0c-0.13,0.08-0.3,0.21-0.38,0.3
		c-0.04,0.04-0.06,0.07-0.07,0.1c0,0,0,0,0,0c0,0,0,0,0,0l0,0c-0.14,0.21-0.37,0.54-0.39,0.63c-0.1,0.49,0.4,0.95,0.73,1.19
		c1.15,0.34,3.07,1.89,4.07,3c0.37,0.55-0.14,1.38-0.04,1.4c0.07,0.01,0.21-0.32,0.28-0.53c0.01-0.05,0.04-0.13,0.05-0.24
		c0.01-0.1,0.01-0.16,0.01-0.3c0,0,0-0.14,0.01-0.3c0.02-0.44,2.84-2.03,3.65-3.17c0.09-0.12,0.3-0.44,0.34-0.89
		c0.02-0.19-0.06-0.28-0.11-0.65c-0.02-0.15-0.05-0.38-0.04-0.65C115.54,60.62,115.57,60.64,115.82,59.62z"/>
	<path class="st1" d="M101.2,69.73"/>
	<path class="st1" d="M101.2,69"/>
	<g>
		<g>
			<path class="st2" d="M195.87,75.1l-3.31,29.21c-0.16,1.37-0.4,1.69-1.69,1.69h-6.37c-1.29,0-1.86-0.48-1.69-1.69l5.16-42.36
				L195.87,75.1z M190.35,46.17h1.29c0.32,0,0.65,0.16,0.97,0.73l26.06,43.57l26.06-43.57c0.32-0.56,0.65-0.73,0.97-0.73h1.05
				l1.53,11.3l-27.35,45.59c-0.73,1.05-1.21,1.69-1.86,1.69h-0.89c-0.64,0-1.13-0.64-1.78-1.69l-27.35-45.59L190.35,46.17z
				 M249.29,62.03l5.24,42.28c0.16,1.21-0.4,1.69-1.69,1.69h-6.37c-1.29,0-1.61-0.32-1.69-1.69l-3.39-29.13L249.29,62.03z"/>
			<path class="st2" d="M290.61,104.74c-12.51-0.24-23.07-8.23-23.07-24.28V48.91c0-1.29,0.48-1.69,1.78-1.69h6.29
				c1.37,0,1.69,0.4,1.69,1.69v31.14c0,11.3,5.56,16.01,13.31,16.17V104.74z"/>
			<path class="st2" d="M290.61,96.22c7.75-0.16,13.31-4.87,13.31-16.17V48.91c0-1.29,0.32-1.69,1.69-1.69h6.29
				c1.29,0,1.78,0.4,1.78,1.69v31.55c0,16.06-10.57,24.04-23.07,24.28V96.22z"/>
			<path class="st2" d="M349.28,104.58c-7.56-0.24-14.69-2.34-20.28-6.13c-1.23-0.73-1.07-1.29-0.49-2.42l2.55-4.03
				c0.66-1.13,1.15-1.53,2.38-0.73c4.93,3.15,11.08,4.6,15.84,4.76V104.58z M349.91,54.88c-8.63,0.4-11.41,5-11.41,8.79
				c0,5.41,5.73,6.62,13.96,7.66c9.84,1.21,19.28,4.28,19.28,16.22c0,8.71-8.02,17.35-22.46,17.02v-8.55
				c7.42,0,13.02-2.5,13.02-8.07c0-5.81-5.41-7.34-14.44-8.55c-8.79-1.13-18.8-4.2-18.8-15.41c0-6.86,5.84-17.43,20.84-17.67V54.88z
				 M349.91,46.33c8.44,0.16,13.86,2.58,19.79,6.13c1.17,0.65,1,1.29,0.42,2.42l-2.51,3.95c-0.67,1.13-1.25,1.61-2.42,0.81
				c-5.1-3.31-9.51-4.84-15.28-4.76V46.33z"/>
			<path class="st2" d="M412.77,104.74c-16.22-0.4-29.43-13.72-29.43-29.29s13.29-28.88,29.43-29.29v8.55
				c-11.21,0.32-19.59,10.57-19.59,20.74c0,10.09,8.29,20.49,19.59,20.74V104.74z M412.77,46.17c7.59,0.24,15.77,3.47,20.67,8.31
				c0.9,0.89,0.73,1.45-0.16,2.42l-3.75,4.03c-0.9,0.97-1.47,1.13-2.45,0.16c-3.43-3.63-8.59-6.21-14.3-6.37V46.17z M412.77,96.19
				c5.8-0.24,10.87-2.74,14.38-6.45c0.98-0.97,1.55-0.73,2.45,0.16l3.75,4.03c0.9,1.05,1.06,1.53,0.08,2.5
				c-4.98,4.84-12.99,8.07-20.67,8.31V96.19z"/>
			<path class="st2" d="M457.7,103.69h-8.07c-1.29,0-1.69-0.4-1.69-1.69V48.91c0-1.29,0.4-1.69,1.69-1.69h6.37
				c1.29,0,1.69,0.4,1.69,1.69V103.69z M457.54,95.38h23.64c1.29,0,1.69,0.32,1.69,1.69V102c0,1.29-0.4,1.69-1.69,1.69h-23.64V95.38
				z"/>
			<path class="st2" d="M507.46,103.69h-7.99c-1.37,0-1.77-0.4-1.77-1.69V48.91c0-1.29,0.48-1.69,1.77-1.69h7.99V103.69z
				 M507.37,47.22h26.79c1.29,0,1.78,0.4,1.78,1.69v4.92c0,1.29-0.48,1.78-1.78,1.78h-26.79V47.22z M507.37,71.1h25.58
				c1.37,0,1.69,0.32,1.69,1.69v4.92c0,1.29-0.32,1.69-1.69,1.69h-25.58V71.1z M507.37,95.38h26.79c1.37,0,1.78,0.32,1.78,1.69V102
				c0,1.29-0.4,1.69-1.78,1.69h-26.79V95.38z"/>
		</g>
	</g>
	<path class="st2" d="M603.13,81l-8.92-19.07h-0.17l-18.33,40.38c-0.74,1.32-1.07,1.73-2.31,1.73h-7.68c-0.99,0-1.49-0.91-1.07-1.73
		l27.91-55.65c0.58-0.99,0.83-1.65,1.4-1.65h0.25c0.66,0,0.83,0.66,1.49,1.65L612.79,81H603.13z M614.32,83.27l10.07,19.82
		c0.41,0.83-0.08,1.73-1.16,1.73h-7.6c-1.24,0-1.65-0.41-2.31-1.73l-5.45-11.31h-24.61l3.88-8.5H614.32z"/>
	<path class="st2" d="M703.55,104.04h-8.26c-1.32,0-1.73-0.41-1.73-1.73V47.97c0-1.32,0.41-1.73,1.73-1.73h8.26V104.04z
		 M703.38,95.7h10.98c11.97,0,19.16-9.83,19.16-20.56c0-10.82-7.18-20.56-19.16-20.56h-10.98v-8.34h11.06
		c16.27,0,29.15,12.47,29.15,28.9c0,16.43-12.88,28.9-29.15,28.9h-11.06V95.7z"/>
	<path class="st2" d="M755.28,47.97c0-1.32,0.41-1.73,1.73-1.73h6.52c1.4,0,1.73,0.41,1.73,1.73v54.33c0,1.32-0.41,1.73-1.73,1.73
		h-6.52c-1.32,0-1.73-0.41-1.73-1.73V47.97z"/>
	<path class="st2" d="M805.62,102.3c0,1.32-0.41,1.73-1.82,1.73h-6.44c-1.4,0-1.73-0.41-1.73-1.73V55.16h-18.08
		c-1.4,0-1.73-0.41-1.73-1.73v-5.45c0-1.32,0.41-1.73,1.73-1.73h28.07V102.3z M805.45,46.24h16.6c1.4,0,1.73,0.41,1.73,1.73v5.45
		c0,1.4-0.41,1.73-1.73,1.73h-16.6V46.24z"/>
	<path class="st2" d="M859.01,104.35c-15.72-0.05-28.33-13.6-28.33-29.13c0-15.52,12.61-29.2,28.33-29.2v8.52
		c-11.23-0.3-18.45,10.55-18.45,20.68s7.23,20.86,18.45,20.61V104.35z"/>
	<path class="st2" d="M908.46,102.3c0,1.4-0.41,1.73-1.73,1.73h-6.52c-1.32,0-1.73-0.33-1.73-1.73V47.97c0-1.32,0.41-1.73,1.73-1.73
		h8.26V102.3z M908.29,81.17v-8.34h10.07c8.59,0,11.31-4.05,11.31-9.25c0-6.28-4.21-9-11.31-9h-10.07v-8.34h10.49
		c9.41,0,20.56,3.96,20.56,17.34s-10.9,17.59-20.56,17.59H908.29z M927.67,78.75l14.35,22.37c1.04,1.66-0.09,2.5-1.57,2.5h-6.44
		c-1.48,0-2.35-0.65-3.22-1.94l-14.09-22.1h2.61c3.57,0,5.91-0.37,8.09-1.2L927.67,78.75z"/>
	<path class="st2" d="M652.37,95.3"/>
	<path class="st2" d="M655.47,105.41c-12.8-0.25-23.61-8.42-23.61-24.85V48.27c0-1.32,0.5-1.73,1.82-1.73h6.44
		c1.4,0,1.73,0.41,1.73,1.73v31.87c0,11.56,5.69,16.38,13.62,16.55V105.41z"/>
	<path class="st2" d="M655.47,96.69c7.93-0.17,13.62-4.99,13.62-16.55V48.27c0-1.32,0.33-1.73,1.73-1.73h6.44
		c1.32,0,1.82,0.41,1.82,1.73v32.28c0,16.43-10.81,24.61-23.61,24.85V96.69z"/>
	<path class="st2" d="M859.01,95.83c11.23,0.25,18.45-10.51,18.45-20.64s-7.23-20.96-18.45-20.66v-8.52
		c15.72,0,28.33,13.66,28.33,29.18c0,15.51-12.61,29.11-28.33,29.15V95.83z"/>
</g>
<g id="Lowercase" class="st3">
	<g class="st4">
		<circle class="st0" cx="89" cy="75" r="70"/>
	</g>
	<path class="st5" d="M88.5,0C47.35,0,14,33.35,14,74.5S47.35,149,88.5,149S163,115.65,163,74.5S129.65,0,88.5,0z M88.28,126.19
		c-28.69,0-51.95-23.26-51.95-51.95s23.26-51.95,51.95-51.95s51.95,23.26,51.95,51.95S116.97,126.19,88.28,126.19z"/>
	<circle class="st6" cx="88.29" cy="74.27" r="49.67"/>
	<g class="st4">
		<path class="st0" d="M115.73,93.62l-3.01-6.39l-0.06,0l-6.86,13.81c-0.25,0.44-0.36,0.58-0.78,0.58l-2.6,0
			c-0.34,0-0.5-0.3-0.36-0.58l10.11-18.91c0.2-0.33,0.28-0.55,0.48-0.55l0.08,0c0.22,0,0.28,0.22,0.5,0.55l5.77,11.5L115.73,93.62z
			 M119.19,94.62l3.71,6.54c0.14,0.26-0.03,0.54-0.39,0.54l-2.57,0c-0.42,0-0.56-0.13-0.78-0.55l-1.84-3.56l-8.33-0.01l1.63-2.98
			L119.19,94.62z"/>
	</g>
	<g class="st4">
		<g>
			<path class="st0" d="M56.99,54.91l-1.15,10.06c-0.06,0.47-0.14,0.58-0.59,0.58h-2.22c-0.45,0-0.65-0.17-0.59-0.58l1.8-14.59
				L56.99,54.91z M55.08,44.8h0.45c0.11,0,0.23,0.06,0.34,0.25l9.09,15l9.09-15c0.11-0.19,0.22-0.25,0.34-0.25h0.37l0.53,3.89
				l-9.53,15.7c-0.25,0.36-0.42,0.58-0.65,0.58h-0.31c-0.23,0-0.39-0.22-0.62-0.58l-9.53-15.7L55.08,44.8z M75.65,50.4l1.83,14.56
				c0.06,0.42-0.14,0.58-0.59,0.58h-2.22c-0.45,0-0.56-0.11-0.59-0.58l-1.18-10.03L75.65,50.4z"/>
		</g>
	</g>
	<path class="st5" d="M117.2,60.47c0.02-0.1,0.07-0.28,0.21-0.42c0.04-0.04,0.17-0.16,0.32-0.14c0.06,0.01,0.15,0.04,0.17,0.11
		c0,0.01,0,0.02-0.01,0.1c0,0-0.02,0.19-0.03,0.29c0,0,0,0.01,0,0.01c0,0.01,0,0.02,0,0.12c-0.01,0.27-0.01,0.3,0,0.31
		c0.01,0,0.04-0.07,0.08-0.19c0.02-0.06,0.04-0.11,0.05-0.17c0-0.01,0.01-0.02,0.01-0.03c0.01-0.02,0.04-0.12,0.04-0.13
		c0.59-1.11-0.1-1.92-0.1-1.92c-0.14-0.36-0.13-0.47-0.09-0.5c0.1-0.07,0.49,0.22,0.73,0.56c0.28,0.39,0.34,0.78,0.4,1.19
		c0.05,0.31,0.1,0.7,0,1.19c-0.09,0.45-0.27,0.79-0.4,0.99c-0.21,0.22-0.65,0.59-0.99,1.19c-0.99,2.98-3.18,7.15-5.13,8.21
		c-0.31,0.09-0.58,0.17-0.58,0.17c-0.24,0-0.43-0.03-0.54-0.06c-1.35-0.39-6.02-2.76-5.84-3.45c0,0,0-0.26,0.01-0.26
		c0,0,0,0.01,0,0.01c0.11,0.17-0.53,1.75-2.56,2.63c-2.08,0.74-5.1,1.42-5.36,1.72c-0.02,0.02-0.05,0.02-0.05,0.02
		c-0.07,0.03-0.21,0.11-0.42,0.23c-0.34,0.2-0.63,0.42-1.09,0.75c-0.27,0.2,0.01,0.24-0.01,0.3c-0.11,0.46,1.2,0.91,2.66,1.88
		c1.42,0.94,3.88,2.64,4.15,2.83c0,0,0.71,0.68,0.94,1.54c0.09,0.35,0.05,0.68,0.05,0.68c-0.03,0.27-0.12,0.47-0.19,0.6
		c0,0-0.24,0.5-0.72,0.91c-0.13,0.11-0.2,0.18-0.26,0.25c-0.08,0.09-0.1,0.11-0.18,0.2c-0.13,0.15-0.2,0.19-0.33,0.31
		c-0.17,0.16-0.33,0.37-0.33,0.37s-1.67,1.54-1.67,1.54c-0.37,0.3-0.88,0.65-1.56,1.19c-2.43,1.95-3.17,2.25-3.93,3.1
		c-0.48,0.53-0.81,1.01-0.99,1.3c-0.09,0.11-0.21,0.3-0.26,0.54c-0.05,0.21,0.2,0.72,0.82,1.6c0.79,1.11,1.91,1.7,2.25,2.2
		c0.33,0.5,0.47,0.58,0.54,0.79c0.06,0.15,0.06,0.36-0.04,0.51c-0.16,0.23-0.53,0.24-0.77,0.23c-1.48-0.03-2.22-0.4-2.22-0.4
		c-1.5-0.66-0.74-0.42-2.15-1.18c-0.92-0.5-1.6-0.82-2.11-1.04c-0.45-0.2-1.24-0.24-1.51-0.74c-0.08-0.15-0.1-0.3-0.1-0.32
		c-0.05-0.42,0.22-0.75,0.33-0.89c0.23-0.28,0.43-0.34,0.96-0.64c0.31-0.18,0.83-0.76,1.22-1.09c0.09-0.08,0.15-0.13,0.26-0.24
		c0.51-0.49,0.87-0.93,1.18-1.31c0.58-0.72,0.96-1.22,0.96-1.22c1.5-1.98,2.25-2.97,2.65-3.64c0.09-0.14,0.29-0.48,0.63-0.88
		c0.15-0.18,0.63-0.71,1.11-0.99c0.22-0.12,0.4-0.32,0.63-0.38c0.02-0.01,0.12-0.03,0.13-0.09c0,0,0,0,0,0c0-0.01,0-0.02,0-0.02
		c-0.36-0.12-0.7-0.22-1.02-0.32c-1.85,0.5-7.7-2.01-8.48-2.82c-0.01-0.02-0.5-0.37-0.5-0.37c0.15,0.09-0.74,3.66-6,5.82
		c-0.83,0.34-3.49,1.4-3.49,1.4c-2.44,2.67-4.88,3.04-7.29,3.7c-2.08,0.57-3.31,1.73-4.03,2.33c-0.35,0.29-0.65,0.55-1.02,0.95
		c-0.78,0.86-0.83,1.3-1.8,2.47c-0.2,0.25-0.41,0.5-0.61,0.75c-0.47,0.59-0.7,0.89-0.78,1.08c-0.03,0.07-0.15,0.38-0.4,0.73
		c-0.16,0.23-0.26,0.31-0.39,0.36c-0.21,0.07-0.44,0.01-0.56-0.06c-0.6-0.36-0.13-2.13,0.11-3.99c0.01-0.06,0.06-0.49,0.14-0.96
		c0.02-0.11,0.04-0.23,0.06-0.37c0.06-0.35,0.11-0.59,0.12-0.67c0.13-0.72,0.02-0.83,0.15-1.33c0.08-0.33,0.24-0.96,0.7-1.12
		c0.18-0.06,0.33-0.03,0.6,0.02c0.49,0.09,0.82,0.29,0.9,0.33c0.84,0.44,2.75-0.87,2.76-0.88l0,0c2.2-1.66,3.48-3.93,5.95-5.04
		c1.23-0.55,1.6-0.31,2.65-1.02c0.25-0.17,0.48-0.3,0.54-0.43c2.65-5.31,5.68-6.16,5.71-6.16c0.04-0.71,0.24-2.82,1.81-4.16
		c1-0.85,3.38-1.52,3.87-1.65c0.08-0.02,0.45-0.11,0.9-0.32c0,0,0.16-0.09,0.32-0.17c1.28-0.62,2.27-1.85,4.26-4.3
		c0.46-0.56,0.62-0.78,0.85-1.07c0,0,0.16-0.2,0.32-0.37c1.72-1.97,2.92-2.23,3.18-2.2c0.35,0.04,0.83,0.31,0.99,0.42
		c0.2,0.13,0.38,0.27,0.67,0.29c0.12,0.01,0.25-0.01,0.25-0.04c0.01-0.04-0.17-0.08-0.47-0.23c-0.05-0.03-0.1-0.05-0.14-0.08
		c-0.43-0.26-0.8-0.77-0.8-0.77c-0.15-0.15-0.27-0.36-0.47-0.44c-2.45-0.97-4.61-1.95-5.47-4.03c0,0-0.14,0.04-0.14,0.04
		c-0.36,0.36-3.84-0.45-6.31-0.96c-0.42-0.09-0.75,0.16-0.75,0.16c-0.06,0.03-0.11,0.06-0.13,0.07c-0.18,0.11-0.33,0.16-0.43,0.2
		c-0.38,0.12-0.66,0.07-1.26,0.14c-0.06,0.01-0.11,0.01-0.17,0.02c-0.33,0.04-0.37,0.06-0.47,0.03c-0.12-0.03-0.2-0.1-0.23-0.13
		c-0.03-0.02-0.07-0.06-0.1-0.13c-0.03-0.05-0.04-0.07-0.04-0.08c0-0.05,0.05-0.1,0.09-0.11c0.05-0.02,0.11-0.02,0.13-0.02
		c0,0,0,0,0,0c0.14,0,0.26-0.05,0.35-0.09c0.01-0.01,0.22-0.09,0.2-0.13c0,0-0.27-0.03-0.27-0.03c-0.06,0.02-0.16,0.04-0.27,0.06
		c-0.1,0.02-0.16,0.04-0.2,0.05c-0.03,0.01,0.63-0.08,0.27-0.03c-0.26,0.04-0.92,0.27-1.14,0.31l0,0c-0.14,0.02-0.21,0.03-0.3-0.01
		c-0.18-0.07-0.26-0.24-0.3-0.31c0-0.1-0.03-0.21,0.01-0.3c0.07-0.18,0.33-0.37,0.63-0.59c0.99-0.74,2.1-0.82,2.77-0.83
		c0.63-0.01,0.92,0.04,1.55,0.09c2.09,0.16,4.82-0.18,6.43-0.05c0.4,0.03,0.8,0.4,0.8,0.4c0.31,0.05,1.46,0.82,4.17,1.87
		c0.67,0.26,1.09,0.4,1.46,0.59c0.66,0.35,1.19,0.56,1.29,0.59c1.36,0.51,3.33,0.96,3.94,1.81c0,0,0.28,0.39,0.75,0.56
		c0.04,0.02,0.17,0.07,0.29,0.01c0,0,0,0,0,0c0,0,0.01,0,0.01-0.01c0.13-0.07,0.14-0.36,0.14-0.36c0.01-0.68-0.1-1.73-0.1-1.73
		c-0.1-0.88,0.21-1.59,0.31-1.81c0.14-0.32,0.43-0.95,1.13-1.36c0.65-0.39,1.65-0.68,1.92-0.68c0.32,0,0.6,0.05,0.74,0.08
		c0.22,0.04,0.78,0.24,1.2,0.41c0.75,0.3,1.44,0.94,1.84,1.42c0.27,0.32,0.47,0.62,0.51,1.04c0.04,0.35-0.04,0.66-0.08,0.81
		c-0.05,0.19-0.11,0.4-0.27,0.61c-0.1,0.12-0.12,0.11-0.17,0.19c-0.03,0.05-0.1,0.19,0,0.73c0.03,0.18,0.05,0.27,0.06,0.31
		c0.01,0.04,0.1,0.42,0.06,0.57c-0.01,0.03-0.01,0.05-0.03,0.08c-0.1,0.21-0.24,0.14-0.39,0.36c-0.11,0.16-0.15,0.45-0.23,1.02
		c-0.01,0.04-0.02,0.13-0.08,0.21c-0.11,0.14-0.29,0.16-0.4,0.17c-1.23,0.16-1.46,0.16-1.55,0.15c0,0,0,0-0.01,0
		c-0.01,0-0.01,0-0.01,0c-0.01,0-1.03,0.07-1.03,0.07c0,0,0,0,0,0c-0.13,0.08-0.3,0.21-0.37,0.3c-0.04,0.04-0.06,0.07-0.07,0.1
		c0,0,0,0,0,0c0,0,0,0,0,0l0,0c-0.14,0.21-0.68,0.84-0.7,0.93c-0.09,0.44,0.24,0.95,0.74,1.18c1.66,0.77,3.99,2.02,4.1,2.57
		c0,0,0.03,0.82-0.05,1.42c-0.02,0.17-0.05,0.37-0.01,0.39c0.05,0.02,0.2-0.28,0.27-0.53c0.01-0.05,0.04-0.13,0.05-0.24
		c0.01-0.1,0.01-0.16,0.01-0.3c0,0,0-0.14,0.01-0.3c0.02-0.44,2.88-2.22,3.69-3.36c0.09-0.13,0.35-0.14,0.39-0.59
		c0.02-0.19,0.25-0.02,0.2-0.39c-0.02-0.15,0.14-0.43,0.14-0.71C116.92,61.78,116.96,61.49,117.2,60.47z"/>
	<path class="st7" d="M115.82,59.62c0.03-0.1,0.07-0.28,0.21-0.42c0.04-0.04,0.17-0.16,0.32-0.13c0.06,0.01,0.15,0.04,0.17,0.11
		c0,0.01,0,0.02-0.01,0.1c0,0-0.02,0.19-0.03,0.29c0,0,0,0.01,0,0.01c0,0.01,0,0.02,0,0.12c-0.01,0.27-0.02,0.3-0.01,0.31
		c0.01,0,0.04-0.07,0.08-0.18c0.02-0.06,0.04-0.11,0.06-0.17c0-0.01,0.01-0.02,0.01-0.03c0.01-0.02,0.04-0.12,0.04-0.13
		c0.11-0.2,0.05-1,0.19-1.3c0.03-0.08,0.14-0.24,0.31-0.29c0.08-0.02,0.15-0.01,0.3,0.01c0.17,0.03,0.33,0.05,0.46,0.17
		c0.04,0.04,0.07,0.08,0.14,0.16c0.01,0.01,0.13,0.17,0.22,0.36c0.17,0.35,0.26,0.65,0.27,0.86c0.03,1.24,0.05,0.93-0.29,1.84
		c-0.11,0.3-0.25,0.52-0.35,0.68c-0.04,0.05-0.11,0.14-0.2,0.26c0,0,0,0,0,0c0,0-0.24,0.31-0.41,0.55
		c-0.38,0.51-1.85,5.81-5.07,7.82c-0.08,0.05-0.22,0.13-0.39,0.22c0,0,0,0,0,0c-0.19,0.16-0.54,0.05-0.66,0.01
		c-0.84-0.27-6.8-3.45-6.51-4.67c0.02-0.05-0.17-0.28-0.24-0.26c-0.04,0.02-0.04,0.12-0.03,0.24c0.01,0.28,0.12,0.53,0.24,0.75
		c0.09,0.16,0.19,0.33,0.23,0.5c0.02,0.12,0.01,0.2-0.01,0.25c-0.02,0.05-0.04,0.08-0.05,0.1c-0.05,0.11-0.12,0.24-0.22,0.38
		c-0.63,0.96-1.6,1.32-2.86,1.75c-3.24,1.12-4.86,1.68-4.91,1.69c-0.47,0.09-0.88,0.37-1.32,0.55c-0.06,0.02-0.23,0.1-0.3,0.26
		c0,0.01-0.01,0.02-0.01,0.03c-0.11,0.46,1.2,0.92,2.66,1.89c1.42,0.94,3.87,2.65,4.13,2.84c0,0,1.01,0.7,1.23,1.56
		c0.09,0.35,0.05,0.68,0.05,0.68c-0.03,0.27-0.13,0.47-0.19,0.6c0,0-0.24,0.5-0.72,0.91c-0.13,0.11-0.21,0.18-0.26,0.24
		c-0.08,0.09-0.1,0.11-0.18,0.2c-0.13,0.15-0.2,0.19-0.33,0.31c-0.17,0.16-0.26,0.28-0.34,0.37c-0.49,0.57-1.67,1.54-1.67,1.54
		c-0.37,0.3-0.88,0.65-1.56,1.19c-2.43,1.94-3.18,2.24-3.95,3.09c-0.48,0.53-0.81,1.01-0.99,1.29c-0.09,0.11-0.21,0.3-0.26,0.54
		c-0.05,0.21-0.11,0.71,0.51,1.59c0.79,1.12,2.29,2.33,2.79,2.66c0.05,0.03,0.22,0.15,0.29,0.35c0.06,0.15,0.06,0.36-0.04,0.51
		C96.21,95,95.84,95.01,95.6,95c-1.48-0.04-2.38-0.44-2.38-0.44c-1.05-0.47-0.86-0.7-2.27-1.47c-0.92-0.5-1.6-0.83-2.1-1.05
		c-0.45-0.2-1.24-0.24-1.5-0.75c-0.08-0.15-0.1-0.3-0.1-0.32c-0.05-0.42,0.22-0.75,0.34-0.89c0.23-0.28,0.43-0.34,0.96-0.63
		c0.31-0.18,0.82-0.46,1.21-0.78c0.09-0.08,0.15-0.13,0.26-0.24c0.51-0.49,0.87-0.93,1.19-1.31c0.58-0.71,0.97-1.22,0.97-1.22
		c1.51-1.98,2.26-2.97,2.67-3.63c0.09-0.14,0.29-0.48,0.64-0.87c0.16-0.18,0.63-0.71,1.11-0.98c0.22-0.12,0.4-0.32,0.64-0.38
		c0.02-0.01,0.12-0.03,0.13-0.09c0,0,0,0,0,0c0-0.01,0-0.02,0-0.02c0.01-0.1-3.02-0.67-3.02-0.67c0,0-2.98-0.56-5.89-2.19
		c-0.01,0-0.39-0.22-0.39-0.22c-0.05-0.03-0.11-0.06-0.18-0.11c-0.06-0.04-0.16-0.1-0.3-0.2c-0.58-0.39-0.88-0.59-1.07-0.79
		c-0.03-0.03-0.07-0.07-0.08-0.07c-0.03,0.02-0.23,0.05,0.05,0.4c0.08,0.1,0.24,0.29,0.51,0.48c0.26,0.19,0.39,0.17,0.38,0.24
		c-0.01,0.05-0.95,3.09-6,5.35c-0.82,0.37-3.34,1.72-3.34,1.72c-2.71,2.52-4.93,2.66-7.24,3.43c0,0-2.87,1.22-4.21,2.43
		c-0.09,0.08-0.34,0.32-0.77,0.71c-0.54,0.49-0.61,0.54-0.77,0.71c-0.35,0.37-0.37,0.5-0.79,1.08c-0.36,0.5-0.33,0.38-1.18,1.44
		c-0.47,0.59-0.71,0.89-0.79,1.08c-0.03,0.07-0.15,0.38-0.4,0.72c-0.16,0.23-0.27,0.31-0.39,0.36c-0.21,0.07-0.44,0.01-0.56-0.06
		c-0.6-0.37-0.12-2.13,0.13-3.99c0.01-0.06,0.07-0.49,0.14-0.96c0.02-0.11,0.04-0.23,0.06-0.37c0.06-0.35,0.11-0.59,0.12-0.67
		c0.14-0.72,0.03-0.83,0.15-1.33c0.08-0.33,0.25-0.96,0.7-1.11c0.18-0.06,0.33-0.03,0.6,0.02c0.49,0.09,0.82,0.29,0.9,0.33
		c0.83,0.45,2.75-0.86,2.77-0.87l0,0c2.21-1.66,3.49-3.91,5.97-5.01c1.23-0.55,1.6-0.31,2.66-1.01c0.25-0.17,0.48-0.3,0.54-0.42
		c2.68-5.3,5.71-6.13,5.74-6.14c0.04-0.7,0.25-2.81,1.82-4.15c1-0.85,3.39-1.51,3.87-1.63c0.08-0.02,0.45-0.11,0.9-0.32
		c0,0,0.16-0.09,0.32-0.17c1.28-0.61,2.28-1.84,4.27-4.28c0.46-0.56,0.62-0.78,0.86-1.07c0,0,0.17-0.2,0.32-0.37
		c1.73-1.97,2.95-2.52,3.2-2.49c0.73,0.09,0.99,0.43,0.99,0.43c0.04,0.05,0.2,0.23,0.46,0.3c0.1,0.03,0.23,0.05,0.25,0.01
		c0.02-0.04-0.07-0.1-0.26-0.29c-0.17-0.17-0.15-0.16-0.22-0.22c-0.14-0.12-0.25-0.16-0.5-0.26c-0.16-0.07-0.31-0.16-0.47-0.23
		c-3.09-1.27-4.8-3.33-4.77-3.3c0,0,0.24,0.3,0,0c-0.06-0.07-0.09-0.11-0.1-0.13c-0.01-0.01-0.01-0.01-0.02-0.02
		c-0.01-0.05,0.15-0.11,0.15-0.11c0,0,0.3-0.23,0.3-0.23c0-0.01,0.13-0.3,0.08-0.34c-0.08-0.06-0.44,0.48-0.92,0.5
		c-0.11,0.01-0.2-0.01-0.27-0.03c-3.41-0.61-5.93-0.98-6.3-0.98c-0.43,0-0.75,0.16-0.75,0.16c-0.06,0.03-0.11,0.06-0.13,0.07
		c-0.18,0.11-0.33,0.16-0.43,0.19c-0.38,0.11-0.66,0.07-1.26,0.13c-0.06,0.01-0.11,0.01-0.17,0.02c-0.33,0.03-0.37,0.06-0.48,0.03
		c-0.12-0.03-0.2-0.1-0.23-0.13c-0.03-0.02-0.07-0.07-0.1-0.13c-0.03-0.05-0.04-0.07-0.04-0.08c0-0.05,0.05-0.1,0.09-0.11
		c0.05-0.02,0.11-0.02,0.13-0.02c0,0,0,0,0,0c0.14,0,0.26-0.05,0.35-0.09c0.01-0.01,0.22-0.09,0.21-0.13c0,0-0.27-0.03-0.27-0.03
		c-0.06,0.01-0.16,0.04-0.27,0.06c-0.1,0.02-0.16,0.04-0.2,0.05c-0.03,0.01-0.08,0.02-0.09,0.02c-0.25,0.06-0.51,0.26-0.78,0.25h0
		c-0.14,0.02-0.21,0.02-0.3-0.01c-0.18-0.07-0.26-0.24-0.29-0.31c0-0.1-0.03-0.21,0.01-0.3c0.07-0.18,0.34-0.37,0.63-0.59
		c0.99-0.73,2.1-0.81,2.77-0.82c0.63-0.01,0.92,0.05,1.55,0.1c2.09,0.16,4.82-0.16,6.43-0.02c0.4,0.03,0.81,0.1,0.81,0.1
		c0.31,0.05,1.18,0.2,3.88,1.26c0.67,0.26,1.09,0.41,1.45,0.6c0.66,0.35,1.19,0.56,1.28,0.6c1.36,0.52,3.31,1.28,3.92,2.13
		c0,0,0.28,0.39,0.75,0.57c0.04,0.02,0.17,0.07,0.29,0.01c0,0,0,0,0,0c0,0,0.01,0,0.01-0.01c0.13-0.07,0.14-0.36,0.14-0.36
		c0.02-0.68-0.09-1.73-0.09-1.73c-0.09-0.88,0.22-1.59,0.32-1.81c0.14-0.32,0.44-0.95,1.13-1.36c0.66-0.39,1.33-0.38,1.61-0.38
		c0.3,0,0.52,0.04,0.74,0.08c0.93,0.17,1.8,0.65,1.8,0.65c0.6,0.32,0.93,0.5,1.25,0.89c0.15,0.18,0.46,0.52,0.51,1.04
		c0.04,0.35-0.05,0.96-0.1,1.12c-0.05,0.19-0.11,0.4-0.28,0.6c-0.1,0.12-0.12,0.11-0.17,0.19c-0.03,0.05-0.1,0.19,0,0.73
		c0.03,0.18,0.05,0.27,0.06,0.31c0.01,0.04,0.1,0.42,0.06,0.57c-0.01,0.03-0.01,0.05-0.03,0.08c-0.1,0.21-0.24,0.14-0.39,0.36
		c-0.11,0.16-0.16,0.45-0.24,1.02c-0.01,0.04-0.02,0.13-0.08,0.21c-0.11,0.14-0.29,0.16-0.4,0.17c-1.23,0.15-1.46,0.15-1.55,0.14
		c0,0,0,0-0.01,0c-0.01,0-0.01,0-0.01,0c-0.01,0-1.03,0.06-1.03,0.06c0,0,0,0,0,0c-0.13,0.08-0.3,0.21-0.38,0.3
		c-0.04,0.04-0.06,0.07-0.07,0.1c0,0,0,0,0,0c0,0,0,0,0,0l0,0c-0.14,0.21-0.37,0.54-0.39,0.63c-0.1,0.49,0.4,0.95,0.73,1.19
		c1.15,0.34,3.07,1.89,4.07,3c0.37,0.55-0.14,1.38-0.04,1.4c0.07,0.01,0.21-0.32,0.28-0.53c0.01-0.05,0.04-0.13,0.05-0.24
		c0.01-0.1,0.01-0.16,0.01-0.3c0,0,0-0.14,0.01-0.3c0.02-0.44,2.84-2.03,3.65-3.17c0.09-0.12,0.3-0.44,0.34-0.89
		c0.02-0.19-0.06-0.28-0.11-0.65c-0.02-0.15-0.05-0.38-0.04-0.65C115.54,60.62,115.57,60.64,115.82,59.62z"/>
	<path class="st5" d="M101.2,69.73"/>
	<path class="st5" d="M101.2,69"/>
	<path class="st6" d="M202.24,74.08l-3.74,32.99c-0.18,1.55-0.46,1.91-1.91,1.91h-7.2c-1.46,0-2.1-0.55-1.91-1.91l5.83-47.85
		L202.24,74.08z M196,41.4h1.46c0.36,0,0.73,0.18,1.09,0.82l29.44,49.21l29.44-49.21c0.36-0.64,0.73-0.82,1.09-0.82h1.18l1.73,12.76
		l-30.9,51.49c-0.82,1.18-1.37,1.91-2.1,1.91h-1c-0.73,0-1.28-0.73-2.01-1.91l-30.9-51.49L196,41.4z M262.57,59.32l5.92,47.76
		c0.18,1.37-0.46,1.91-1.91,1.91h-7.2c-1.46,0-1.82-0.36-1.91-1.91l-3.83-32.9L262.57,59.32z"/>
	<path class="st6" d="M303.24,108.91c-11.95-0.23-22.05-7.87-22.05-23.21V55.55c0-1.23,0.46-1.62,1.7-1.62h6.02
		c1.31,0,1.62,0.39,1.62,1.62v29.77c0,10.8,5.32,15.3,12.72,15.45V108.91z"/>
	<path class="st6" d="M303.24,100.77c7.4-0.15,12.72-4.66,12.72-15.45V55.55c0-1.23,0.31-1.62,1.62-1.62h6.02
		c1.23,0,1.7,0.39,1.7,1.62V85.7c0,15.35-10.1,22.98-22.05,23.21V100.77z"/>
	<path class="st6" d="M359.32,108.76c-7.22-0.23-14.05-2.24-19.39-5.86c-1.18-0.69-1.02-1.23-0.47-2.31l2.43-3.86
		c0.63-1.08,1.1-1.47,2.28-0.69c4.71,3.01,10.59,4.4,15.14,4.55V108.76z M359.93,61.25c-8.25,0.39-10.9,4.78-10.9,8.41
		c0,5.17,5.48,6.32,13.34,7.33c9.41,1.16,18.43,4.09,18.43,15.5c0,8.33-7.67,16.58-21.47,16.27v-8.17c7.1,0,12.45-2.39,12.45-7.71
		c0-5.55-5.17-7.02-13.8-8.17C349.56,83.62,340,80.69,340,69.97c0-6.56,5.58-16.66,19.92-16.89V61.25z M359.93,53.08
		c8.07,0.15,13.24,2.47,18.92,5.86c1.12,0.62,0.96,1.23,0.4,2.31l-2.4,3.78c-0.64,1.08-1.2,1.54-2.32,0.77
		c-4.87-3.16-9.09-4.63-14.6-4.55V53.08z"/>
	<path class="st6" d="M420.01,108.91c-15.5-0.39-28.13-13.11-28.13-27.99s12.7-27.61,28.13-27.99v8.17
		c-10.72,0.31-18.72,10.1-18.72,19.82c0,9.64,7.92,19.59,18.72,19.82V108.91z M420.01,52.92c7.26,0.23,15.07,3.32,19.75,7.94
		c0.86,0.85,0.7,1.39-0.16,2.31l-3.59,3.86c-0.86,0.93-1.4,1.08-2.34,0.15c-3.28-3.47-8.21-5.94-13.67-6.09V52.92z M420.01,100.74
		c5.54-0.23,10.39-2.62,13.75-6.17c0.94-0.93,1.48-0.69,2.34,0.15l3.59,3.86c0.86,1,1.01,1.47,0.08,2.39
		c-4.76,4.63-12.42,7.71-19.75,7.94V100.74z"/>
	<path class="st6" d="M462.96,108.67h-7.71c-1.23,0-1.62-0.39-1.62-1.62V56.31c0-1.23,0.39-1.62,1.62-1.62h6.09
		c1.23,0,1.62,0.39,1.62,1.62V108.67z M462.8,100.73h22.6c1.23,0,1.62,0.31,1.62,1.62v4.7c0,1.23-0.39,1.62-1.62,1.62h-22.6V100.73z
		"/>
	<path class="st6" d="M510.52,108.67h-7.64c-1.31,0-1.7-0.39-1.7-1.62V56.31c0-1.23,0.46-1.62,1.7-1.62h7.64V108.67z M510.43,54.69
		h25.6c1.23,0,1.7,0.39,1.7,1.62v4.7c0,1.23-0.46,1.7-1.7,1.7h-25.6V54.69z M510.43,77.51h24.45c1.31,0,1.62,0.31,1.62,1.62v4.7
		c0,1.23-0.31,1.62-1.62,1.62h-24.45V77.51z M510.43,100.73h25.6c1.31,0,1.7,0.31,1.7,1.62v4.7c0,1.23-0.39,1.62-1.7,1.62h-25.6
		V100.73z"/>
	<path class="st6" d="M697.52,105.1"/>
	<g class="st4">
		<path class="st2" d="M616.15,81.34l-10.03-21.45h-0.19l-21.38,46.17c-0.84,1.49-1.21,1.95-2.6,1.95h-8.63
			c-1.11,0-1.67-1.02-1.21-1.95l32.15-63.35c0.65-1.11,0.93-1.86,1.58-1.86h0.28c0.74,0,0.93,0.74,1.67,1.86l19.22,38.62H616.15z
			 M628.73,83.89l11.33,22.28c0.46,0.93-0.09,1.95-1.3,1.95h-8.54c-1.39,0-1.86-0.46-2.6-1.95l-6.13-12.72h-27.67l4.36-9.56H628.73z
			"/>
		<path class="st2" d="M714.14,108.36h-7.71c-1.23,0-1.62-0.39-1.62-1.62V55.99c0-1.23,0.39-1.62,1.62-1.62h7.71V108.36z
			 M713.98,100.57h10.26c11.18,0,17.89-9.18,17.89-19.2c0-10.1-6.71-19.2-17.89-19.2h-10.26v-7.79h10.33
			c15.19,0,27.22,11.64,27.22,26.99c0,15.35-12.03,26.99-27.22,26.99h-10.33V100.57z"/>
		<path class="st2" d="M762.45,55.99c0-1.23,0.39-1.62,1.62-1.62h6.09c1.31,0,1.62,0.39,1.62,1.62v50.74c0,1.23-0.39,1.62-1.62,1.62
			h-6.09c-1.23,0-1.62-0.39-1.62-1.62V55.99z"/>
		<path class="st2" d="M809.47,106.74c0,1.23-0.39,1.62-1.7,1.62h-6.02c-1.31,0-1.62-0.39-1.62-1.62V62.7h-16.89
			c-1.31,0-1.62-0.39-1.62-1.62v-5.09c0-1.23,0.39-1.62,1.62-1.62h26.22V106.74z M809.31,54.37h15.5c1.31,0,1.62,0.39,1.62,1.62
			v5.09c0,1.31-0.39,1.62-1.62,1.62h-15.5V54.37z"/>
		<path class="st2" d="M859.34,108.65c-14.68-0.04-26.46-12.71-26.46-27.21c0-14.5,11.78-27.27,26.46-27.27v7.95
			c-10.49-0.28-17.24,9.85-17.24,19.32s6.75,19.49,17.24,19.25V108.65z"/>
		<path class="st2" d="M905.52,106.74c0,1.31-0.39,1.62-1.62,1.62h-6.09c-1.23,0-1.62-0.31-1.62-1.62V55.99
			c0-1.23,0.39-1.62,1.62-1.62h7.71V106.74z M905.36,86.99V79.2h9.41c8.02,0,10.57-3.78,10.57-8.64c0-5.86-3.93-8.41-10.57-8.41
			h-9.41v-7.79h9.79c8.79,0,19.2,3.7,19.2,16.2s-10.18,16.43-19.2,16.43H905.36z M923.46,84.74l14.16,21.66
			c0.97,1.55-0.08,2.33-1.46,2.33h-6.01c-1.38,0-2.19-0.6-3.01-1.81l-13.92-21.4h2.44c3.33,0,5.52-0.35,7.55-1.12L923.46,84.74z"/>
		<path class="st2" d="M669.23,108.77c-11.95-0.23-22.05-7.87-22.05-23.21V55.4c0-1.23,0.46-1.62,1.7-1.62h6.02
			c1.31,0,1.62,0.39,1.62,1.62v29.77c0,10.8,5.32,15.3,12.72,15.45V108.77z"/>
		<path class="st2" d="M669.23,100.62c7.4-0.15,12.72-4.66,12.72-15.45V55.4c0-1.23,0.31-1.62,1.62-1.62h6.02
			c1.23,0,1.7,0.39,1.7,1.62v30.15c0,15.35-10.1,22.98-22.05,23.21V100.62z"/>
		<path class="st2" d="M859.34,100.69c10.49,0.23,17.24-9.82,17.24-19.28s-6.75-19.57-17.24-19.3v-7.95
			c14.68,0,26.46,12.76,26.46,27.25c0,14.49-11.78,27.19-26.46,27.23V100.69z"/>
	</g>
</g>
</svg>
