<?xml version="1.0" encoding="utf-8"?>
<!-- Generator: Adobe Illustrator 24.2.1, SVG Export Plug-In . SVG Version: 6.00 Build 0)  -->
<svg version="1.1" id="Layer_1" xmlns="http://www.w3.org/2000/svg" xmlns:xlink="http://www.w3.org/1999/xlink" x="0px" y="0px"
	 viewBox="0 0 512 512" style="enable-background:new 0 0 512 512;" xml:space="preserve">
<style type="text/css">
	.st0{fill:#FFFFFF;}
	.st1{fill:#ED7540;}
	.st2{fill:#2B4656;}
</style>
<circle class="st0" cx="256" cy="255" r="240"/>
<path class="st1" d="M256.24,0.24c-141.38,0-256,114.62-256,256s114.62,256,256,256s256-114.62,256-256S397.62,0.24,256.24,0.24z
	 M255.49,433.87c-98.59,0-178.52-79.92-178.52-178.52S156.9,76.83,255.49,76.83s178.52,79.92,178.52,178.52
	S354.08,433.87,255.49,433.87z"/>
<circle class="st2" cx="255.51" cy="255.44" r="170.67"/>
<g>
	<path class="st0" d="M349.82,321.95l-10.34-21.94l-0.19,0l-23.56,47.45c-0.87,1.52-1.25,1.99-2.69,1.99l-8.93-0.01
		c-1.15,0-1.73-1.05-1.25-2l34.73-64.99c0.67-1.14,0.96-1.9,1.64-1.9l0.29,0c0.77,0,0.96,0.76,1.73,1.9l19.83,39.52L349.82,321.95z
		 M361.71,325.37l12.75,22.46c0.48,0.89-0.1,1.87-1.35,1.87l-8.84-0.01c-1.44,0-1.92-0.45-2.69-1.88l-6.32-12.22l-28.63-0.04
		l5.59-10.22L361.71,325.37z"/>
</g>
<g>
	<g>
		<path class="st0" d="M147.97,188.91l-3.96,34.56c-0.19,1.62-0.48,2.01-2.03,2.01h-7.64c-1.55,0-2.22-0.57-2.03-2.01l6.19-50.13
			L147.97,188.91z M141.41,154.17h1.55c0.39,0,0.77,0.19,1.16,0.86l31.22,51.56l31.22-51.56c0.39-0.67,0.77-0.86,1.16-0.86h1.26
			l1.84,13.37l-32.76,53.95c-0.87,1.24-1.45,2-2.22,2h-1.06c-0.77,0-1.35-0.76-2.13-2l-32.76-53.95L141.41,154.17z M212.08,173.44
			l6.28,50.03c0.19,1.43-0.48,2.01-2.03,2.01h-7.64c-1.55,0-1.93-0.38-2.03-2.01l-4.06-34.47L212.08,173.44z"/>
	</g>
</g>
<path class="st1" d="M354.87,208.04c0.08-0.35,0.23-0.95,0.73-1.43c0.13-0.12,0.57-0.55,1.1-0.47c0.2,0.03,0.51,0.14,0.59,0.38
	c0.01,0.04,0.01,0.06-0.02,0.34c0,0-0.08,0.67-0.1,1c0,0.01,0,0.03,0,0.03c0,0.03,0,0.06-0.02,0.4c-0.04,0.91-0.05,1.05-0.02,1.05
	c0.04,0.01,0.12-0.23,0.26-0.64c0.07-0.21,0.13-0.39,0.19-0.59c0.01-0.04,0.02-0.07,0.03-0.1c0.02-0.06,0.12-0.42,0.13-0.43
	c2.03-3.82-0.35-6.61-0.35-6.61c-0.5-1.24-0.44-1.62-0.29-1.72c0.36-0.26,1.67,0.76,2.51,1.93c0.95,1.33,1.16,2.69,1.37,4.1
	c0.16,1.06,0.34,2.39,0,4.1c-0.31,1.54-0.92,2.7-1.37,3.41c-0.71,0.76-2.23,2.03-3.41,4.1c-3.41,10.24-10.92,24.58-17.64,28.22
	c-1.06,0.32-2,0.59-2,0.59c-0.83,0-1.49-0.09-1.86-0.2c-4.63-1.33-20.67-9.48-20.07-11.86c0-0.01,0-0.89,0.02-0.89
	c0,0,0,0.03,0.01,0.04c0.37,0.57-1.82,6.03-8.8,9.04c-7.16,2.53-17.53,4.89-18.42,5.91c-0.06,0.07-0.17,0.09-0.18,0.09
	c-0.24,0.12-0.72,0.36-1.44,0.79c-1.16,0.69-2.18,1.44-3.73,2.59c-0.93,0.68,0.02,0.84-0.03,1.03c-0.37,1.57,4.12,3.14,9.15,6.46
	c4.88,3.22,13.34,9.06,14.25,9.71c0,0,2.43,2.34,3.22,5.31c0.32,1.21,0.18,2.34,0.18,2.34c-0.11,0.94-0.43,1.61-0.64,2.05
	c0,0-0.83,1.73-2.46,3.13c-0.44,0.38-0.7,0.63-0.9,0.84c-0.28,0.3-0.34,0.39-0.6,0.68c-0.46,0.5-0.7,0.66-1.13,1.08
	c-0.58,0.55-1.15,1.27-1.15,1.27s-5.73,5.3-5.73,5.3c-1.26,1.04-3.02,2.23-5.35,4.1c-8.33,6.69-10.9,7.75-13.51,10.66
	c-1.65,1.84-2.77,3.49-3.4,4.46c-0.31,0.39-0.71,1.02-0.9,1.86c-0.16,0.73,0.69,2.48,2.83,5.5c2.71,3.82,6.57,5.84,7.71,7.56
	c1.13,1.7,1.61,2.01,1.87,2.7c0.2,0.52,0.22,1.25-0.12,1.76c-0.54,0.8-1.82,0.82-2.65,0.81c-5.09-0.1-7.62-1.37-7.62-1.37
	c-5.16-2.27-2.54-1.43-7.38-4.06c-3.17-1.72-5.5-2.82-7.24-3.58c-1.54-0.67-4.26-0.82-5.17-2.55c-0.27-0.51-0.33-1.04-0.34-1.11
	c-0.16-1.45,0.75-2.58,1.14-3.05c0.8-0.97,1.47-1.17,3.29-2.19c1.08-0.61,2.84-2.63,4.19-3.76c0.31-0.26,0.5-0.46,0.88-0.82
	c1.74-1.69,2.99-3.2,4.06-4.52c1.99-2.46,3.31-4.21,3.31-4.21c5.15-6.82,7.73-10.22,9.11-12.5c0.3-0.49,1-1.66,2.18-3.01
	c0.53-0.61,2.15-2.46,3.81-3.39c0.74-0.41,1.36-1.09,2.18-1.31c0.07-0.02,0.41-0.1,0.46-0.31c0,0,0,0,0,0c0-0.04,0-0.07,0-0.07
	c-1.23-0.4-2.4-0.77-3.5-1.1c-6.35,1.73-26.45-6.91-29.12-9.7c-0.05-0.05-1.7-1.27-1.7-1.27c0.52,0.29-2.53,12.57-20.61,19.99
	c-2.86,1.17-12,4.81-12,4.81c-8.4,9.18-16.75,10.46-25.06,12.72c-7.16,1.95-11.37,5.94-13.86,8.01c-1.2,1-2.25,1.88-3.51,3.28
	c-2.67,2.96-2.84,4.45-6.17,8.49c-0.7,0.85-1.41,1.71-2.1,2.57c-1.61,2.03-2.42,3.06-2.69,3.72c-0.1,0.25-0.52,1.31-1.37,2.5
	c-0.56,0.79-0.91,1.08-1.33,1.23c-0.72,0.25-1.52,0.03-1.92-0.21c-2.06-1.25-0.44-7.31,0.39-13.7c0.02-0.19,0.22-1.67,0.48-3.3
	c0.06-0.38,0.13-0.79,0.21-1.28c0.21-1.2,0.36-2.02,0.42-2.3c0.46-2.46,0.07-2.85,0.51-4.58c0.28-1.12,0.83-3.29,2.4-3.83
	c0.6-0.21,1.15-0.11,2.08,0.07c1.67,0.31,2.82,0.99,3.08,1.13c2.87,1.52,9.45-2.98,9.49-3.01l0,0c7.56-5.72,11.95-13.49,20.43-17.32
	c4.22-1.9,5.49-1.07,9.12-3.52c0.87-0.59,1.64-1.02,1.86-1.47c9.12-18.26,19.53-21.16,19.62-21.18c0.12-2.42,0.81-9.67,6.21-14.3
	c3.42-2.93,11.62-5.24,13.29-5.65c0.29-0.07,1.55-0.37,3.08-1.1c0,0,0.54-0.3,1.11-0.58c4.39-2.13,7.8-6.35,14.62-14.77
	c1.57-1.94,2.12-2.69,2.93-3.68c0,0,0.57-0.67,1.09-1.27c5.92-6.78,10.05-7.67,10.93-7.57c1.21,0.14,2.84,1.08,3.41,1.45
	c0.68,0.44,1.32,0.93,2.3,1.01c0.42,0.03,0.85-0.02,0.87-0.12c0.03-0.15-0.59-0.29-1.63-0.8c-0.19-0.09-0.34-0.18-0.49-0.26
	c-1.48-0.88-2.75-2.66-2.75-2.66c-0.53-0.51-0.93-1.25-1.62-1.52c-8.42-3.33-15.86-6.7-18.81-13.84c0,0-0.48,0.15-0.48,0.15
	c-1.25,1.24-13.21-1.56-21.67-3.29c-1.45-0.3-2.58,0.56-2.58,0.56c-0.21,0.11-0.38,0.21-0.45,0.25c-0.61,0.37-1.14,0.56-1.49,0.67
	c-1.29,0.4-2.27,0.25-4.32,0.47c-0.19,0.02-0.38,0.04-0.57,0.06c-1.13,0.12-1.28,0.2-1.63,0.11c-0.4-0.11-0.68-0.34-0.8-0.44
	c-0.1-0.08-0.24-0.22-0.36-0.43c-0.1-0.18-0.13-0.23-0.13-0.28c0-0.18,0.18-0.33,0.3-0.39c0.16-0.08,0.37-0.08,0.46-0.08
	c0,0,0,0,0,0c0.47-0.01,0.91-0.19,1.2-0.31c0.04-0.02,0.74-0.3,0.7-0.45c0,0-0.92-0.11-0.92-0.11c-0.22,0.05-0.54,0.13-0.94,0.22
	c-0.33,0.08-0.54,0.13-0.69,0.16c-0.11,0.02,2.18-0.29,0.93-0.11c-0.88,0.13-3.18,0.94-3.91,1.05h0c-0.49,0.06-0.74,0.09-1.05-0.03
	c-0.62-0.24-0.91-0.83-1.02-1.08c0.01-0.35-0.09-0.72,0.03-1.05c0.24-0.63,1.15-1.28,2.16-2.03c3.39-2.53,7.22-2.81,9.51-2.86
	c2.18-0.05,3.17,0.14,5.33,0.3c7.19,0.54,16.55-0.61,22.08-0.16c1.39,0.11,2.74,1.38,2.74,1.38c1.05,0.17,5.02,2.81,14.34,6.42
	c2.32,0.9,3.76,1.39,5,2.04c2.28,1.19,4.1,1.92,4.42,2.04c4.69,1.77,9.43,3.29,11.53,6.22c0,0,0.95,1.33,2.59,1.94
	c0.15,0.06,0.6,0.22,0.99,0.04c0,0,0,0,0,0c0.01,0,0.03-0.01,0.05-0.02c0.44-0.26,0.46-1.23,0.46-1.23
	c0.05-2.35-0.35-5.95-0.35-5.95c-0.33-3.02,0.73-6.46,1.07-7.23c0.49-1.1,1.49-3.27,3.88-4.69c2.25-1.34,5.65-2.34,6.6-2.34
	c1.12,0,2.08,0.17,2.54,0.26c0.76,0.14,2.67,0.84,4.14,1.42c2.59,1.02,4.95,3.22,6.34,4.87c0.92,1.1,1.62,2.12,1.77,3.56
	c0.13,1.2-0.14,3.25-0.29,3.8c-0.18,0.65-0.38,1.37-0.94,2.08c-0.34,0.43-0.42,0.36-0.58,0.67c-0.09,0.17-0.35,0.66,0.01,2.51
	c0.12,0.63,0.18,0.94,0.21,1.08c0.03,0.12,0.34,1.45,0.22,1.97c-0.02,0.09-0.05,0.18-0.09,0.27c-0.33,0.72-0.82,0.48-1.34,1.23
	c-0.38,0.55-0.53,1.54-0.79,3.51c-0.02,0.15-0.06,0.44-0.27,0.71c-0.37,0.47-1,0.55-1.37,0.6c-4.22,0.54-5.02,0.54-5.34,0.51
	c-0.01,0-0.02,0-0.02,0c-0.02,0-0.04,0-0.04,0c-0.05-0.01-3.53,0.23-3.53,0.23c0,0,0,0,0,0c-0.45,0.29-1.04,0.74-1.29,1.04
	c-0.12,0.15-0.19,0.23-0.23,0.33c0,0,0,0,0,0c0,0,0,0,0,0l0,0c-0.47,0.72-2.34,2.88-2.4,3.19c-0.32,1.52,0.82,3.27,2.54,4.06
	c5.71,2.66,15.7,6.95,16.1,8.82c0,0,0.09,2.81-0.17,4.89c-0.07,0.58-0.18,1.29-0.04,1.33c0.18,0.05,0.7-0.96,0.94-1.84
	c0.04-0.16,0.12-0.45,0.17-0.84c0.04-0.34,0.03-0.54,0.03-1.05c0,0,0-0.48,0.03-1.05c0.07-1.51,9.9-7.61,12.68-11.54
	c0.3-0.43,1.21-0.49,1.35-2.02c0.06-0.66,0.85-0.06,0.67-1.35c-0.07-0.52,0.48-1.49,0.5-2.44
	C353.88,212.52,354.03,211.54,354.87,208.04z"/>
<path class="st0" d="M350.1,205.1c0.09-0.35,0.23-0.95,0.73-1.43c0.13-0.12,0.58-0.55,1.11-0.46c0.2,0.03,0.51,0.15,0.59,0.38
	c0.01,0.04,0.01,0.06-0.02,0.34c0,0-0.08,0.66-0.1,1c0,0.01,0,0.03,0,0.03c0,0.03,0,0.06-0.02,0.4c-0.04,0.91-0.05,1.05-0.02,1.05
	c0.04,0.01,0.12-0.23,0.27-0.64c0.07-0.21,0.13-0.39,0.19-0.59c0.01-0.04,0.02-0.07,0.03-0.1c0.02-0.06,0.12-0.42,0.13-0.43
	c0.38-0.7,0.17-3.43,0.64-4.48c0.12-0.26,0.47-0.83,1.08-1.01c0.28-0.08,0.53-0.04,1.05,0.04c0.59,0.09,1.12,0.17,1.59,0.57
	c0.15,0.13,0.26,0.27,0.47,0.55c0.03,0.05,0.44,0.58,0.76,1.24c0.58,1.2,0.91,2.23,0.93,2.95c0.12,4.26,0.16,3.21-1,6.31
	c-0.38,1.02-0.87,1.79-1.21,2.33c-0.13,0.17-0.38,0.49-0.68,0.88c0,0,0,0-0.01,0.01c0,0-0.81,1.08-1.42,1.9
	c-1.3,1.77-6.37,19.98-17.42,26.88c-0.28,0.17-0.74,0.45-1.34,0.77c0,0,0,0,0,0c-0.66,0.56-1.86,0.18-2.26,0.05
	c-2.89-0.93-23.36-11.84-22.37-16.05c0.06-0.18-0.59-0.96-0.82-0.88c-0.14,0.05-0.13,0.42-0.11,0.83c0.05,0.97,0.43,1.83,0.84,2.59
	c0.29,0.54,0.67,1.12,0.79,1.73c0.08,0.4,0.02,0.68-0.03,0.85c-0.05,0.17-0.13,0.28-0.16,0.35c-0.18,0.37-0.42,0.82-0.75,1.32
	c-2.18,3.31-5.51,4.53-9.84,6.03c-11.14,3.84-16.72,5.76-16.89,5.79c-1.61,0.3-3.02,1.27-4.54,1.89c-0.21,0.09-0.8,0.35-1.05,0.9
	c-0.01,0.03-0.02,0.06-0.03,0.09c-0.38,1.57,4.11,3.15,9.13,6.5c4.87,3.24,13.3,9.12,14.21,9.77c0,0,3.46,2.39,4.24,5.36
	c0.32,1.21,0.17,2.34,0.17,2.34c-0.12,0.94-0.44,1.61-0.65,2.04c0,0-0.84,1.72-2.48,3.12c-0.44,0.37-0.7,0.63-0.9,0.84
	c-0.28,0.3-0.34,0.39-0.61,0.68c-0.46,0.5-0.7,0.66-1.13,1.07c-0.58,0.55-0.91,0.97-1.15,1.26c-1.67,1.96-5.75,5.28-5.75,5.28
	c-1.27,1.03-3.02,2.22-5.36,4.08c-8.36,6.66-10.93,7.7-13.56,10.61c-1.65,1.83-2.79,3.47-3.42,4.45c-0.31,0.39-0.72,1.02-0.9,1.86
	c-0.17,0.73-0.37,2.44,1.76,5.47c2.7,3.84,7.86,8,9.58,9.15c0.17,0.12,0.76,0.5,1.01,1.2c0.19,0.53,0.22,1.25-0.13,1.76
	c-0.54,0.8-1.82,0.82-2.65,0.8c-5.09-0.13-8.18-1.53-8.18-1.53c-3.6-1.63-2.97-2.41-7.8-5.06c-3.16-1.73-5.49-2.84-7.22-3.61
	c-1.53-0.68-4.26-0.84-5.16-2.57c-0.27-0.52-0.33-1.04-0.34-1.11c-0.16-1.45,0.77-2.58,1.15-3.04c0.81-0.96,1.48-1.16,3.29-2.17
	c1.08-0.6,2.81-1.57,4.17-2.69c0.31-0.26,0.51-0.45,0.88-0.82c1.75-1.68,3.01-3.19,4.07-4.5c2-2.45,3.32-4.19,3.32-4.19
	c5.18-6.8,7.78-10.19,9.17-12.46c0.3-0.49,1-1.66,2.19-3c0.54-0.61,2.16-2.45,3.83-3.37c0.74-0.41,1.36-1.08,2.19-1.3
	c0.07-0.02,0.41-0.1,0.46-0.3c0,0,0,0,0,0c0-0.04,0-0.07,0-0.07c0.04-0.34-10.37-2.3-10.37-2.3c0,0-10.24-1.92-20.23-7.51
	c-0.03-0.02-1.35-0.75-1.35-0.75c-0.16-0.09-0.37-0.22-0.62-0.37c-0.2-0.12-0.56-0.35-1.04-0.67c-2.01-1.34-3.01-2.01-3.69-2.73
	c-0.11-0.12-0.23-0.25-0.27-0.23c-0.12,0.07-0.78,0.16,0.18,1.37c0.26,0.33,0.84,1,1.75,1.67c0.9,0.66,1.35,0.57,1.31,0.81
	c-0.03,0.18-3.28,10.62-20.62,18.4c-2.82,1.26-11.46,5.92-11.46,5.92c-9.3,8.65-16.94,9.14-24.87,11.8c0,0-9.87,4.19-14.45,8.37
	c-0.3,0.27-1.16,1.08-2.66,2.44c-1.84,1.67-2.1,1.86-2.66,2.44c-1.2,1.26-1.26,1.72-2.71,3.71c-1.24,1.71-1.14,1.31-4.04,4.94
	c-1.62,2.02-2.43,3.05-2.71,3.71c-0.1,0.25-0.53,1.3-1.38,2.49c-0.56,0.78-0.91,1.08-1.33,1.22c-0.72,0.25-1.52,0.03-1.92-0.22
	c-2.06-1.26-0.41-7.32,0.45-13.7c0.03-0.19,0.23-1.67,0.49-3.29c0.06-0.38,0.13-0.79,0.22-1.28c0.21-1.2,0.37-2.02,0.43-2.3
	c0.47-2.46,0.09-2.85,0.53-4.58c0.29-1.12,0.85-3.29,2.42-3.82c0.6-0.21,1.15-0.1,2.08,0.08c1.67,0.32,2.82,1,3.08,1.14
	c2.87,1.53,9.46-2.94,9.51-2.97l0,0c7.59-5.69,12.01-13.44,20.5-17.23c4.22-1.88,5.5-1.05,9.13-3.48c0.87-0.58,1.64-1.01,1.87-1.46
	c9.2-18.22,19.62-21.07,19.71-21.1c0.13-2.42,0.85-9.67,6.27-14.27c3.44-2.92,11.65-5.19,13.31-5.6c0.29-0.07,1.55-0.36,3.08-1.09
	c0,0,0.54-0.3,1.11-0.58c4.4-2.11,7.83-6.31,14.69-14.71c1.57-1.93,2.13-2.69,2.95-3.67c0,0,0.57-0.67,1.09-1.27
	c5.95-6.76,10.12-8.67,11-8.57c2.5,0.3,3.41,1.47,3.41,1.47c0.15,0.17,0.7,0.79,1.58,1.05c0.33,0.1,0.78,0.16,0.85,0.03
	c0.06-0.12-0.24-0.33-0.89-0.98c-0.59-0.59-0.51-0.56-0.75-0.77c-0.49-0.42-0.87-0.53-1.72-0.91c-0.55-0.24-1.07-0.56-1.63-0.79
	c-10.61-4.36-16.51-11.44-16.39-11.33c0,0,0.81,1.03,0,0c-0.2-0.26-0.3-0.38-0.36-0.45c-0.02-0.02-0.05-0.04-0.06-0.07
	c-0.02-0.16,0.53-0.39,0.53-0.39c0,0,1.04-0.8,1.04-0.8c0.01-0.04,0.44-1.02,0.27-1.16c-0.26-0.21-1.52,1.64-3.16,1.72
	c-0.38,0.02-0.7-0.05-0.92-0.12c-11.73-2.1-20.37-3.38-21.65-3.38c-1.48,0-2.58,0.55-2.58,0.55c-0.22,0.11-0.38,0.21-0.45,0.25
	c-0.61,0.36-1.14,0.56-1.49,0.66c-1.29,0.39-2.27,0.24-4.32,0.45c-0.19,0.02-0.38,0.03-0.57,0.05c-1.13,0.12-1.28,0.2-1.63,0.1
	c-0.4-0.11-0.68-0.34-0.8-0.45c-0.1-0.08-0.24-0.22-0.36-0.43c-0.1-0.18-0.13-0.23-0.13-0.28c0-0.18,0.18-0.33,0.31-0.39
	c0.16-0.08,0.37-0.08,0.46-0.08c0,0,0,0,0,0c0.47-0.01,0.91-0.18,1.2-0.3c0.05-0.02,0.74-0.3,0.71-0.44c0,0-0.92-0.12-0.92-0.12
	c-0.22,0.05-0.54,0.13-0.94,0.22c-0.33,0.08-0.54,0.12-0.69,0.16c-0.11,0.02-0.28,0.06-0.32,0.07c-0.87,0.2-1.77,0.89-2.67,0.86h0
	c-0.49,0.06-0.74,0.08-1.05-0.04c-0.62-0.24-0.91-0.83-1.01-1.08c0.01-0.35-0.09-0.72,0.04-1.05c0.24-0.63,1.15-1.27,2.16-2.02
	c3.4-2.52,7.23-2.78,9.53-2.82c2.18-0.04,3.17,0.16,5.33,0.33c7.19,0.57,16.55-0.54,22.08-0.07c1.39,0.12,2.77,0.35,2.77,0.35
	c1.05,0.17,4.04,0.7,13.35,4.34c2.32,0.91,3.75,1.4,4.99,2.06c2.28,1.2,4.09,1.94,4.41,2.06c4.68,1.79,11.38,4.39,13.46,7.33
	c0,0,0.95,1.33,2.58,1.95c0.15,0.06,0.6,0.23,0.99,0.04c0,0,0,0,0,0c0.01,0,0.03-0.01,0.05-0.02c0.44-0.25,0.47-1.23,0.47-1.23
	c0.06-2.35-0.32-5.95-0.32-5.95c-0.32-3.03,0.75-5.46,1.1-6.22c0.49-1.09,1.51-3.26,3.9-4.67c2.25-1.33,4.58-1.31,5.52-1.3
	c1.04,0.01,1.8,0.14,2.54,0.27c3.2,0.57,6.2,2.24,6.2,2.24c2.07,1.1,3.19,1.7,4.29,3.05c0.51,0.62,1.57,1.77,1.75,3.57
	c0.12,1.2-0.19,3.3-0.34,3.84c-0.18,0.65-0.38,1.37-0.95,2.08c-0.34,0.43-0.42,0.36-0.58,0.67c-0.09,0.16-0.35,0.66-0.01,2.51
	c0.12,0.63,0.17,0.94,0.21,1.08c0.03,0.12,0.33,1.45,0.21,1.97c-0.02,0.09-0.05,0.18-0.09,0.27c-0.33,0.72-0.83,0.48-1.35,1.22
	c-0.38,0.55-0.53,1.53-0.81,3.51c-0.02,0.15-0.06,0.44-0.27,0.71c-0.37,0.47-1,0.55-1.37,0.59c-4.22,0.52-5.03,0.52-5.34,0.49
	c-0.01,0-0.02,0-0.02,0c-0.02,0-0.04-0.01-0.04-0.01c-0.05-0.01-3.53,0.21-3.53,0.21c0,0,0,0,0,0c-0.45,0.29-1.04,0.73-1.29,1.03
	c-0.12,0.15-0.19,0.23-0.23,0.33c0,0,0,0,0,0c0,0,0,0,0,0l0,0c-0.47,0.72-1.27,1.86-1.33,2.17c-0.36,1.68,1.37,3.25,2.52,4.08
	c3.94,1.18,10.55,6.5,13.98,10.3c1.27,1.89-0.49,4.73-0.15,4.8c0.23,0.05,0.74-1.09,0.95-1.83c0.04-0.15,0.13-0.44,0.17-0.84
	c0.04-0.34,0.03-0.54,0.04-1.05c0,0,0.01-0.48,0.04-1.05c0.08-1.51,9.75-6.96,12.56-10.88c0.31-0.43,1.04-1.52,1.19-3.04
	c0.06-0.66-0.21-0.95-0.39-2.24c-0.07-0.52-0.17-1.3-0.15-2.25C349.14,208.54,349.25,208.6,350.1,205.1z"/>
<path class="st1" d="M299.88,239.86"/>
<path class="st1" d="M299.88,237.33"/>
</svg>
