<?xml version="1.0" encoding="utf-8"?>
<!-- Generator: Adobe Illustrator 24.2.1, SVG Export Plug-In . SVG Version: 6.00 Build 0)  -->
<svg version="1.1" id="Layer_1" xmlns="http://www.w3.org/2000/svg" xmlns:xlink="http://www.w3.org/1999/xlink" x="0px" y="0px"
	 viewBox="0 0 96 96" style="enable-background:new 0 0 96 96;" xml:space="preserve">
<style type="text/css">
	.st0{fill:#FCFCFC;}
	.st1{fill:#ED7540;}
	.st2{fill:#2B4656;}
</style>
<circle class="st0" cx="48" cy="48" r="46"/>
<path class="st1" d="M48,0C21.49,0,0,21.49,0,48s21.49,48,48,48s48-21.49,48-48S74.51,0,48,0z M47.86,81.31
	c-18.49,0-33.47-14.99-33.47-33.47s14.99-33.47,33.47-33.47s33.47,14.99,33.47,33.47S66.35,81.31,47.86,81.31z"/>
<g>
	<g>
		<g>
			<g>
				<path class="st2" d="M65.55,59.9l-1.94-4.11l-0.04,0l-4.42,8.9c-0.16,0.28-0.23,0.37-0.5,0.37l-1.68,0
					c-0.22,0-0.32-0.2-0.23-0.37l6.51-12.19c0.13-0.21,0.18-0.36,0.31-0.36l0.05,0c0.14,0,0.18,0.14,0.32,0.36l3.72,7.41L65.55,59.9
					z M67.78,60.55l2.39,4.21c0.09,0.17-0.02,0.35-0.25,0.35l-1.66,0c-0.27,0-0.36-0.08-0.5-0.35l-1.19-2.29l-5.37-0.01l1.05-1.92
					L67.78,60.55z"/>
			</g>
		</g>
	</g>
</g>
<g>
	<g>
		<path class="st2" d="M27.7,34.96l-0.74,6.48c-0.04,0.3-0.09,0.38-0.38,0.38h-1.43c-0.29,0-0.42-0.11-0.38-0.38l1.16-9.4
			L27.7,34.96z M26.47,28.45h0.29c0.07,0,0.15,0.04,0.22,0.16l5.85,9.67l5.85-9.67c0.07-0.13,0.14-0.16,0.22-0.16h0.24l0.34,2.51
			l-6.14,10.11c-0.16,0.23-0.27,0.38-0.42,0.38h-0.2c-0.15,0-0.25-0.14-0.4-0.38l-6.14-10.11L26.47,28.45z M39.72,32.06l1.18,9.38
			c0.04,0.27-0.09,0.38-0.38,0.38h-1.43c-0.29,0-0.36-0.07-0.38-0.38l-0.76-6.46L39.72,32.06z"/>
	</g>
</g>
<path class="st2" d="M65.6,37.99c0.02-0.07,0.04-0.18,0.14-0.27c0.02-0.02,0.11-0.1,0.21-0.09c0.04,0.01,0.09,0.03,0.11,0.07
	c0,0.01,0,0.01,0,0.06c0,0-0.02,0.12-0.02,0.19c0,0,0,0.01,0,0.01c0,0.01,0,0.01,0,0.07c-0.01,0.17-0.01,0.2,0,0.2
	c0.01,0,0.02-0.04,0.05-0.12c0.01-0.04,0.02-0.07,0.04-0.11c0-0.01,0-0.01,0.01-0.02c0-0.01,0.02-0.08,0.02-0.08
	c0.07-0.13,0.03-0.64,0.12-0.84c0.02-0.05,0.09-0.15,0.2-0.19c0.05-0.02,0.1-0.01,0.2,0.01c0.11,0.02,0.21,0.03,0.3,0.11
	c0.03,0.02,0.05,0.05,0.09,0.1c0.01,0.01,0.08,0.11,0.14,0.23c0.11,0.22,0.17,0.42,0.17,0.55c0.02,0.8,0.03,0.6-0.19,1.18
	c-0.07,0.19-0.16,0.34-0.23,0.44c-0.02,0.03-0.07,0.09-0.13,0.17c0,0,0,0,0,0c0,0-0.15,0.2-0.27,0.36
	c-0.24,0.33-1.19,3.75-3.27,5.04c-0.05,0.03-0.14,0.09-0.25,0.14c0,0,0,0,0,0c-0.12,0.11-0.35,0.03-0.42,0.01
	c-0.54-0.17-4.38-2.22-4.19-3.01c0.01-0.03-0.11-0.18-0.15-0.16c-0.03,0.01-0.02,0.08-0.02,0.16c0.01,0.18,0.08,0.34,0.16,0.49
	c0.05,0.1,0.13,0.21,0.15,0.32c0.01,0.07,0,0.13-0.01,0.16c-0.01,0.03-0.02,0.05-0.03,0.07c-0.03,0.07-0.08,0.15-0.14,0.25
	c-0.41,0.62-1.03,0.85-1.84,1.13c-2.09,0.72-3.13,1.08-3.17,1.09c-0.3,0.06-0.57,0.24-0.85,0.35c-0.04,0.02-0.15,0.07-0.2,0.17
	c0,0.01,0,0.01-0.01,0.02c-0.07,0.29,0.77,0.59,1.71,1.22c0.91,0.61,2.49,1.71,2.66,1.83c0,0,0.65,0.45,0.8,1.01
	c0.06,0.23,0.03,0.44,0.03,0.44c-0.02,0.18-0.08,0.3-0.12,0.38c0,0-0.16,0.32-0.46,0.58c-0.08,0.07-0.13,0.12-0.17,0.16
	c-0.05,0.06-0.06,0.07-0.11,0.13c-0.09,0.09-0.13,0.12-0.21,0.2c-0.11,0.1-0.17,0.18-0.22,0.24c-0.31,0.37-1.08,0.99-1.08,0.99
	c-0.24,0.19-0.57,0.42-1.01,0.76c-1.57,1.25-2.05,1.44-2.54,1.99c-0.31,0.34-0.52,0.65-0.64,0.83c-0.06,0.07-0.13,0.19-0.17,0.35
	c-0.03,0.14-0.07,0.46,0.33,1.03c0.51,0.72,1.47,1.5,1.8,1.72c0.03,0.02,0.14,0.09,0.19,0.23c0.04,0.1,0.04,0.23-0.02,0.33
	c-0.1,0.15-0.34,0.15-0.5,0.15c-0.95-0.02-1.53-0.29-1.53-0.29c-0.68-0.31-0.56-0.45-1.46-0.95c-0.59-0.33-1.03-0.53-1.35-0.68
	c-0.29-0.13-0.8-0.16-0.97-0.48c-0.05-0.1-0.06-0.2-0.06-0.21c-0.03-0.27,0.14-0.48,0.22-0.57c0.15-0.18,0.28-0.22,0.62-0.41
	c0.2-0.11,0.53-0.29,0.78-0.5c0.06-0.05,0.09-0.09,0.17-0.15c0.33-0.31,0.56-0.6,0.76-0.84c0.37-0.46,0.62-0.79,0.62-0.79
	c0.97-1.27,1.46-1.91,1.72-2.34c0.06-0.09,0.19-0.31,0.41-0.56c0.1-0.11,0.4-0.46,0.72-0.63c0.14-0.08,0.26-0.2,0.41-0.24
	c0.01,0,0.08-0.02,0.09-0.06c0,0,0,0,0,0c0-0.01,0-0.01,0-0.01c0.01-0.06-1.95-0.43-1.95-0.43c0,0-1.92-0.36-3.79-1.41
	c-0.01,0-0.25-0.14-0.25-0.14c-0.03-0.02-0.07-0.04-0.12-0.07c-0.04-0.02-0.1-0.06-0.2-0.13c-0.38-0.25-0.56-0.38-0.69-0.51
	c-0.02-0.02-0.04-0.05-0.05-0.04c-0.02,0.01-0.15,0.03,0.03,0.26c0.05,0.06,0.16,0.19,0.33,0.31c0.17,0.12,0.25,0.11,0.25,0.15
	c-0.01,0.03-0.61,1.99-3.87,3.45c-0.53,0.24-2.15,1.11-2.15,1.11c-1.74,1.62-3.18,1.71-4.66,2.21c0,0-1.85,0.79-2.71,1.57
	c-0.06,0.05-0.22,0.2-0.5,0.46c-0.35,0.31-0.39,0.35-0.5,0.46c-0.23,0.24-0.24,0.32-0.51,0.7c-0.23,0.32-0.21,0.25-0.76,0.93
	c-0.3,0.38-0.46,0.57-0.51,0.7c-0.02,0.05-0.1,0.24-0.26,0.47c-0.1,0.15-0.17,0.2-0.25,0.23c-0.13,0.05-0.28,0.01-0.36-0.04
	c-0.39-0.24-0.08-1.37,0.08-2.57c0-0.04,0.04-0.31,0.09-0.62c0.01-0.07,0.02-0.15,0.04-0.24c0.04-0.22,0.07-0.38,0.08-0.43
	c0.09-0.46,0.02-0.53,0.1-0.86c0.05-0.21,0.16-0.62,0.45-0.72c0.11-0.04,0.22-0.02,0.39,0.01c0.31,0.06,0.53,0.19,0.58,0.21
	c0.54,0.29,1.77-0.55,1.78-0.56l0,0c1.42-1.07,2.25-2.52,3.84-3.23c0.79-0.35,1.03-0.2,1.71-0.65c0.16-0.11,0.31-0.19,0.35-0.27
	c1.72-3.42,3.68-3.95,3.7-3.96c0.03-0.45,0.16-1.81,1.18-2.68c0.64-0.55,2.18-0.97,2.5-1.05c0.05-0.01,0.29-0.07,0.58-0.2
	c0,0,0.1-0.06,0.21-0.11c0.82-0.4,1.47-1.18,2.75-2.76c0.3-0.36,0.4-0.5,0.55-0.69c0,0,0.11-0.13,0.2-0.24
	c1.11-1.27,1.9-1.63,2.06-1.61c0.47,0.06,0.64,0.28,0.64,0.28c0.03,0.03,0.13,0.15,0.3,0.2c0.06,0.02,0.15,0.03,0.16,0.01
	c0.01-0.02-0.04-0.06-0.17-0.18c-0.11-0.11-0.09-0.11-0.14-0.14c-0.09-0.08-0.16-0.1-0.32-0.17c-0.1-0.05-0.2-0.11-0.31-0.15
	c-1.99-0.82-3.1-2.14-3.07-2.12c0,0,0.15,0.19,0,0c-0.04-0.05-0.06-0.07-0.07-0.09c0,0-0.01-0.01-0.01-0.01
	c0-0.03,0.1-0.07,0.1-0.07c0,0,0.19-0.15,0.2-0.15c0-0.01,0.08-0.19,0.05-0.22c-0.05-0.04-0.29,0.31-0.59,0.32
	c-0.07,0-0.13-0.01-0.17-0.02c-2.2-0.39-3.82-0.63-4.06-0.63c-0.28,0-0.48,0.1-0.48,0.1c-0.04,0.02-0.07,0.04-0.08,0.05
	c-0.11,0.07-0.21,0.1-0.28,0.12c-0.24,0.07-0.43,0.05-0.81,0.08c-0.04,0-0.07,0.01-0.11,0.01c-0.21,0.02-0.24,0.04-0.31,0.02
	c-0.08-0.02-0.13-0.06-0.15-0.08c-0.02-0.02-0.05-0.04-0.07-0.08c-0.02-0.03-0.02-0.04-0.02-0.05c0-0.03,0.03-0.06,0.06-0.07
	c0.03-0.01,0.07-0.02,0.09-0.02c0,0,0,0,0,0c0.09,0,0.17-0.03,0.23-0.06c0.01,0,0.14-0.06,0.13-0.08c0,0-0.17-0.02-0.17-0.02
	c-0.04,0.01-0.1,0.02-0.18,0.04c-0.06,0.01-0.1,0.02-0.13,0.03c-0.02,0-0.05,0.01-0.06,0.01c-0.16,0.04-0.33,0.17-0.5,0.16h0
	c-0.09,0.01-0.14,0.02-0.2-0.01c-0.12-0.04-0.17-0.16-0.19-0.2c0-0.07-0.02-0.14,0.01-0.2c0.05-0.12,0.22-0.24,0.41-0.38
	c0.64-0.47,1.36-0.52,1.79-0.53c0.41-0.01,0.59,0.03,1,0.06c1.35,0.11,3.1-0.1,4.14-0.01c0.26,0.02,0.52,0.07,0.52,0.07
	c0.2,0.03,0.76,0.13,2.5,0.81c0.43,0.17,0.7,0.26,0.94,0.39c0.43,0.22,0.77,0.36,0.83,0.39c0.88,0.33,2.13,0.82,2.52,1.37
	c0,0,0.18,0.25,0.48,0.37c0.03,0.01,0.11,0.04,0.19,0.01c0,0,0,0,0,0c0,0,0.01,0,0.01,0c0.08-0.05,0.09-0.23,0.09-0.23
	c0.01-0.44-0.06-1.12-0.06-1.12c-0.06-0.57,0.14-1.02,0.21-1.17c0.09-0.2,0.28-0.61,0.73-0.88c0.42-0.25,0.86-0.25,1.04-0.24
	c0.2,0,0.34,0.03,0.48,0.05c0.6,0.11,1.16,0.42,1.16,0.42c0.39,0.21,0.6,0.32,0.8,0.57c0.1,0.12,0.29,0.33,0.33,0.67
	c0.02,0.22-0.03,0.62-0.06,0.72c-0.03,0.12-0.07,0.26-0.18,0.39c-0.06,0.08-0.08,0.07-0.11,0.12c-0.02,0.03-0.07,0.12,0,0.47
	c0.02,0.12,0.03,0.18,0.04,0.2c0.01,0.02,0.06,0.27,0.04,0.37c0,0.02-0.01,0.03-0.02,0.05c-0.06,0.13-0.15,0.09-0.25,0.23
	c-0.07,0.1-0.1,0.29-0.15,0.66c0,0.03-0.01,0.08-0.05,0.13c-0.07,0.09-0.19,0.1-0.26,0.11c-0.79,0.1-0.94,0.1-1,0.09c0,0,0,0,0,0
	c0,0-0.01,0-0.01,0c-0.01,0-0.66,0.04-0.66,0.04c0,0,0,0,0,0c-0.08,0.05-0.2,0.14-0.24,0.19c-0.02,0.03-0.04,0.04-0.04,0.06
	c0,0,0,0,0,0c0,0,0,0,0,0l0,0c-0.09,0.13-0.24,0.35-0.25,0.41c-0.07,0.31,0.26,0.61,0.47,0.76c0.74,0.22,1.98,1.22,2.62,1.93
	c0.24,0.35-0.09,0.89-0.03,0.9c0.04,0.01,0.14-0.2,0.18-0.34c0.01-0.03,0.02-0.08,0.03-0.16c0.01-0.06,0.01-0.1,0.01-0.2
	c0,0,0-0.09,0.01-0.2c0.01-0.28,1.83-1.3,2.35-2.04c0.06-0.08,0.2-0.29,0.22-0.57c0.01-0.12-0.04-0.18-0.07-0.42
	c-0.01-0.1-0.03-0.24-0.03-0.42C65.42,38.64,65.44,38.65,65.6,37.99z"/>
<path class="st1" d="M56.18,44.51"/>
<path class="st1" d="M56.18,44.04"/>
</svg>
