<?xml version="1.0" encoding="utf-8"?>
<!-- Generator: Adobe Illustrator 24.2.1, SVG Export Plug-In . SVG Version: 6.00 Build 0)  -->
<svg version="1.1" xmlns="http://www.w3.org/2000/svg" xmlns:xlink="http://www.w3.org/1999/xlink" x="0px" y="0px"
	 viewBox="0 0 750 750" style="enable-background:new 0 0 750 750;" xml:space="preserve">
<style type="text/css">
	.st0{fill:#FFFFFF;}
	.st1{fill:#ED7540;}
	.st2{display:none;}
</style>
<g id="White_x26_OrangeShadow">
	<g>
		<g>
			<path class="st0" d="M673.01,554.78l-32.1-68.93l-0.6,0l-73.13,149.07c-2.69,4.77-3.88,6.26-8.36,6.25l-27.73-0.04
				c-3.58-0.01-5.36-3.29-3.87-6.27l107.8-204.18c2.09-3.57,2.99-5.96,5.08-5.96l0.9,0c2.38,0,2.98,2.39,5.36,5.97l61.54,124.14
				L673.01,554.78z M709.9,565.53l39.58,70.56c1.49,2.8-0.31,5.88-4.18,5.87l-27.43-0.04c-4.47-0.01-5.96-1.41-8.34-5.89
				l-19.62-38.39l-88.86-0.13l17.36-32.12L709.9,565.53z"/>
		</g>
		<g>
			<g>
				<path class="st0" d="M48.69,216.17l-12.3,108.58c-0.6,5.1-1.5,6.3-6.3,6.3H6.4c-4.8,0-6.9-1.8-6.3-6.3l19.2-157.47L48.69,216.17
					z M28.33,107.04h4.8c1.2,0,2.4,0.6,3.6,2.7l96.89,161.97l96.89-161.97c1.2-2.1,2.4-2.7,3.6-2.7h3.9l5.7,41.99L142.01,318.5
					c-2.7,3.9-4.5,6.3-6.9,6.3h-3.3c-2.4,0-4.2-2.4-6.6-6.3L23.53,149.03L28.33,107.04z M247.63,167.58l19.5,157.17
					c0.6,4.5-1.5,6.3-6.3,6.3h-23.7c-4.8,0-6-1.2-6.3-6.3l-12.6-108.28L247.63,167.58z"/>
			</g>
		</g>
		<path class="st1" d="M684.28,217.5c0.23-1.14,0.61-3.06,2.13-4.64c0.39-0.4,1.75-1.81,3.42-1.61c0.62,0.07,1.61,0.4,1.89,1.15
			c0.05,0.13,0.04,0.18-0.03,1.08c0,0-0.17,2.13-0.19,3.19c0,0.04,0,0.09,0,0.09c0,0.11,0,0.2-0.01,1.26
			c-0.02,2.91-0.04,3.34,0.06,3.36c0.13,0.02,0.36-0.74,0.76-2.06c0.21-0.68,0.36-1.26,0.53-1.91c0.03-0.13,0.06-0.24,0.09-0.34
			c0.05-0.19,0.34-1.35,0.36-1.39c5.97-12.39-1.82-21.02-1.82-21.02c-0.84-3.45-1.39-4.28-1.11-5.45c0.44-1.86,8.65-1.82,11.66,3.28
			c3.19,5.4,4.87,11.9,5.34,16.23c0.54,4.98,0.35,8.37,0,10.82c-0.32,2.26-0.77,6.15-2.67,10.82c-0.95,2.32-1.67,2.75-5.34,8.11
			c0,0,0.83,1.19-5.34,8.11c-10.24,11.49-16.03,54.09-46.39,82.13c-1.47,1.57-4.44,4.51-8.62,7.9c-4.44,2.91-6.48,3.27-7.52,3
			c-0.21-0.05-1.8-0.5-4.05-1.02c-0.09-0.02-0.17-0.04-0.22-0.05c-4.39-1.66-8.75-3.69-13.36-5.41
			c-21.35-7.97-40.08-16.23-53.44-29.75c-0.25-1.16-0.07-2.82-0.03-2.83c0.01,0,0.02,0.1,0.03,0.12c1.21,1.78-5.08,19.4-26.72,29.75
			c-22.25,8.83-54.66,17.49-57.33,20.85c-0.19,0.24-0.54,0.29-0.54,0.29c-0.75,0.41-2.22,1.24-4.44,2.69
			c-3.59,2.34-6.7,4.83-11.47,8.65c-2.85,2.28,0.15,2.66,0.03,3.28c-0.99,5.05,13.31,9.54,29.51,19.58
			c15.7,9.73,42.96,27.42,45.9,29.37c0,0,7.89,7.2,10.7,16.56c1.15,3.82,0.83,7.44,0.83,7.44c-0.26,3-1.18,5.17-1.79,6.59
			c0,0-2.42,5.59-7.42,10.24c-1.34,1.24-2.14,2.1-2.73,2.78c-0.85,0.99-1.02,1.28-1.82,2.24c-1.4,1.66-2.12,2.19-3.43,3.55
			c-1.76,1.82-3.48,4.16-3.48,4.16s-17.47,17.52-17.47,17.52c-3.86,3.44-9.25,7.43-16.38,13.65c-25.5,22.24-33.47,25.87-41.38,35.45
			c-4.98,6.04-8.34,11.41-10.21,14.59c-0.92,1.29-2.13,3.33-2.62,6.02c-0.43,2.36,2.44,7.83,9.51,17.21
			c8.95,11.89,21.32,17.89,25.1,23.25c3.74,5.3,5.29,6.21,6.19,8.41c0.67,1.65,0.83,3.96-0.2,5.61c-1.62,2.6-5.64,2.82-8.24,2.86
			c-16.02,0.22-24.12-3.53-24.12-3.53c-16.49-6.68-8.15-4.29-23.67-12.13c-10.17-5.14-17.61-8.38-23.16-10.6
			c-4.91-1.97-13.5-2.14-16.56-7.56c-0.91-1.61-1.16-3.28-1.2-3.5c-0.67-4.59,2.1-8.31,3.25-9.83c2.42-3.16,4.51-3.87,10.1-7.33
			c3.32-2.05,8.64-8.68,12.78-12.43c0.96-0.87,1.53-1.51,2.68-2.71c5.3-5.57,9.07-10.52,12.28-14.84
			c5.99-8.06,9.95-13.76,9.95-13.76c15.47-22.29,23.24-33.41,27.34-40.83c0.89-1.61,2.95-5.4,6.53-9.84c1.61-2,6.5-8.06,11.63-11.2
			c2.28-1.4,4.16-3.62,6.72-4.4c0.21-0.06,1.29-0.37,1.42-1.03c0,0,0,0,0-0.01c0-0.12,0.01-0.21,0.01-0.21
			c-3.92-1.14-7.63-2.18-11.14-3.12c-19.78,6.22-83.98-19.11-92.71-27.72c-0.17-0.16-5.5-3.88-5.5-3.88
			c1.67,0.88-6.61,40.33-62.69,65.93c-8.86,4.05-37.24,16.65-37.24,16.65c-25.45,30.15-51.59,35.15-77.48,43.27
			c-22.32,7-35.15,20.17-42.75,27.05c-3.67,3.32-6.87,6.22-10.69,10.82c-8.07,9.73-8.46,14.5-18.51,27.73
			c-2.12,2.8-4.25,5.59-6.32,8.43c-4.84,6.65-7.28,10.02-8.07,12.16c-0.29,0.8-1.51,4.22-4.03,8.1c-1.67,2.57-2.74,3.54-4.04,4.06
			c-2.23,0.88-4.77,0.28-6.07-0.46c-6.62-3.75-2.17-23.25-0.26-43.69c0.06-0.61,0.52-5.36,1.14-10.56c0.15-1.22,0.32-2.54,0.53-4.1
			c0.53-3.84,0.93-6.48,1.06-7.37c1.18-7.9-0.07-9.08,1.12-14.65c0.77-3.61,2.26-10.57,7.14-12.48c1.87-0.73,3.6-0.47,6.55-0.01
			c5.3,0.82,8.99,2.84,9.83,3.25c9.21,4.53,29.42-10.53,29.56-10.64l0,0c23.19-19.05,36.15-44.3,62.42-57.41
			c13.07-6.52,17.17-4.02,28.31-12.2c2.67-1.96,5.04-3.43,5.69-4.88c26.73-59.18,59.17-69.54,59.46-69.63
			c0.13-7.73,1.51-30.91,17.99-46.23c10.46-9.72,36.02-17.96,41.21-19.47c0.91-0.26,4.82-1.35,9.56-3.84c0,0,1.66-1.03,3.42-1.97
			c13.59-7.27,23.87-21.07,44.43-48.67c4.72-6.34,6.38-8.82,8.83-12.05c0,0,1.71-2.21,3.28-4.17c17.89-22.26,30.79-25.53,33.58-25.3
			c3.84,0.31,9.05,3.14,10.89,4.26c2.18,1.33,4.26,2.83,7.35,2.95c1.33,0.05,2.67-0.15,2.72-0.49c0.08-0.47-1.9-0.85-5.21-2.37
			c-0.6-0.27-1.09-0.52-1.57-0.78c-4.75-2.63-8.94-8.17-8.94-8.17c-1.73-1.57-3.05-3.88-5.26-4.68
			c-26.87-9.68-50.63-19.62-60.68-42.05c0,0-1.48,0.52-1.49,0.53c-3.8,4.08-41.74-3.53-68.55-8.11c-4.58-0.78-8.05,2.07-8.05,2.07
			c-0.66,0.37-1.16,0.71-1.37,0.86c-1.88,1.24-3.52,1.92-4.61,2.3c-4.02,1.41-7.12,1.06-13.54,1.97c-0.59,0.08-1.19,0.16-1.78,0.24
			c-3.56,0.52-4.02,0.78-5.12,0.53c-1.28-0.3-2.18-1.01-2.57-1.32c-0.32-0.26-0.78-0.68-1.18-1.33c-0.35-0.57-0.44-0.73-0.44-0.88
			c-0.01-0.59,0.53-1.08,0.92-1.29c0.49-0.26,1.16-0.3,1.45-0.32c0,0,0.01,0,0.01,0c1.47-0.09,2.83-0.7,3.75-1.11
			c0.14-0.06,2.29-1.04,2.16-1.5c0,0-2.92-0.26-2.92-0.26c-0.68,0.19-1.7,0.47-2.94,0.81c-1.02,0.28-1.7,0.46-2.15,0.58
			c-0.34,0.09,6.82-1.16,2.91-0.44c-2.76,0.5-9.89,3.34-12.21,3.78h0c-1.54,0.24-2.31,0.36-3.3,0.01c-1.97-0.68-2.96-2.55-3.31-3.32
			c0-1.11-0.37-2.29-0.01-3.34c0.69-2.03,3.47-4.2,6.57-6.7c10.41-8.43,22.4-9.74,29.63-10.14c6.85-0.38,9.98,0.11,16.81,0.39
			c22.69,0.92,52.01-3.76,69.48-2.94c4.38,0.21,8.76,4.11,8.76,4.11c3.32,0.41,16.09,8.41,45.82,18.87
			c7.4,2.6,11.99,4.01,15.97,5.94c7.31,3.54,13.11,5.66,14.13,6.01c14.94,5.11,36.33,9.25,43.26,18.35c0,0,3.14,4.13,8.36,5.9
			c0.47,0.16,1.9,0.65,3.12,0.01c0,0,0.01,0,0.01-0.01c0.02-0.01,0.09-0.05,0.15-0.08c1.37-0.86,1.33-3.98,1.33-3.98
			c-0.1-7.49-1.73-18.91-1.73-18.91c-1.37-9.6,1.71-17.47,2.71-19.96c1.42-3.54,4.35-10.57,11.7-15.36
			c6.93-4.51,17.54-8.08,20.51-8.17c3.51-0.11,6.56,0.33,8.02,0.55c2.41,0.36,8.5,2.38,13.17,4.06c8.25,2.96,15.91,9.73,20.47,14.83
			c3.03,3.39,5.32,6.58,5.95,11.15c0.53,3.81-0.2,7.2-0.6,8.94c-0.49,2.1-1.04,4.4-2.74,6.74c-1.02,1.4-1.28,1.21-1.75,2.19
			c-0.26,0.54-1.01,2.14,0.29,8c0.44,1.98,0.66,2.98,0.78,3.41c0.1,0.39,1.21,4.57,0.91,6.25c-0.05,0.29-0.14,0.57-0.26,0.87
			c-0.95,2.32-2.54,1.62-4.1,4.06c-1.14,1.79-1.49,4.95-2.12,11.27c-0.05,0.49-0.14,1.42-0.76,2.3c-1.1,1.55-3.08,1.87-4.24,2.06
			c-13.22,2.17-15.75,2.28-16.74,2.22c-0.03,0-0.05,0-0.07,0c-0.08-0.01-0.13-0.01-0.13-0.01c-0.16-0.02-11.09,1.11-11.09,1.11
			c0,0-0.01,0.01-0.01,0.01c-1.39,0.98-3.19,2.46-3.94,3.45c-0.36,0.48-0.57,0.75-0.67,1.07c0,0,0,0,0,0c0,0,0,0,0,0l0,0
			c-1.39,2.35-7.06,9.43-7.22,10.41c-0.83,4.88,2.94,10.31,8.42,12.67c18.25,7.85,43.86,20.63,45.33,26.57c0,0,0.59,8.94-0.01,15.61
			c-0.17,1.85-0.44,4.12,0.02,4.24c0.57,0.15,2.09-3.12,2.77-5.96c0.12-0.5,0.34-1.43,0.44-2.68c0.09-1.1,0.03-1.73-0.01-3.34
			c0,0-0.04-1.51-0.01-3.34c0.06-4.8,36.49-23.37,44.83-36.19c0.91-1.4,3.1-1.63,3.36-6.51c0.11-2.11-0.79-2.99-1.5-7.08
			c-0.29-1.65-0.7-4.12-0.74-7.13C681.68,231.9,682.04,228.74,684.28,217.5z"/>
		<path class="st0" d="M673.22,208.67c0.23-1.14,0.62-3.06,2.15-4.63c0.39-0.4,1.76-1.8,3.43-1.6c0.62,0.08,1.61,0.41,1.89,1.16
			c0.05,0.13,0.04,0.18-0.04,1.08c0,0-0.18,2.13-0.2,3.19c0,0.04,0,0.09,0,0.09c0,0.11,0,0.2-0.01,1.26
			c-0.03,2.91-0.05,3.34,0.05,3.36c0.13,0.02,0.37-0.74,0.77-2.05c0.21-0.68,0.36-1.26,0.54-1.91c0.03-0.13,0.06-0.24,0.09-0.34
			c0.05-0.19,0.34-1.35,0.36-1.39c1.11-2.28,0.17-10.94,1.53-14.34c0.34-0.85,1.38-2.68,3.3-3.34c0.86-0.29,1.67-0.2,3.3,0
			c1.86,0.22,3.53,0.42,5.07,1.65c0.49,0.39,0.83,0.82,1.53,1.69c0.11,0.14,1.46,1.81,2.53,3.85c1.97,3.74,3.09,7.01,3.23,9.3
			c0.84,13.55,0.84,10.21-2.46,20.22c-1.08,3.29-2.55,5.81-3.57,7.55c-0.4,0.56-1.13,1.59-2.04,2.89c0,0-2.2,3.15-4.28,6.24
			c-5.73,8.53-21.35,55.6-47.15,82.67c-1.79,1.88-3.38,3.96-5.41,5.48c-1.07,0.81-2.33,1.31-3.5,1.97c0,0,0,0,0,0
			c-2.02,1.86-5.82,0.77-7.1,0.4c-9.19-2.65-74.81-35.16-72.14-48.68c0.18-0.58-1.95-3-2.67-2.7c-0.45,0.18-0.36,1.36-0.25,2.65
			c0.26,3.08,1.54,5.78,2.92,8.17c0.98,1.69,2.23,3.51,2.67,5.41c0.29,1.26,0.14,2.17,0,2.7c-0.15,0.55-0.38,0.92-0.47,1.13
			c-0.52,1.19-1.23,2.67-2.2,4.28c-6.49,10.78-16.85,15.05-30.31,20.27c-34.66,13.45-51.99,20.18-52.52,20.3
			c-5.04,1.12-9.36,4.39-14.07,6.51c-0.66,0.29-2.47,1.2-3.2,2.98c-0.04,0.1-0.06,0.19-0.08,0.29c-1.01,5.05,13.27,9.6,29.42,19.71
			c15.66,9.8,42.84,27.6,45.77,29.57c0,0,11.16,7.25,13.92,16.62c1.13,3.82,0.8,7.45,0.8,7.45c-0.27,3-1.2,5.16-1.82,6.58
			c0,0-2.44,5.58-7.46,10.21c-1.34,1.24-2.15,2.09-2.74,2.77c-0.86,0.99-1.02,1.27-1.83,2.23c-1.4,1.65-2.13,2.18-3.45,3.54
			c-1.77,1.81-2.75,3.2-3.5,4.15c-5.04,6.43-17.54,17.45-17.54,17.45c-3.88,3.42-9.28,7.39-16.44,13.58
			c-25.6,22.13-33.58,25.72-41.53,35.27c-5.01,6.01-8.39,11.37-10.27,14.55c-0.93,1.28-2.14,3.32-2.65,6.01
			c-0.44,2.36-0.89,7.83,6.14,17.24c8.9,11.93,25.61,24.61,31.13,28.09c0.56,0.35,2.43,1.51,3.32,3.71
			c0.67,1.65,0.81,3.97-0.22,5.61c-1.63,2.6-5.65,2.8-8.25,2.82c-16.02,0.15-25.92-3.97-25.92-3.97
			c-11.51-4.79-9.6-7.35-25.09-15.26c-10.14-5.18-17.58-8.45-23.12-10.7c-4.9-1.99-13.49-2.2-16.53-7.63
			c-0.9-1.61-1.15-3.28-1.18-3.5c-0.65-4.59,2.13-8.31,3.3-9.81c2.43-3.15,4.53-3.85,10.13-7.29c3.33-2.04,8.66-5.3,12.82-9.03
			c0.96-0.86,1.54-1.5,2.69-2.7c5.32-5.54,9.11-10.49,12.34-14.79c6.03-8.03,10.01-13.72,10.01-13.72
			c15.56-22.22,23.38-33.31,27.51-40.71c0.9-1.61,2.98-5.39,6.57-9.81c1.62-1.99,6.53-8.03,11.68-11.15
			c2.29-1.39,4.18-3.6,6.74-4.37c0.21-0.06,1.29-0.36,1.43-1.02c0,0,0,0,0-0.01c0-0.12,0.01-0.21,0.01-0.21
			c0.1-1.08-32.9-6.18-32.9-6.18c0,0-32.45-5.01-64.49-21.73c-0.1-0.05-4.32-2.25-4.32-2.25c-0.51-0.28-1.2-0.66-2.01-1.13
			c-0.63-0.37-1.79-1.04-3.36-2.03c-6.46-4.06-9.69-6.09-11.89-8.29c-0.36-0.36-0.76-0.78-0.89-0.7c-0.36,0.24-2.44,0.6,0.72,4.35
			c0.86,1.02,2.74,3.1,5.67,5.11c2.9,1.99,4.31,1.66,4.21,2.45c-0.07,0.57-9.17,34.2-62.92,60.86
			c-8.73,4.33-35.43,20.12-35.43,20.12c-28.34,28.56-52.32,30.97-77,40.31c0,0-30.62,14.43-44.59,28.24
			c-0.91,0.9-3.53,3.58-8.11,8.08c-5.62,5.52-6.42,6.15-8.11,8.08c-3.65,4.15-3.79,5.6-8.12,12.13c-3.71,5.58-3.45,4.29-12.18,16.16
			c-4.87,6.63-7.33,9.99-8.12,12.13c-0.3,0.79-1.53,4.21-4.07,8.09c-1.68,2.56-2.75,3.53-4.06,4.04c-2.23,0.87-4.77,0.25-6.06-0.48
			c-6.6-3.78-2.07-23.26-0.08-43.69c0.06-0.61,0.54-5.35,1.19-10.55c0.15-1.22,0.33-2.54,0.55-4.1c0.55-3.84,0.96-6.48,1.09-7.36
			c1.21-7.89-0.04-9.08,1.18-14.64c0.79-3.61,2.31-10.56,7.19-12.45c1.88-0.72,3.61-0.45,6.55,0.01c5.3,0.84,8.98,2.88,9.82,3.3
			c9.19,4.57,29.46-10.41,29.6-10.51l0,0c23.27-18.95,36.34-44.14,62.66-57.14c13.09-6.47,17.19-3.95,28.36-12.08
			c2.68-1.95,5.05-3.41,5.71-4.85c26.98-59.07,59.46-69.29,59.75-69.38c0.16-7.73,1.64-30.9,18.19-46.15
			c10.5-9.68,36.09-17.8,41.29-19.29c0.91-0.26,4.83-1.33,9.58-3.8c0,0,1.67-1.02,3.43-1.95c13.62-7.21,23.96-20.97,44.63-48.48
			c4.75-6.32,6.41-8.79,8.88-12.01c0,0,1.72-2.2,3.3-4.15c17.98-22.18,30.92-28.73,33.7-28.49c7.91,0.68,10.88,4.31,10.88,4.31
			c0.5,0.51,2.28,2.43,5.1,3.16c1.04,0.27,2.48,0.44,2.67,0c0.17-0.39-0.78-1.04-2.91-3.04c-1.93-1.81-1.65-1.74-2.43-2.37
			c-1.6-1.29-2.81-1.61-5.52-2.71c-1.77-0.72-3.43-1.68-5.22-2.35c-33.85-12.73-53.19-34.63-52.8-34.3c0,0,2.66,3.19,0,0
			c-0.66-0.8-0.99-1.19-1.17-1.41c-0.06-0.08-0.17-0.12-0.19-0.22c-0.09-0.51,1.62-1.29,1.62-1.29c0,0,3.19-2.65,3.19-2.65
			c0.02-0.11,1.27-3.31,0.74-3.71c-0.85-0.65-4.61,5.39-9.77,5.83c-1.2,0.1-2.22-0.08-2.92-0.27c-37.15-5.41-64.47-8.54-68.52-8.4
			c-4.64,0.15-8.06,2.03-8.06,2.03c-0.67,0.37-1.16,0.71-1.38,0.86c-1.88,1.23-3.52,1.9-4.62,2.28c-4.03,1.39-7.12,1.03-13.54,1.91
			c-0.59,0.08-1.19,0.15-1.78,0.23c-3.56,0.5-4.02,0.76-5.13,0.5c-1.28-0.3-2.17-1.02-2.56-1.33c-0.32-0.26-0.78-0.69-1.17-1.34
			c-0.35-0.58-0.44-0.73-0.44-0.89c-0.01-0.59,0.53-1.08,0.92-1.29c0.49-0.26,1.16-0.3,1.45-0.31c0,0,0.01,0,0.01,0
			c1.47-0.08,2.84-0.68,3.76-1.09c0.14-0.06,2.3-1.03,2.17-1.49c0,0-2.92-0.27-2.92-0.27c-0.68,0.19-1.7,0.46-2.94,0.8
			c-1.02,0.28-1.7,0.45-2.16,0.57c-0.34,0.09-0.88,0.23-1,0.27c-2.71,0.74-5.47,3.03-8.31,3.03h0c-1.54,0.23-2.31,0.35-3.3,0
			c-1.97-0.69-2.94-2.56-3.3-3.34c0-1.11-0.36-2.29,0-3.34c0.7-2.03,3.49-4.18,6.59-6.68c10.44-8.38,22.44-9.64,29.68-10.01
			c6.85-0.35,9.98,0.15,16.81,0.46c22.69,1.02,52.02-3.54,69.49-2.64c4.38,0.23,8.76,0.81,8.76,0.81
			c3.32,0.43,12.79,1.79,42.47,12.38c7.39,2.63,11.97,4.06,15.94,6.01c7.29,3.57,13.09,5.72,14.11,6.08
			c14.92,5.18,36.28,12.74,43.17,21.87c0,0,3.12,4.14,8.34,5.93c0.47,0.16,1.9,0.65,3.12,0.02c0,0,0.01,0,0.01-0.01
			c0.02-0.01,0.09-0.05,0.15-0.08c1.37-0.86,1.34-3.97,1.34-3.98c-0.07-7.49-1.65-18.92-1.65-18.92c-1.33-9.6,1.79-17.46,2.79-19.95
			c1.44-3.54,4.39-10.55,11.77-15.3c6.95-4.49,14.26-4.68,17.23-4.75c3.28-0.09,5.68,0.24,8.02,0.58
			c10.14,1.47,19.74,6.45,19.74,6.45c6.63,3.29,10.22,5.07,13.83,9.25c1.67,1.93,5.14,5.47,5.9,11.18
			c0.51,3.81-0.23,10.53-0.64,12.28c-0.49,2.1-1.06,4.39-2.77,6.72c-1.03,1.4-1.28,1.2-1.75,2.18c-0.26,0.54-1.02,2.14,0.26,8
			c0.43,1.99,0.65,2.98,0.76,3.41c0.1,0.39,1.19,4.57,0.88,6.26c-0.05,0.29-0.14,0.57-0.27,0.87c-0.96,2.31-2.55,1.61-4.11,4.04
			c-1.15,1.79-1.52,4.94-2.16,11.26c-0.05,0.49-0.14,1.42-0.77,2.29c-1.1,1.54-3.08,1.86-4.25,2.04
			c-13.23,2.11-15.76,2.21-16.75,2.14c-0.03,0-0.05,0-0.07,0c-0.08-0.01-0.13-0.01-0.13-0.01c-0.16-0.02-11.1,1.06-11.1,1.06
			c0,0-0.01,0.01-0.01,0.01c-1.39,0.97-3.2,2.45-3.95,3.43c-0.37,0.48-0.57,0.75-0.68,1.07c0,0,0,0,0,0c0,0,0,0,0,0l0,0
			c-1.4,2.34-3.79,6.08-3.96,7.06c-0.94,5.38,4.66,10.21,8.37,12.71c12.53,3.33,33.91,19.55,45.1,31.29
			c4.21,5.89-1.03,15.11,0.04,15.3c0.72,0.13,2.2-3.54,2.8-5.94c0.12-0.5,0.35-1.43,0.46-2.68c0.09-1.1,0.03-1.73,0-3.34
			c0,0-0.03-1.51,0-3.34c0.08-4.8,29.95-23.24,38.34-36.02c0.92-1.4,3.12-4.96,3.4-9.83c0.12-2.11-0.78-3-1.47-7.09
			c-0.28-1.65-0.68-4.12-0.71-7.14C670.57,219.71,670.92,219.9,673.22,208.67z"/>
		<path class="st1" d="M391.41,473.56"/>
		<path class="st1" d="M555.08,330.44"/>
	</g>
</g>
<g id="Layer_2" class="st2">
</g>
</svg>
