<?xml version="1.0" encoding="utf-8"?>
<!-- Generator: Adobe Illustrator 24.2.1, SVG Export Plug-In . SVG Version: 6.00 Build 0)  -->
<svg version="1.1" xmlns="http://www.w3.org/2000/svg" xmlns:xlink="http://www.w3.org/1999/xlink" x="0px" y="0px"
	 viewBox="0 0 750 750" style="enable-background:new 0 0 750 750;" xml:space="preserve">
<style type="text/css">
	.st0{display:none;}
	.st1{display:inline;}
	.st2{fill:#FFFFFF;}
	.st3{fill:#ED7540;}
	.st4{fill:#2B4656;}
</style>
<g id="White_x26_OrangeShadow" class="st0">
	<g class="st1">
		<g>
			<path class="st2" d="M673.01,554.78l-32.1-68.93l-0.6,0l-73.13,149.07c-2.69,4.77-3.88,6.26-8.36,6.25l-27.73-0.04
				c-3.58-0.01-5.36-3.29-3.87-6.27l107.8-204.18c2.09-3.57,2.99-5.96,5.08-5.96l0.9,0c2.38,0,2.98,2.39,5.36,5.97l61.54,124.14
				L673.01,554.78z M709.9,565.53l39.58,70.56c1.49,2.8-0.31,5.88-4.18,5.87l-27.43-0.04c-4.47-0.01-5.96-1.41-8.34-5.89
				l-19.62-38.39l-88.86-0.13l17.36-32.12L709.9,565.53z"/>
		</g>
		<g>
			<g>
				<path class="st2" d="M48.69,216.17l-12.3,108.58c-0.6,5.1-1.5,6.3-6.3,6.3H6.4c-4.8,0-6.9-1.8-6.3-6.3l19.2-157.47L48.69,216.17
					z M28.33,107.04h4.8c1.2,0,2.4,0.6,3.6,2.7l96.89,161.97l96.89-161.97c1.2-2.1,2.4-2.7,3.6-2.7h3.9l5.7,41.99L142.01,318.5
					c-2.7,3.9-4.5,6.3-6.9,6.3h-3.3c-2.4,0-4.2-2.4-6.6-6.3L23.53,149.03L28.33,107.04z M247.63,167.58l19.5,157.17
					c0.6,4.5-1.5,6.3-6.3,6.3h-23.7c-4.8,0-6-1.2-6.3-6.3l-12.6-108.28L247.63,167.58z"/>
			</g>
		</g>
		<path class="st3" d="M684.28,217.5c0.23-1.14,0.61-3.06,2.13-4.64c0.39-0.4,1.75-1.81,3.42-1.61c0.62,0.07,1.61,0.4,1.89,1.15
			c0.05,0.13,0.04,0.18-0.03,1.08c0,0-0.17,2.13-0.19,3.19c0,0.04,0,0.09,0,0.09c0,0.11,0,0.2-0.01,1.26
			c-0.02,2.91-0.04,3.34,0.06,3.36c0.13,0.02,0.36-0.74,0.76-2.06c0.21-0.68,0.36-1.26,0.53-1.91c0.03-0.13,0.06-0.24,0.09-0.34
			c0.05-0.19,0.34-1.35,0.36-1.39c5.97-12.39-1.82-21.02-1.82-21.02c-0.84-3.45-1.39-4.28-1.11-5.45c0.44-1.86,8.65-1.82,11.66,3.28
			c3.19,5.4,4.87,11.9,5.34,16.23c0.54,4.98,0.35,8.37,0,10.82c-0.32,2.26-0.77,6.15-2.67,10.82c-0.95,2.32-1.67,2.75-5.34,8.11
			c0,0,0.83,1.19-5.34,8.11c-10.24,11.49-16.03,54.09-46.39,82.13c-1.47,1.57-4.44,4.51-8.62,7.9c-4.44,2.91-6.48,3.27-7.52,3
			c-0.21-0.05-1.8-0.5-4.05-1.02c-0.09-0.02-0.17-0.04-0.22-0.05c-4.39-1.66-8.75-3.69-13.36-5.41
			c-21.35-7.97-40.08-16.23-53.44-29.75c-0.25-1.16-0.07-2.82-0.03-2.83c0.01,0,0.02,0.1,0.03,0.12c1.21,1.78-5.08,19.4-26.72,29.75
			c-22.25,8.83-54.66,17.49-57.33,20.85c-0.19,0.24-0.54,0.29-0.54,0.29c-0.75,0.41-2.22,1.24-4.44,2.69
			c-3.59,2.34-6.7,4.83-11.47,8.65c-2.85,2.28,0.15,2.66,0.03,3.28c-0.99,5.05,13.31,9.54,29.51,19.58
			c15.7,9.73,42.96,27.42,45.9,29.37c0,0,7.89,7.2,10.7,16.56c1.15,3.82,0.83,7.44,0.83,7.44c-0.26,3-1.18,5.17-1.79,6.59
			c0,0-2.42,5.59-7.42,10.24c-1.34,1.24-2.14,2.1-2.73,2.78c-0.85,0.99-1.02,1.28-1.82,2.24c-1.4,1.66-2.12,2.19-3.43,3.55
			c-1.76,1.82-3.48,4.16-3.48,4.16s-17.47,17.52-17.47,17.52c-3.86,3.44-9.25,7.43-16.38,13.65c-25.5,22.24-33.47,25.87-41.38,35.45
			c-4.98,6.04-8.34,11.41-10.21,14.59c-0.92,1.29-2.13,3.33-2.62,6.02c-0.43,2.36,2.44,7.83,9.51,17.21
			c8.95,11.89,21.32,17.89,25.1,23.25c3.74,5.3,5.29,6.21,6.19,8.41c0.67,1.65,0.83,3.96-0.2,5.61c-1.62,2.6-5.64,2.82-8.24,2.86
			c-16.02,0.22-24.12-3.53-24.12-3.53c-16.49-6.68-8.15-4.29-23.67-12.13c-10.17-5.14-17.61-8.38-23.16-10.6
			c-4.91-1.97-13.5-2.14-16.56-7.56c-0.91-1.61-1.16-3.28-1.2-3.5c-0.67-4.59,2.1-8.31,3.25-9.83c2.42-3.16,4.51-3.87,10.1-7.33
			c3.32-2.05,8.64-8.68,12.78-12.43c0.96-0.87,1.53-1.51,2.68-2.71c5.3-5.57,9.07-10.52,12.28-14.84
			c5.99-8.06,9.95-13.76,9.95-13.76c15.47-22.29,23.24-33.41,27.34-40.83c0.89-1.61,2.95-5.4,6.53-9.84c1.61-2,6.5-8.06,11.63-11.2
			c2.28-1.4,4.16-3.62,6.72-4.4c0.21-0.06,1.29-0.37,1.42-1.03c0,0,0,0,0-0.01c0-0.12,0.01-0.21,0.01-0.21
			c-3.92-1.14-7.63-2.18-11.14-3.12c-19.78,6.22-83.98-19.11-92.71-27.72c-0.17-0.16-5.5-3.88-5.5-3.88
			c1.67,0.88-6.61,40.33-62.69,65.93c-8.86,4.05-37.24,16.65-37.24,16.65c-25.45,30.15-51.59,35.15-77.48,43.27
			c-22.32,7-35.15,20.17-42.75,27.05c-3.67,3.32-6.87,6.22-10.69,10.82c-8.07,9.73-8.46,14.5-18.51,27.73
			c-2.12,2.8-4.25,5.59-6.32,8.43c-4.84,6.65-7.28,10.02-8.07,12.16c-0.29,0.8-1.51,4.22-4.03,8.1c-1.67,2.57-2.74,3.54-4.04,4.06
			c-2.23,0.88-4.77,0.28-6.07-0.46c-6.62-3.75-2.17-23.25-0.26-43.69c0.06-0.61,0.52-5.36,1.14-10.56c0.15-1.22,0.32-2.54,0.53-4.1
			c0.53-3.84,0.93-6.48,1.06-7.37c1.18-7.9-0.07-9.08,1.12-14.65c0.77-3.61,2.26-10.57,7.14-12.48c1.87-0.73,3.6-0.47,6.55-0.01
			c5.3,0.82,8.99,2.84,9.83,3.25c9.21,4.53,29.42-10.53,29.56-10.64l0,0c23.19-19.05,36.15-44.3,62.42-57.41
			c13.07-6.52,17.17-4.02,28.31-12.2c2.67-1.96,5.04-3.43,5.69-4.88c26.73-59.18,59.17-69.54,59.46-69.63
			c0.13-7.73,1.51-30.91,17.99-46.23c10.46-9.72,36.02-17.96,41.21-19.47c0.91-0.26,4.82-1.35,9.56-3.84c0,0,1.66-1.03,3.42-1.97
			c13.59-7.27,23.87-21.07,44.43-48.67c4.72-6.34,6.38-8.82,8.83-12.05c0,0,1.71-2.21,3.28-4.17c17.89-22.26,30.79-25.53,33.58-25.3
			c3.84,0.31,9.05,3.14,10.89,4.26c2.18,1.33,4.26,2.83,7.35,2.95c1.33,0.05,2.67-0.15,2.72-0.49c0.08-0.47-1.9-0.85-5.21-2.37
			c-0.6-0.27-1.09-0.52-1.57-0.78c-4.75-2.63-8.94-8.17-8.94-8.17c-1.73-1.57-3.05-3.88-5.26-4.68
			c-26.87-9.68-50.63-19.62-60.68-42.05c0,0-1.48,0.52-1.49,0.53c-3.8,4.08-41.74-3.53-68.55-8.11c-4.58-0.78-8.05,2.07-8.05,2.07
			c-0.66,0.37-1.16,0.71-1.37,0.86c-1.88,1.24-3.52,1.92-4.61,2.3c-4.02,1.41-7.12,1.06-13.54,1.97c-0.59,0.08-1.19,0.16-1.78,0.24
			c-3.56,0.52-4.02,0.78-5.12,0.53c-1.28-0.3-2.18-1.01-2.57-1.32c-0.32-0.26-0.78-0.68-1.18-1.33c-0.35-0.57-0.44-0.73-0.44-0.88
			c-0.01-0.59,0.53-1.08,0.92-1.29c0.49-0.26,1.16-0.3,1.45-0.32c0,0,0.01,0,0.01,0c1.47-0.09,2.83-0.7,3.75-1.11
			c0.14-0.06,2.29-1.04,2.16-1.5c0,0-2.92-0.26-2.92-0.26c-0.68,0.19-1.7,0.47-2.94,0.81c-1.02,0.28-1.7,0.46-2.15,0.58
			c-0.34,0.09,6.82-1.16,2.91-0.44c-2.76,0.5-9.89,3.34-12.21,3.78h0c-1.54,0.24-2.31,0.36-3.3,0.01c-1.97-0.68-2.96-2.55-3.31-3.32
			c0-1.11-0.37-2.29-0.01-3.34c0.69-2.03,3.47-4.2,6.57-6.7c10.41-8.43,22.4-9.74,29.63-10.14c6.85-0.38,9.98,0.11,16.81,0.39
			c22.69,0.92,52.01-3.76,69.48-2.94c4.38,0.21,8.76,4.11,8.76,4.11c3.32,0.41,16.09,8.41,45.82,18.87
			c7.4,2.6,11.99,4.01,15.97,5.94c7.31,3.54,13.11,5.66,14.13,6.01c14.94,5.11,36.33,9.25,43.26,18.35c0,0,3.14,4.13,8.36,5.9
			c0.47,0.16,1.9,0.65,3.12,0.01c0,0,0.01,0,0.01-0.01c0.02-0.01,0.09-0.05,0.15-0.08c1.37-0.86,1.33-3.98,1.33-3.98
			c-0.1-7.49-1.73-18.91-1.73-18.91c-1.37-9.6,1.71-17.47,2.71-19.96c1.42-3.54,4.35-10.57,11.7-15.36
			c6.93-4.51,17.54-8.08,20.51-8.17c3.51-0.11,6.56,0.33,8.02,0.55c2.41,0.36,8.5,2.38,13.17,4.06c8.25,2.96,15.91,9.73,20.47,14.83
			c3.03,3.39,5.32,6.58,5.95,11.15c0.53,3.81-0.2,7.2-0.6,8.94c-0.49,2.1-1.04,4.4-2.74,6.74c-1.02,1.4-1.28,1.21-1.75,2.19
			c-0.26,0.54-1.01,2.14,0.29,8c0.44,1.98,0.66,2.98,0.78,3.41c0.1,0.39,1.21,4.57,0.91,6.25c-0.05,0.29-0.14,0.57-0.26,0.87
			c-0.95,2.32-2.54,1.62-4.1,4.06c-1.14,1.79-1.49,4.95-2.12,11.27c-0.05,0.49-0.14,1.42-0.76,2.3c-1.1,1.55-3.08,1.87-4.24,2.06
			c-13.22,2.17-15.75,2.28-16.74,2.22c-0.03,0-0.05,0-0.07,0c-0.08-0.01-0.13-0.01-0.13-0.01c-0.16-0.02-11.09,1.11-11.09,1.11
			c0,0-0.01,0.01-0.01,0.01c-1.39,0.98-3.19,2.46-3.94,3.45c-0.36,0.48-0.57,0.75-0.67,1.07c0,0,0,0,0,0c0,0,0,0,0,0l0,0
			c-1.39,2.35-7.06,9.43-7.22,10.41c-0.83,4.88,2.94,10.31,8.42,12.67c18.25,7.85,43.86,20.63,45.33,26.57c0,0,0.59,8.94-0.01,15.61
			c-0.17,1.85-0.44,4.12,0.02,4.24c0.57,0.15,2.09-3.12,2.77-5.96c0.12-0.5,0.34-1.43,0.44-2.68c0.09-1.1,0.03-1.73-0.01-3.34
			c0,0-0.04-1.51-0.01-3.34c0.06-4.8,36.49-23.37,44.83-36.19c0.91-1.4,3.1-1.63,3.36-6.51c0.11-2.11-0.79-2.99-1.5-7.08
			c-0.29-1.65-0.7-4.12-0.74-7.13C681.68,231.9,682.04,228.74,684.28,217.5z"/>
		<path class="st2" d="M673.22,208.67c0.23-1.14,0.62-3.06,2.15-4.63c0.39-0.4,1.76-1.8,3.43-1.6c0.62,0.08,1.61,0.41,1.89,1.16
			c0.05,0.13,0.04,0.18-0.04,1.08c0,0-0.18,2.13-0.2,3.19c0,0.04,0,0.09,0,0.09c0,0.11,0,0.2-0.01,1.26
			c-0.03,2.91-0.05,3.34,0.05,3.36c0.13,0.02,0.37-0.74,0.77-2.05c0.21-0.68,0.36-1.26,0.54-1.91c0.03-0.13,0.06-0.24,0.09-0.34
			c0.05-0.19,0.34-1.35,0.36-1.39c1.11-2.28,0.17-10.94,1.53-14.34c0.34-0.85,1.38-2.68,3.3-3.34c0.86-0.29,1.67-0.2,3.3,0
			c1.86,0.22,3.53,0.42,5.07,1.65c0.49,0.39,0.83,0.82,1.53,1.69c0.11,0.14,1.46,1.81,2.53,3.85c1.97,3.74,3.09,7.01,3.23,9.3
			c0.84,13.55,0.84,10.21-2.46,20.22c-1.08,3.29-2.55,5.81-3.57,7.55c-0.4,0.56-1.13,1.59-2.04,2.89c0,0-2.2,3.15-4.28,6.24
			c-5.73,8.53-21.35,55.6-47.15,82.67c-1.79,1.88-3.38,3.96-5.41,5.48c-1.07,0.81-2.33,1.31-3.5,1.97c0,0,0,0,0,0
			c-2.02,1.86-5.82,0.77-7.1,0.4c-9.19-2.65-74.81-35.16-72.14-48.68c0.18-0.58-1.95-3-2.67-2.7c-0.45,0.18-0.36,1.36-0.25,2.65
			c0.26,3.08,1.54,5.78,2.92,8.17c0.98,1.69,2.23,3.51,2.67,5.41c0.29,1.26,0.14,2.17,0,2.7c-0.15,0.55-0.38,0.92-0.47,1.13
			c-0.52,1.19-1.23,2.67-2.2,4.28c-6.49,10.78-16.85,15.05-30.31,20.27c-34.66,13.45-51.99,20.18-52.52,20.3
			c-5.04,1.12-9.36,4.39-14.07,6.51c-0.66,0.29-2.47,1.2-3.2,2.98c-0.04,0.1-0.06,0.19-0.08,0.29c-1.01,5.05,13.27,9.6,29.42,19.71
			c15.66,9.8,42.84,27.6,45.77,29.57c0,0,11.16,7.25,13.92,16.62c1.13,3.82,0.8,7.45,0.8,7.45c-0.27,3-1.2,5.16-1.82,6.58
			c0,0-2.44,5.58-7.46,10.21c-1.34,1.24-2.15,2.09-2.74,2.77c-0.86,0.99-1.02,1.27-1.83,2.23c-1.4,1.65-2.13,2.18-3.45,3.54
			c-1.77,1.81-2.75,3.2-3.5,4.15c-5.04,6.43-17.54,17.45-17.54,17.45c-3.88,3.42-9.28,7.39-16.44,13.58
			c-25.6,22.13-33.58,25.72-41.53,35.27c-5.01,6.01-8.39,11.37-10.27,14.55c-0.93,1.28-2.14,3.32-2.65,6.01
			c-0.44,2.36-0.89,7.83,6.14,17.24c8.9,11.93,25.61,24.61,31.13,28.09c0.56,0.35,2.43,1.51,3.32,3.71
			c0.67,1.65,0.81,3.97-0.22,5.61c-1.63,2.6-5.65,2.8-8.25,2.82c-16.02,0.15-25.92-3.97-25.92-3.97
			c-11.51-4.79-9.6-7.35-25.09-15.26c-10.14-5.18-17.58-8.45-23.12-10.7c-4.9-1.99-13.49-2.2-16.53-7.63
			c-0.9-1.61-1.15-3.28-1.18-3.5c-0.65-4.59,2.13-8.31,3.3-9.81c2.43-3.15,4.53-3.85,10.13-7.29c3.33-2.04,8.66-5.3,12.82-9.03
			c0.96-0.86,1.54-1.5,2.69-2.7c5.32-5.54,9.11-10.49,12.34-14.79c6.03-8.03,10.01-13.72,10.01-13.72
			c15.56-22.22,23.38-33.31,27.51-40.71c0.9-1.61,2.98-5.39,6.57-9.81c1.62-1.99,6.53-8.03,11.68-11.15
			c2.29-1.39,4.18-3.6,6.74-4.37c0.21-0.06,1.29-0.36,1.43-1.02c0,0,0,0,0-0.01c0-0.12,0.01-0.21,0.01-0.21
			c0.1-1.08-32.9-6.18-32.9-6.18c0,0-32.45-5.01-64.49-21.73c-0.1-0.05-4.32-2.25-4.32-2.25c-0.51-0.28-1.2-0.66-2.01-1.13
			c-0.63-0.37-1.79-1.04-3.36-2.03c-6.46-4.06-9.69-6.09-11.89-8.29c-0.36-0.36-0.76-0.78-0.89-0.7c-0.36,0.24-2.44,0.6,0.72,4.35
			c0.86,1.02,2.74,3.1,5.67,5.11c2.9,1.99,4.31,1.66,4.21,2.45c-0.07,0.57-9.17,34.2-62.92,60.86
			c-8.73,4.33-35.43,20.12-35.43,20.12c-28.34,28.56-52.32,30.97-77,40.31c0,0-30.62,14.43-44.59,28.24
			c-0.91,0.9-3.53,3.58-8.11,8.08c-5.62,5.52-6.42,6.15-8.11,8.08c-3.65,4.15-3.79,5.6-8.12,12.13c-3.71,5.58-3.45,4.29-12.18,16.16
			c-4.87,6.63-7.33,9.99-8.12,12.13c-0.3,0.79-1.53,4.21-4.07,8.09c-1.68,2.56-2.75,3.53-4.06,4.04c-2.23,0.87-4.77,0.25-6.06-0.48
			c-6.6-3.78-2.07-23.26-0.08-43.69c0.06-0.61,0.54-5.35,1.19-10.55c0.15-1.22,0.33-2.54,0.55-4.1c0.55-3.84,0.96-6.48,1.09-7.36
			c1.21-7.89-0.04-9.08,1.18-14.64c0.79-3.61,2.31-10.56,7.19-12.45c1.88-0.72,3.61-0.45,6.55,0.01c5.3,0.84,8.98,2.88,9.82,3.3
			c9.19,4.57,29.46-10.41,29.6-10.51l0,0c23.27-18.95,36.34-44.14,62.66-57.14c13.09-6.47,17.19-3.95,28.36-12.08
			c2.68-1.95,5.05-3.41,5.71-4.85c26.98-59.07,59.46-69.29,59.75-69.38c0.16-7.73,1.64-30.9,18.19-46.15
			c10.5-9.68,36.09-17.8,41.29-19.29c0.91-0.26,4.83-1.33,9.58-3.8c0,0,1.67-1.02,3.43-1.95c13.62-7.21,23.96-20.97,44.63-48.48
			c4.75-6.32,6.41-8.79,8.88-12.01c0,0,1.72-2.2,3.3-4.15c17.98-22.18,30.92-28.73,33.7-28.49c7.91,0.68,10.88,4.31,10.88,4.31
			c0.5,0.51,2.28,2.43,5.1,3.16c1.04,0.27,2.48,0.44,2.67,0c0.17-0.39-0.78-1.04-2.91-3.04c-1.93-1.81-1.65-1.74-2.43-2.37
			c-1.6-1.29-2.81-1.61-5.52-2.71c-1.77-0.72-3.43-1.68-5.22-2.35c-33.85-12.73-53.19-34.63-52.8-34.3c0,0,2.66,3.19,0,0
			c-0.66-0.8-0.99-1.19-1.17-1.41c-0.06-0.08-0.17-0.12-0.19-0.22c-0.09-0.51,1.62-1.29,1.62-1.29c0,0,3.19-2.65,3.19-2.65
			c0.02-0.11,1.27-3.31,0.74-3.71c-0.85-0.65-4.61,5.39-9.77,5.83c-1.2,0.1-2.22-0.08-2.92-0.27c-37.15-5.41-64.47-8.54-68.52-8.4
			c-4.64,0.15-8.06,2.03-8.06,2.03c-0.67,0.37-1.16,0.71-1.38,0.86c-1.88,1.23-3.52,1.9-4.62,2.28c-4.03,1.39-7.12,1.03-13.54,1.91
			c-0.59,0.08-1.19,0.15-1.78,0.23c-3.56,0.5-4.02,0.76-5.13,0.5c-1.28-0.3-2.17-1.02-2.56-1.33c-0.32-0.26-0.78-0.69-1.17-1.34
			c-0.35-0.58-0.44-0.73-0.44-0.89c-0.01-0.59,0.53-1.08,0.92-1.29c0.49-0.26,1.16-0.3,1.45-0.31c0,0,0.01,0,0.01,0
			c1.47-0.08,2.84-0.68,3.76-1.09c0.14-0.06,2.3-1.03,2.17-1.49c0,0-2.92-0.27-2.92-0.27c-0.68,0.19-1.7,0.46-2.94,0.8
			c-1.02,0.28-1.7,0.45-2.16,0.57c-0.34,0.09-0.88,0.23-1,0.27c-2.71,0.74-5.47,3.03-8.31,3.03h0c-1.54,0.23-2.31,0.35-3.3,0
			c-1.97-0.69-2.94-2.56-3.3-3.34c0-1.11-0.36-2.29,0-3.34c0.7-2.03,3.49-4.18,6.59-6.68c10.44-8.38,22.44-9.64,29.68-10.01
			c6.85-0.35,9.98,0.15,16.81,0.46c22.69,1.02,52.02-3.54,69.49-2.64c4.38,0.23,8.76,0.81,8.76,0.81
			c3.32,0.43,12.79,1.79,42.47,12.38c7.39,2.63,11.97,4.06,15.94,6.01c7.29,3.57,13.09,5.72,14.11,6.08
			c14.92,5.18,36.28,12.74,43.17,21.87c0,0,3.12,4.14,8.34,5.93c0.47,0.16,1.9,0.65,3.12,0.02c0,0,0.01,0,0.01-0.01
			c0.02-0.01,0.09-0.05,0.15-0.08c1.37-0.86,1.34-3.97,1.34-3.98c-0.07-7.49-1.65-18.92-1.65-18.92c-1.33-9.6,1.79-17.46,2.79-19.95
			c1.44-3.54,4.39-10.55,11.77-15.3c6.95-4.49,14.26-4.68,17.23-4.75c3.28-0.09,5.68,0.24,8.02,0.58
			c10.14,1.47,19.74,6.45,19.74,6.45c6.63,3.29,10.22,5.07,13.83,9.25c1.67,1.93,5.14,5.47,5.9,11.18
			c0.51,3.81-0.23,10.53-0.64,12.28c-0.49,2.1-1.06,4.39-2.77,6.72c-1.03,1.4-1.28,1.2-1.75,2.18c-0.26,0.54-1.02,2.14,0.26,8
			c0.43,1.99,0.65,2.98,0.76,3.41c0.1,0.39,1.19,4.57,0.88,6.26c-0.05,0.29-0.14,0.57-0.27,0.87c-0.96,2.31-2.55,1.61-4.11,4.04
			c-1.15,1.79-1.52,4.94-2.16,11.26c-0.05,0.49-0.14,1.42-0.77,2.29c-1.1,1.54-3.08,1.86-4.25,2.04
			c-13.23,2.11-15.76,2.21-16.75,2.14c-0.03,0-0.05,0-0.07,0c-0.08-0.01-0.13-0.01-0.13-0.01c-0.16-0.02-11.1,1.06-11.1,1.06
			c0,0-0.01,0.01-0.01,0.01c-1.39,0.97-3.2,2.45-3.95,3.43c-0.37,0.48-0.57,0.75-0.68,1.07c0,0,0,0,0,0c0,0,0,0,0,0l0,0
			c-1.4,2.34-3.79,6.08-3.96,7.06c-0.94,5.38,4.66,10.21,8.37,12.71c12.53,3.33,33.91,19.55,45.1,31.29
			c4.21,5.89-1.03,15.11,0.04,15.3c0.72,0.13,2.2-3.54,2.8-5.94c0.12-0.5,0.35-1.43,0.46-2.68c0.09-1.1,0.03-1.73,0-3.34
			c0,0-0.03-1.51,0-3.34c0.08-4.8,29.95-23.24,38.34-36.02c0.92-1.4,3.12-4.96,3.4-9.83c0.12-2.11-0.78-3-1.47-7.09
			c-0.28-1.65-0.68-4.12-0.71-7.14C670.57,219.71,670.92,219.9,673.22,208.67z"/>
		<path class="st3" d="M391.41,473.56"/>
		<path class="st3" d="M555.08,330.44"/>
	</g>
</g>
<g id="Blue_x26_OrangeShadow" class="st0">
	<g class="st1">
		<g>
			<g>
				<g>
					<g>
						<path class="st4" d="M671.28,553.59l-32.02-68.75l-0.6,0l-72.94,148.69c-2.68,4.75-3.88,6.24-8.34,6.23l-27.66-0.04
							c-3.57-0.01-5.35-3.28-3.86-6.25L633.4,429.81c2.09-3.56,2.98-5.94,5.06-5.94l0.89,0c2.38,0,2.97,2.38,5.34,5.96l61.38,123.82
							L671.28,553.59z M708.08,564.32l39.48,70.38c1.48,2.79-0.3,5.86-4.17,5.86l-27.36-0.04c-4.46-0.01-5.95-1.41-8.32-5.88
							l-19.57-38.29l-88.64-0.13l17.32-32.04L708.08,564.32z"/>
					</g>
				</g>
			</g>
		</g>
		<g>
			<g>
				<path class="st4" d="M48.57,215.86L36.3,324.16c-0.6,5.09-1.5,6.28-6.28,6.28H6.38c-4.79,0-6.88-1.79-6.28-6.28l19.15-157.07
					L48.57,215.86z M28.26,107h4.79c1.2,0,2.39,0.6,3.59,2.69l96.64,161.56l96.64-161.56c1.19-2.09,2.39-2.69,3.59-2.69h3.89
					l5.68,41.89L141.65,317.93c-2.69,3.89-4.49,6.28-6.88,6.28h-3.29c-2.39,0-4.19-2.39-6.58-6.28L23.47,148.89L28.26,107z
					 M247,167.39l19.45,156.77c0.6,4.49-1.5,6.28-6.28,6.28h-23.64c-4.79,0-5.98-1.2-6.28-6.28l-12.57-108L247,167.39z"/>
			</g>
		</g>
		<path class="st3" d="M682.53,217.18c0.23-1.14,0.61-3.05,2.13-4.62c0.39-0.4,1.74-1.8,3.41-1.61c0.62,0.07,1.61,0.4,1.89,1.15
			c0.05,0.13,0.04,0.18-0.03,1.08c0,0-0.17,2.12-0.19,3.18c0,0.04,0,0.09,0,0.09c0,0.11,0,0.2-0.01,1.26
			c-0.02,2.9-0.04,3.33,0.06,3.35c0.13,0.02,0.36-0.74,0.76-2.05c0.21-0.68,0.36-1.26,0.53-1.9c0.03-0.13,0.06-0.24,0.09-0.34
			c0.05-0.19,0.33-1.35,0.35-1.39c5.95-12.35-1.82-20.97-1.82-20.97c-0.84-3.44-1.38-4.27-1.1-5.44c0.44-1.85,8.62-1.82,11.63,3.27
			c3.19,5.39,4.86,11.87,5.33,16.19c0.54,4.97,0.35,8.35,0,10.79c-0.32,2.26-0.77,6.14-2.67,10.79c-0.94,2.32-1.67,2.75-5.33,8.09
			c0,0,0.83,1.18-5.33,8.09c-10.21,11.46-15.99,53.96-46.27,81.92c-1.47,1.57-4.43,4.5-8.59,7.88c-4.42,2.9-6.46,3.26-7.5,2.99
			c-0.21-0.05-1.79-0.5-4.04-1.01c-0.09-0.02-0.17-0.04-0.22-0.05c-4.37-1.65-8.73-3.68-13.33-5.4
			c-21.29-7.95-39.98-16.19-53.3-29.68c-0.25-1.16-0.07-2.82-0.03-2.82c0.01,0,0.02,0.1,0.03,0.12c1.21,1.77-5.06,19.35-26.65,29.68
			c-22.2,8.81-54.52,17.45-57.18,20.8c-0.19,0.24-0.54,0.29-0.54,0.29c-0.75,0.41-2.22,1.24-4.43,2.68
			c-3.58,2.33-6.68,4.81-11.44,8.63c-2.84,2.28,0.15,2.66,0.03,3.27c-0.99,5.04,13.27,9.52,29.43,19.53
			c15.66,9.71,42.85,27.35,45.78,29.29c0,0,7.87,7.18,10.67,16.51c1.14,3.81,0.83,7.42,0.83,7.43c-0.26,3-1.17,5.15-1.79,6.58
			c0,0-2.41,5.58-7.4,10.21c-1.33,1.24-2.14,2.09-2.72,2.78c-0.85,0.99-1.01,1.27-1.82,2.23c-1.39,1.65-2.11,2.19-3.42,3.54
			c-1.75,1.81-3.47,4.15-3.47,4.15s-17.42,17.48-17.42,17.48c-3.85,3.43-9.22,7.42-16.34,13.62c-25.44,22.18-33.39,25.8-41.27,35.36
			c-4.97,6.02-8.32,11.38-10.18,14.55c-0.92,1.28-2.12,3.32-2.61,6.01c-0.43,2.35,2.43,7.81,9.48,17.17
			c8.93,11.86,21.26,17.85,25.03,23.19c3.73,5.29,5.28,6.2,6.17,8.39c0.67,1.65,0.83,3.95-0.2,5.6c-1.61,2.6-5.63,2.82-8.22,2.85
			c-15.98,0.22-24.06-3.52-24.06-3.53c-16.44-6.66-8.13-4.28-23.61-12.1c-10.14-5.12-17.57-8.36-23.1-10.58
			c-4.9-1.96-13.47-2.13-16.52-7.54c-0.91-1.61-1.16-3.27-1.19-3.49c-0.67-4.57,2.09-8.29,3.25-9.8c2.41-3.16,4.5-3.86,10.08-7.31
			c3.31-2.05,8.62-8.66,12.75-12.39c0.96-0.86,1.53-1.51,2.67-2.7c5.28-5.55,9.05-10.5,12.24-14.8c5.98-8.04,9.92-13.73,9.92-13.73
			c15.43-22.23,23.18-33.33,27.27-40.72c0.89-1.6,2.95-5.39,6.51-9.81c1.61-1.99,6.48-8.04,11.61-11.18
			c2.28-1.39,4.15-3.61,6.7-4.39c0.21-0.06,1.29-0.36,1.42-1.02c0,0,0,0,0-0.01c0-0.12,0.01-0.21,0.01-0.21
			c-3.91-1.14-7.61-2.17-11.11-3.11c-19.73,6.2-83.76-19.06-92.47-27.65c-0.17-0.16-5.49-3.87-5.49-3.87
			c1.67,0.88-6.59,40.23-62.53,65.76c-8.84,4.04-37.14,16.61-37.14,16.61c-25.38,30.08-51.46,35.06-77.29,43.16
			c-22.26,6.99-35.06,20.12-42.64,26.98c-3.66,3.32-6.86,6.21-10.66,10.79c-8.05,9.7-8.44,14.46-18.46,27.66
			c-2.12,2.79-4.24,5.58-6.3,8.41c-4.83,6.63-7.26,9.99-8.05,12.13c-0.29,0.79-1.51,4.21-4.02,8.08c-1.66,2.56-2.73,3.53-4.03,4.05
			c-2.22,0.88-4.76,0.27-6.05-0.46c-6.6-3.74-2.16-23.2-0.26-43.58c0.06-0.61,0.52-5.34,1.14-10.53c0.15-1.21,0.32-2.53,0.53-4.09
			c0.53-3.83,0.93-6.47,1.06-7.35c1.17-7.88-0.07-9.06,1.11-14.61c0.77-3.6,2.26-10.54,7.12-12.44c1.87-0.73,3.59-0.47,6.53-0.01
			c5.29,0.81,8.97,2.84,9.8,3.24c9.19,4.52,29.34-10.51,29.48-10.61l0,0c23.13-19,36.06-44.18,62.26-57.26
			c13.03-6.5,17.13-4.01,28.24-12.17c2.66-1.96,5.03-3.42,5.68-4.87c26.66-59.03,59.01-69.36,59.31-69.46
			c0.13-7.71,1.51-30.83,17.95-46.11c10.43-9.7,35.93-17.91,41.1-19.42c0.91-0.26,4.81-1.35,9.54-3.83c0,0,1.66-1.03,3.41-1.96
			c13.55-7.25,23.81-21.02,44.31-48.54c4.71-6.32,6.36-8.79,8.81-12.02c0,0,1.7-2.21,3.27-4.16c17.84-22.2,30.72-25.46,33.5-25.24
			c3.83,0.31,9.03,3.13,10.87,4.25c2.17,1.33,4.25,2.82,7.33,2.95c1.33,0.05,2.66-0.15,2.71-0.48c0.08-0.47-1.89-0.84-5.2-2.36
			c-0.6-0.27-1.09-0.52-1.56-0.78c-4.74-2.63-8.92-8.15-8.92-8.15c-1.72-1.56-3.04-3.87-5.25-4.67
			c-26.8-9.65-50.5-19.57-60.52-41.94c0,0-1.48,0.52-1.48,0.53c-3.79,4.07-41.64-3.52-68.38-8.09c-4.57-0.78-8.03,2.06-8.03,2.06
			c-0.66,0.37-1.16,0.71-1.37,0.86c-1.87,1.23-3.51,1.91-4.6,2.29c-4.01,1.4-7.1,1.06-13.5,1.97c-0.59,0.08-1.18,0.16-1.78,0.24
			c-3.55,0.52-4.01,0.78-5.11,0.52c-1.28-0.3-2.17-1-2.56-1.32c-0.32-0.26-0.78-0.68-1.17-1.33c-0.35-0.57-0.44-0.73-0.44-0.88
			c-0.01-0.58,0.53-1.08,0.91-1.29c0.49-0.26,1.15-0.3,1.44-0.32c0,0,0.01,0,0.01,0c1.47-0.09,2.83-0.69,3.74-1.11
			c0.14-0.06,2.29-1.04,2.16-1.49c0,0-2.91-0.26-2.91-0.26c-0.67,0.19-1.69,0.47-2.93,0.81c-1.02,0.28-1.69,0.46-2.15,0.58
			c-0.34,0.09,6.8-1.15,2.9-0.44c-2.75,0.5-9.87,3.33-12.17,3.77h0c-1.53,0.24-2.3,0.36-3.29,0.01c-1.96-0.68-2.95-2.54-3.3-3.31
			c0-1.11-0.37-2.28-0.01-3.33c0.69-2.03,3.46-4.19,6.55-6.69c10.38-8.41,22.35-9.71,29.56-10.12c6.83-0.38,9.96,0.11,16.77,0.39
			c22.64,0.92,51.87-3.76,69.3-2.93c4.37,0.21,8.74,4.1,8.74,4.1c3.31,0.41,16.05,8.39,45.7,18.82c7.38,2.6,11.95,4,15.92,5.92
			c7.29,3.53,13.08,5.65,14.1,6c14.9,5.1,36.24,9.22,43.15,18.3c0,0,3.13,4.12,8.34,5.88c0.47,0.16,1.9,0.64,3.11,0.01
			c0,0,0.01,0,0.01-0.01c0.02-0.01,0.09-0.05,0.15-0.08c1.36-0.86,1.32-3.97,1.32-3.97c-0.1-7.47-1.72-18.86-1.72-18.86
			c-1.36-9.57,1.71-17.43,2.7-19.91c1.42-3.53,4.34-10.54,11.67-15.32c6.91-4.5,17.5-8.06,20.46-8.15c3.5-0.11,6.54,0.33,8,0.55
			c2.4,0.36,8.48,2.38,13.14,4.05c8.23,2.95,15.87,9.7,20.42,14.79c3.02,3.38,5.3,6.56,5.94,11.12c0.53,3.8-0.2,7.18-0.6,8.92
			c-0.48,2.1-1.03,4.38-2.73,6.72c-1.02,1.4-1.27,1.2-1.74,2.18c-0.25,0.53-1.01,2.14,0.29,7.98c0.44,1.98,0.66,2.97,0.78,3.4
			c0.1,0.39,1.21,4.56,0.9,6.24c-0.05,0.29-0.14,0.57-0.26,0.87c-0.95,2.31-2.54,1.62-4.09,4.05c-1.14,1.79-1.49,4.94-2.11,11.24
			c-0.05,0.49-0.14,1.41-0.76,2.29c-1.1,1.54-3.07,1.87-4.23,2.06c-13.18,2.16-15.71,2.27-16.7,2.21c-0.03,0-0.05,0-0.07,0
			c-0.08-0.01-0.13-0.01-0.13-0.01c-0.16-0.02-11.07,1.11-11.07,1.11c0,0-0.01,0.01-0.01,0.01c-1.38,0.97-3.18,2.45-3.93,3.44
			c-0.36,0.48-0.57,0.75-0.67,1.07c0,0,0,0,0,0c0,0,0,0,0,0l0,0c-1.39,2.34-7.04,9.41-7.21,10.39c-0.83,4.86,2.94,10.29,8.4,12.64
			c18.2,7.83,43.75,20.58,45.22,26.5c0,0,0.59,8.92-0.01,15.57c-0.17,1.85-0.44,4.1,0.02,4.23c0.56,0.15,2.08-3.12,2.77-5.94
			c0.12-0.5,0.34-1.43,0.44-2.68c0.09-1.1,0.03-1.73-0.01-3.33c0,0-0.04-1.51-0.01-3.33c0.06-4.79,36.39-23.31,44.71-36.1
			c0.91-1.4,3.09-1.63,3.35-6.49c0.11-2.11-0.79-2.99-1.49-7.07c-0.28-1.65-0.7-4.11-0.74-7.11
			C679.93,231.54,680.29,228.39,682.53,217.18z"/>
		<path class="st4" d="M671.5,208.37c0.23-1.14,0.62-3.05,2.14-4.62c0.39-0.4,1.75-1.8,3.42-1.59c0.62,0.08,1.6,0.41,1.88,1.16
			c0.05,0.13,0.04,0.18-0.04,1.08c0,0-0.18,2.12-0.2,3.18c0,0.04,0,0.09,0,0.09c0,0.11,0,0.2-0.01,1.26
			c-0.03,2.9-0.05,3.33,0.05,3.35c0.13,0.02,0.37-0.73,0.77-2.05c0.21-0.68,0.36-1.25,0.54-1.9c0.03-0.13,0.06-0.24,0.09-0.34
			c0.05-0.19,0.34-1.34,0.36-1.39c1.11-2.27,0.17-10.91,1.53-14.3c0.34-0.85,1.38-2.68,3.29-3.33c0.86-0.29,1.67-0.2,3.29,0
			c1.85,0.22,3.53,0.42,5.05,1.64c0.49,0.39,0.83,0.82,1.52,1.69c0.11,0.14,1.45,1.81,2.52,3.84c1.96,3.73,3.08,6.99,3.22,9.28
			c0.83,13.51,0.83,10.18-2.46,20.17c-1.08,3.28-2.54,5.8-3.56,7.53c-0.39,0.55-1.13,1.59-2.04,2.89c0,0-2.2,3.14-4.27,6.23
			c-5.71,8.51-21.3,55.46-47.03,82.46c-1.79,1.87-3.37,3.95-5.39,5.47c-1.07,0.8-2.33,1.31-3.49,1.96c0,0,0,0,0,0
			c-2.02,1.86-5.81,0.77-7.08,0.4c-9.16-2.64-74.62-35.07-71.96-48.56c0.18-0.58-1.95-2.99-2.67-2.7c-0.45,0.18-0.36,1.36-0.25,2.64
			c0.26,3.07,1.53,5.77,2.91,8.15c0.98,1.69,2.22,3.5,2.67,5.4c0.29,1.26,0.14,2.17,0,2.7c-0.15,0.55-0.37,0.91-0.47,1.13
			c-0.52,1.19-1.23,2.66-2.2,4.27c-6.48,10.75-16.8,15.01-30.23,20.22c-34.57,13.42-51.86,20.13-52.39,20.25
			c-5.02,1.12-9.34,4.38-14.04,6.49c-0.65,0.29-2.47,1.2-3.19,2.97c-0.04,0.1-0.06,0.19-0.08,0.29
			c-1.01,5.03,13.23,9.58,29.35,19.66c15.62,9.77,42.73,27.53,45.66,29.49c0,0,11.13,7.23,13.89,16.57c1.13,3.81,0.8,7.43,0.8,7.43
			c-0.27,2.99-1.19,5.15-1.82,6.57c0,0-2.44,5.57-7.44,10.18c-1.34,1.23-2.14,2.08-2.74,2.77c-0.85,0.99-1.02,1.27-1.83,2.22
			c-1.4,1.65-2.12,2.18-3.44,3.53c-1.76,1.8-2.74,3.19-3.49,4.14c-5.03,6.41-17.49,17.4-17.49,17.4c-3.87,3.41-9.26,7.38-16.4,13.55
			c-25.53,22.07-33.5,25.66-41.42,35.18c-4.99,6-8.37,11.34-10.24,14.51c-0.92,1.28-2.14,3.31-2.64,5.99
			c-0.44,2.35-0.89,7.81,6.12,17.2c8.88,11.9,25.55,24.55,31.05,28.02c0.56,0.35,2.42,1.51,3.31,3.7c0.66,1.65,0.81,3.96-0.22,5.6
			c-1.63,2.59-5.64,2.79-8.23,2.82c-15.98,0.15-25.85-3.96-25.86-3.96c-11.48-4.78-9.58-7.33-25.02-15.22
			c-10.12-5.17-17.53-8.43-23.06-10.67c-4.89-1.98-13.46-2.19-16.48-7.61c-0.9-1.61-1.15-3.27-1.18-3.49
			c-0.65-4.58,2.13-8.28,3.29-9.79c2.43-3.14,4.51-3.84,10.11-7.27c3.32-2.03,8.64-5.29,12.79-9.01c0.96-0.86,1.54-1.5,2.68-2.69
			c5.31-5.53,9.09-10.46,12.31-14.75c6.01-8.01,9.98-13.69,9.98-13.69c15.52-22.16,23.32-33.23,27.44-40.6
			c0.89-1.6,2.97-5.38,6.55-9.78c1.61-1.99,6.51-8.01,11.65-11.13c2.28-1.38,4.16-3.59,6.72-4.36c0.21-0.06,1.29-0.36,1.42-1.02
			c0,0,0,0,0-0.01c0-0.12,0.01-0.21,0.01-0.21c0.1-1.08-32.82-6.16-32.82-6.16c0,0-32.37-5-64.33-21.67
			c-0.1-0.05-4.31-2.25-4.31-2.25c-0.51-0.28-1.2-0.66-2-1.12c-0.63-0.36-1.79-1.04-3.35-2.02c-6.44-4.05-9.66-6.07-11.86-8.27
			c-0.36-0.36-0.76-0.78-0.89-0.7c-0.36,0.24-2.43,0.59,0.72,4.34c0.86,1.02,2.73,3.09,5.66,5.1c2.89,1.99,4.29,1.66,4.2,2.45
			c-0.07,0.57-9.15,34.11-62.76,60.7c-8.71,4.32-35.34,20.07-35.34,20.07c-28.27,28.49-52.18,30.89-76.8,40.21
			c0,0-30.54,14.39-44.47,28.16c-0.91,0.9-3.52,3.57-8.09,8.06c-5.61,5.51-6.4,6.14-8.09,8.06c-3.64,4.14-3.78,5.59-8.1,12.09
			c-3.7,5.57-3.44,4.28-12.15,16.12c-4.86,6.61-7.31,9.96-8.1,12.09c-0.3,0.79-1.52,4.2-4.06,8.07c-1.67,2.56-2.74,3.52-4.05,4.03
			c-2.22,0.87-4.76,0.25-6.05-0.48c-6.59-3.77-2.07-23.2-0.08-43.58c0.06-0.6,0.54-5.34,1.18-10.52c0.15-1.21,0.33-2.53,0.55-4.09
			c0.54-3.83,0.95-6.46,1.09-7.34c1.21-7.87-0.04-9.06,1.18-14.6c0.79-3.6,2.3-10.53,7.17-12.41c1.87-0.72,3.6-0.45,6.53,0.01
			c5.28,0.84,8.96,2.87,9.79,3.29c9.17,4.56,29.39-10.38,29.53-10.48l0,0c23.21-18.9,36.24-44.03,62.5-56.99
			c13.06-6.45,17.14-3.94,28.29-12.05c2.67-1.94,5.04-3.4,5.7-4.84c26.91-58.91,59.31-69.11,59.6-69.2
			c0.16-7.71,1.64-30.82,18.14-46.03c10.47-9.65,36-17.75,41.18-19.24c0.91-0.26,4.82-1.33,9.55-3.79c0,0,1.66-1.02,3.42-1.95
			c13.58-7.19,23.89-20.91,44.52-48.35c4.74-6.3,6.4-8.77,8.86-11.98c0,0,1.71-2.2,3.29-4.14c17.94-22.13,30.84-28.66,33.62-28.42
			c7.89,0.68,10.85,4.29,10.85,4.29c0.5,0.51,2.28,2.43,5.09,3.15c1.04,0.27,2.48,0.44,2.67,0c0.17-0.39-0.77-1.04-2.9-3.03
			c-1.93-1.8-1.65-1.74-2.43-2.36c-1.6-1.29-2.8-1.6-5.51-2.71c-1.76-0.72-3.42-1.68-5.2-2.35c-33.77-12.69-53.05-34.54-52.66-34.22
			c0,0,2.65,3.18,0,0c-0.66-0.79-0.98-1.19-1.16-1.41c-0.06-0.08-0.17-0.12-0.18-0.22c-0.09-0.51,1.62-1.28,1.62-1.28
			c0,0,3.18-2.64,3.18-2.64c0.02-0.11,1.26-3.3,0.74-3.71c-0.85-0.65-4.6,5.38-9.74,5.81c-1.2,0.1-2.22-0.08-2.91-0.27
			c-37.05-5.4-64.31-8.51-68.34-8.38c-4.63,0.15-8.04,2.03-8.04,2.03c-0.66,0.37-1.16,0.7-1.37,0.85c-1.88,1.23-3.51,1.9-4.61,2.27
			c-4.02,1.38-7.1,1.02-13.51,1.91c-0.59,0.08-1.19,0.15-1.78,0.23c-3.55,0.5-4.01,0.76-5.11,0.5c-1.28-0.3-2.17-1.01-2.55-1.33
			c-0.32-0.26-0.78-0.68-1.17-1.33c-0.35-0.57-0.44-0.73-0.44-0.88c-0.01-0.58,0.53-1.08,0.92-1.28c0.49-0.26,1.16-0.3,1.45-0.31
			c0,0,0.01,0,0.01,0c1.47-0.08,2.83-0.68,3.75-1.09c0.14-0.06,2.29-1.03,2.17-1.49c0,0-2.91-0.27-2.91-0.27
			c-0.68,0.19-1.69,0.46-2.94,0.8c-1.02,0.28-1.7,0.45-2.15,0.57c-0.34,0.09-0.87,0.23-1,0.27c-2.7,0.74-5.45,3.02-8.29,3.02h0
			c-1.54,0.23-2.3,0.35-3.29,0c-1.96-0.69-2.94-2.55-3.29-3.33c0-1.11-0.36-2.28,0-3.33c0.7-2.03,3.48-4.17,6.58-6.66
			c10.41-8.36,22.39-9.62,29.6-9.99c6.84-0.35,9.96,0.15,16.77,0.46c22.63,1.02,51.89-3.53,69.32-2.63c4.37,0.23,8.74,0.8,8.74,0.8
			c3.31,0.43,12.75,1.79,42.36,12.35c7.37,2.63,11.94,4.05,15.9,5.99c7.27,3.56,13.05,5.71,14.07,6.06
			c14.88,5.16,36.18,12.71,43.06,21.82c0,0,3.12,4.13,8.32,5.92c0.47,0.16,1.9,0.65,3.11,0.02c0,0,0.01,0,0.01-0.01
			c0.02-0.01,0.09-0.05,0.15-0.08c1.37-0.86,1.34-3.96,1.34-3.97c-0.07-7.47-1.65-18.87-1.65-18.87c-1.32-9.58,1.78-17.42,2.79-19.9
			c1.43-3.53,4.38-10.52,11.74-15.27c6.93-4.47,14.23-4.66,17.19-4.74c3.27-0.09,5.66,0.24,8,0.58c10.11,1.47,19.69,6.43,19.69,6.43
			c6.61,3.28,10.19,5.06,13.79,9.23c1.66,1.92,5.12,5.45,5.89,11.15c0.51,3.8-0.23,10.51-0.64,12.25c-0.49,2.1-1.05,4.38-2.76,6.71
			c-1.02,1.39-1.28,1.2-1.75,2.18c-0.26,0.53-1.02,2.13,0.25,7.98c0.43,1.98,0.65,2.97,0.76,3.4c0.1,0.39,1.19,4.56,0.88,6.24
			c-0.05,0.29-0.14,0.57-0.26,0.87c-0.96,2.31-2.54,1.6-4.1,4.03c-1.15,1.78-1.51,4.93-2.16,11.23c-0.05,0.49-0.14,1.41-0.77,2.29
			c-1.1,1.54-3.08,1.85-4.24,2.04c-13.19,2.11-15.72,2.2-16.71,2.14c-0.03,0-0.05,0-0.07,0c-0.08-0.01-0.13-0.01-0.13-0.01
			c-0.16-0.02-11.07,1.06-11.07,1.06c0,0-0.01,0.01-0.01,0.01c-1.39,0.97-3.19,2.44-3.94,3.42c-0.37,0.48-0.57,0.75-0.68,1.06
			c0,0,0,0,0,0c0,0,0,0,0,0l0,0c-1.4,2.34-3.78,6.06-3.95,7.04c-0.93,5.37,4.65,10.19,8.35,12.68c12.5,3.32,33.82,19.5,44.98,31.21
			c4.2,5.87-1.03,15.08,0.04,15.26c0.72,0.13,2.2-3.53,2.79-5.93c0.12-0.5,0.35-1.43,0.45-2.68c0.09-1.1,0.03-1.73,0-3.33
			c0,0-0.03-1.51,0-3.33c0.08-4.79,29.87-23.18,38.24-35.93c0.92-1.4,3.11-4.94,3.39-9.8c0.12-2.11-0.78-2.99-1.46-7.07
			c-0.28-1.65-0.68-4.11-0.71-7.12C668.85,219.39,669.21,219.57,671.5,208.37z"/>
		<path class="st4" d="M541.69,312.78"/>
		<path class="st4" d="M541.69,302.79"/>
		<path class="st4" d="M390.4,472.58"/>
	</g>
</g>
<g id="White">
	<g>
		<g>
			<path class="st2" d="M671.51,552.29l-31.92-68.55l-0.59,0l-72.73,148.26c-2.67,4.74-3.86,6.22-8.31,6.22l-27.58-0.04
				c-3.56-0.01-5.33-3.27-3.85-6.23l107.21-203.07c2.08-3.55,2.97-5.93,5.05-5.92l0.89,0c2.37,0,2.96,2.38,5.33,5.94l61.2,123.46
				L671.51,552.29z M708.2,562.99l39.36,70.17c1.48,2.79-0.3,5.85-4.16,5.84l-27.28-0.04c-4.45-0.01-5.93-1.4-8.29-5.86
				l-19.51-38.18l-88.38-0.13l17.27-31.95L708.2,562.99z"/>
		</g>
		<g>
			<g>
				<path class="st2" d="M50.61,215.54L38.38,323.53c-0.6,5.07-1.49,6.27-6.26,6.27H8.55c-4.77,0-6.86-1.79-6.26-6.27l19.09-156.61
					L50.61,215.54z M30.36,107h4.77c1.19,0,2.39,0.6,3.58,2.69l96.36,161.09l96.36-161.09c1.19-2.09,2.38-2.69,3.58-2.69h3.88
					l5.67,41.76L143.42,317.31c-2.69,3.88-4.47,6.26-6.86,6.26h-3.28c-2.39,0-4.18-2.39-6.56-6.26L25.59,148.76L30.36,107z
					 M248.46,167.22l19.39,156.31c0.6,4.48-1.49,6.27-6.26,6.27h-23.57c-4.77,0-5.97-1.19-6.26-6.27l-12.53-107.69L248.46,167.22z"
					/>
			</g>
		</g>
		<path class="st2" d="M671.72,208.07c0.23-1.13,0.62-3.04,2.14-4.6c0.39-0.4,1.75-1.79,3.41-1.59c0.62,0.08,1.6,0.41,1.88,1.15
			c0.05,0.13,0.04,0.18-0.04,1.08c0,0-0.18,2.12-0.2,3.17c0,0.04,0,0.09,0,0.09c0,0.11,0,0.2-0.01,1.26
			c-0.03,2.89-0.05,3.32,0.05,3.34c0.13,0.02,0.37-0.73,0.77-2.04c0.21-0.68,0.36-1.25,0.54-1.9c0.03-0.13,0.06-0.23,0.09-0.34
			c0.05-0.19,0.34-1.34,0.36-1.38c1.11-2.27,0.17-10.88,1.53-14.26c0.34-0.85,1.37-2.67,3.28-3.32c0.85-0.29,1.66-0.19,3.28,0
			c1.85,0.22,3.52,0.42,5.04,1.64c0.49,0.39,0.83,0.82,1.52,1.68c0.11,0.14,1.45,1.8,2.51,3.83c1.96,3.72,3.07,6.97,3.21,9.25
			c0.83,13.47,0.83,10.15-2.45,20.11c-1.08,3.27-2.53,5.78-3.55,7.51c-0.39,0.55-1.12,1.58-2.03,2.88c0,0-2.19,3.13-4.26,6.21
			c-5.7,8.48-21.24,55.29-46.89,82.21c-1.78,1.87-3.36,3.94-5.38,5.45c-1.07,0.8-2.32,1.3-3.48,1.96c0,0,0,0,0,0
			c-2.01,1.85-5.79,0.76-7.06,0.4c-9.14-2.63-74.4-34.97-71.75-48.42c0.18-0.58-1.94-2.98-2.66-2.69c-0.44,0.18-0.35,1.35-0.25,2.63
			c0.26,3.06,1.53,5.75,2.9,8.13c0.98,1.69,2.22,3.49,2.66,5.38c0.29,1.26,0.14,2.16,0,2.69c-0.15,0.54-0.37,0.91-0.47,1.13
			c-0.52,1.19-1.23,2.66-2.19,4.25c-6.46,10.72-16.76,14.96-30.14,20.16c-34.47,13.38-51.7,20.07-52.23,20.19
			c-5.01,1.12-9.31,4.36-14,6.47c-0.65,0.29-2.46,1.19-3.18,2.96c-0.04,0.1-0.06,0.19-0.08,0.29c-1.01,5.02,13.19,9.55,29.26,19.6
			c15.58,9.74,42.61,27.45,45.52,29.41c0,0,11.09,7.21,13.85,16.53c1.12,3.8,0.8,7.41,0.8,7.41c-0.27,2.99-1.19,5.13-1.81,6.55
			c0,0-2.43,5.55-7.42,10.15c-1.34,1.23-2.14,2.07-2.73,2.76c-0.85,0.98-1.02,1.27-1.82,2.22c-1.4,1.64-2.12,2.17-3.43,3.52
			c-1.76,1.8-2.74,3.18-3.48,4.13c-5.02,6.39-17.44,17.35-17.44,17.35c-3.86,3.4-9.23,7.35-16.35,13.51
			c-25.46,22-33.4,25.58-41.3,35.08c-4.98,5.98-8.34,11.31-10.21,14.47c-0.92,1.27-2.13,3.3-2.63,5.98
			c-0.44,2.34-0.89,7.78,6.1,17.15c8.86,11.86,25.47,24.48,30.96,27.94c0.56,0.35,2.42,1.5,3.3,3.69c0.66,1.64,0.81,3.94-0.22,5.58
			c-1.62,2.58-5.62,2.78-8.21,2.81c-15.93,0.15-25.78-3.94-25.78-3.94c-11.45-4.77-9.55-7.31-24.95-15.18
			c-10.09-5.15-17.48-8.41-22.99-10.64c-4.87-1.98-13.42-2.19-16.44-7.59c-0.9-1.6-1.14-3.26-1.18-3.48
			c-0.65-4.56,2.12-8.26,3.28-9.76c2.42-3.14,4.5-3.83,10.08-7.25c3.31-2.03,8.61-5.28,12.75-8.98c0.96-0.86,1.53-1.49,2.68-2.69
			c5.29-5.51,9.06-10.43,12.27-14.7c5.99-7.99,9.95-13.65,9.95-13.65c15.48-22.1,23.25-33.13,27.36-40.49
			c0.89-1.6,2.96-5.36,6.53-9.75c1.61-1.98,6.5-7.99,11.62-11.09c2.28-1.38,4.15-3.58,6.7-4.35c0.21-0.06,1.29-0.36,1.42-1.01
			c0,0,0,0,0-0.01c0-0.12,0.01-0.21,0.01-0.21c0.1-1.08-32.72-6.15-32.72-6.15c0,0-32.27-4.98-64.14-21.61
			c-0.1-0.05-4.29-2.24-4.29-2.24c-0.51-0.28-1.19-0.66-2-1.12c-0.63-0.36-1.78-1.04-3.34-2.02c-6.42-4.04-9.63-6.05-11.83-8.25
			c-0.36-0.36-0.76-0.78-0.88-0.7c-0.36,0.24-2.43,0.59,0.72,4.33c0.86,1.02,2.73,3.08,5.64,5.09c2.88,1.98,4.28,1.65,4.18,2.44
			c-0.07,0.56-9.12,34.01-62.57,60.53c-8.68,4.31-35.24,20.01-35.24,20.01c-28.19,28.4-52.03,30.8-76.58,40.09
			c0,0-30.45,14.35-44.34,28.08c-0.9,0.89-3.51,3.56-8.07,8.03c-5.59,5.49-6.39,6.12-8.07,8.03c-3.63,4.13-3.77,5.57-8.08,12.06
			c-3.69,5.55-3.43,4.27-12.11,16.08c-4.85,6.59-7.28,9.93-8.08,12.06c-0.29,0.79-1.52,4.19-4.04,8.04
			c-1.67,2.55-2.74,3.51-4.03,4.02c-2.22,0.86-4.75,0.25-6.03-0.48c-6.57-3.76-2.06-23.14-0.08-43.45c0.06-0.6,0.54-5.32,1.18-10.49
			c0.15-1.21,0.33-2.52,0.55-4.08c0.54-3.82,0.95-6.44,1.09-7.32c1.2-7.85-0.04-9.03,1.17-14.56c0.78-3.59,2.3-10.5,7.15-12.38
			c1.87-0.72,3.59-0.45,6.51,0.01c5.27,0.83,8.93,2.87,9.76,3.28c9.14,4.55,29.3-10.35,29.44-10.45l0,0
			c23.14-18.85,36.14-43.9,62.32-56.83c13.02-6.43,17.09-3.93,28.21-12.02c2.66-1.94,5.03-3.39,5.68-4.83
			c26.83-58.74,59.13-68.91,59.42-69c0.16-7.69,1.63-30.73,18.09-45.9c10.44-9.62,35.89-17.7,41.06-19.18
			c0.9-0.26,4.8-1.32,9.52-3.77c0,0,1.66-1.02,3.41-1.94c13.54-7.17,23.82-20.85,44.39-48.21c4.72-6.28,6.38-8.74,8.83-11.94
			c0,0,1.71-2.19,3.28-4.13c17.88-22.06,30.75-28.58,33.52-28.34c7.87,0.68,10.82,4.28,10.82,4.28c0.5,0.51,2.27,2.42,5.07,3.14
			c1.04,0.27,2.47,0.43,2.66,0c0.17-0.39-0.77-1.04-2.9-3.02c-1.92-1.8-1.64-1.73-2.42-2.36c-1.59-1.29-2.79-1.6-5.49-2.7
			c-1.76-0.72-3.41-1.67-5.19-2.34c-33.67-12.66-52.9-34.44-52.51-34.12c0,0,2.64,3.17,0,0c-0.66-0.79-0.98-1.18-1.16-1.4
			c-0.06-0.08-0.17-0.12-0.18-0.22c-0.09-0.51,1.61-1.28,1.61-1.28c0,0,3.17-2.64,3.17-2.64c0.02-0.11,1.26-3.29,0.73-3.69
			c-0.85-0.65-4.58,5.37-9.71,5.8c-1.2,0.1-2.21-0.08-2.9-0.27c-36.95-5.38-64.12-8.49-68.14-8.36c-4.62,0.15-8.01,2.02-8.01,2.02
			c-0.66,0.36-1.16,0.7-1.37,0.85c-1.87,1.22-3.5,1.89-4.6,2.27c-4,1.38-7.08,1.02-13.47,1.9c-0.59,0.08-1.18,0.15-1.77,0.23
			c-3.54,0.5-4,0.76-5.1,0.5c-1.28-0.3-2.16-1.01-2.55-1.32c-0.32-0.26-0.78-0.68-1.16-1.33c-0.34-0.57-0.43-0.73-0.44-0.88
			c-0.01-0.58,0.53-1.07,0.92-1.28c0.48-0.26,1.15-0.29,1.44-0.31c0,0,0.01,0,0.01,0c1.47-0.08,2.82-0.68,3.74-1.09
			c0.14-0.06,2.28-1.02,2.16-1.48c0,0-2.9-0.27-2.9-0.27c-0.67,0.18-1.69,0.46-2.93,0.8c-1.02,0.27-1.69,0.45-2.14,0.57
			c-0.34,0.09-0.87,0.23-0.99,0.27c-2.69,0.74-5.44,3.01-8.26,3.01h0c-1.53,0.23-2.3,0.35-3.28,0c-1.96-0.69-2.93-2.55-3.28-3.32
			c0-1.11-0.36-2.27,0-3.32c0.7-2.02,3.47-4.16,6.56-6.64c10.38-8.34,22.32-9.59,29.51-9.96c6.82-0.35,9.93,0.15,16.72,0.46
			c22.57,1.01,51.74-3.52,69.11-2.63c4.36,0.22,8.71,0.8,8.71,0.8c3.3,0.43,12.72,1.78,42.24,12.31c7.34,2.62,11.9,4.04,15.85,5.97
			c7.25,3.55,13.02,5.69,14.03,6.04c14.84,5.15,36.08,12.67,42.93,21.75c0,0,3.11,4.12,8.29,5.9c0.47,0.16,1.89,0.65,3.1,0.02
			c0,0,0.01,0,0.01-0.01c0.02-0.01,0.09-0.05,0.15-0.08c1.36-0.85,1.34-3.95,1.34-3.95c-0.07-7.45-1.64-18.81-1.64-18.81
			c-1.32-9.55,1.78-17.37,2.78-19.84c1.43-3.52,4.37-10.49,11.7-15.22c6.91-4.46,14.19-4.65,17.14-4.73
			c3.26-0.09,5.65,0.24,7.97,0.58c10.08,1.47,19.63,6.41,19.63,6.41c6.59,3.27,10.16,5.05,13.75,9.2c1.66,1.92,5.11,5.44,5.87,11.12
			c0.51,3.79-0.23,10.48-0.64,12.21c-0.49,2.09-1.05,4.37-2.75,6.69c-1.02,1.39-1.27,1.19-1.74,2.17c-0.26,0.53-1.02,2.13,0.25,7.96
			c0.43,1.97,0.65,2.96,0.76,3.39c0.1,0.39,1.19,4.55,0.87,6.22c-0.05,0.29-0.14,0.57-0.26,0.86c-0.96,2.3-2.54,1.6-4.09,4.02
			c-1.14,1.78-1.51,4.92-2.15,11.2c-0.05,0.49-0.14,1.41-0.77,2.28c-1.1,1.53-3.07,1.85-4.22,2.03c-13.15,2.1-15.68,2.2-16.66,2.13
			c-0.03,0-0.05,0-0.07,0c-0.08-0.01-0.13-0.01-0.13-0.01c-0.16-0.02-11.04,1.06-11.04,1.06c0,0-0.01,0.01-0.01,0.01
			c-1.38,0.96-3.18,2.43-3.93,3.41c-0.36,0.48-0.57,0.74-0.67,1.06c0,0,0,0,0,0c0,0,0,0,0,0l0,0c-1.39,2.33-3.77,6.04-3.94,7.02
			c-0.93,5.35,4.64,10.16,8.32,12.64c12.47,3.31,33.72,19.45,44.85,31.12c4.19,5.85-1.02,15.03,0.04,15.22
			c0.72,0.13,2.19-3.52,2.78-5.91c0.12-0.5,0.35-1.42,0.45-2.67c0.09-1.09,0.03-1.72,0-3.32c0,0-0.03-1.51,0-3.32
			c0.08-4.78,29.78-23.11,38.13-35.83c0.91-1.39,3.1-4.93,3.38-9.78c0.12-2.1-0.77-2.98-1.46-7.05c-0.28-1.64-0.68-4.1-0.7-7.1
			C669.08,219.06,669.44,219.24,671.72,208.07z"/>
		<path class="st3" d="M391.45,471.51"/>
		<path class="st3" d="M554.23,329.18"/>
	</g>
</g>
</svg>
