<svg xmlns="http://www.w3.org/2000/svg" viewBox="0 0 790.33 790.33"><defs><style>.cls-1,.cls-3{fill:none;}.cls-1,.cls-2,.cls-3{stroke:#231f20;stroke-width:3px;}.cls-1,.cls-2{stroke-miterlimit:10;}.cls-2{fill:#ed7540;}.cls-3{stroke-linecap:round;stroke-linejoin:round;}.cls-4,.cls-5{font-size:61px;font-family:AcherusMilitant1-Bold, "Acherus Militant 1";font-weight:700;}.cls-4{fill:#a7a9ac;}.cls-5{fill:#fff;}</style></defs><g id="Layer_2" data-name="Layer 2"><g id="Layer_1-2" data-name="Layer 1"><path class="cls-1" d="M685.76,246.52,551.47,234.88a223.86,223.86,0,0,0-316.36,3.77l13-133L115.22,118.4a393.66,393.66,0,0,1,555.59-4.29l.84.83a.94.94,0,0,1,.1.1Z"/><path class="cls-2" d="M679.82,667.1a393.66,393.66,0,0,1-558.39,11l-1.18-1.13L104.5,546.05l134.84,9.86,0,0a223.86,223.86,0,0,0,317.26-5.69L546.38,682.53Z"/><path class="cls-1" d="M239.34,555.91,104.5,546.05l15.75,130.89A393.66,393.66,0,0,1,115,118.67l.26-.27,132.85-12.76-13,133-.16.17a223.85,223.85,0,0,0,4.39,317.09Z"/><path class="cls-1" d="M788.83,395.16A392.34,392.34,0,0,1,679.9,667l-.08.09L546.38,682.53l10.24-132.29,0,0,.69-.71A223.88,223.88,0,0,0,551.57,235l-.1-.1,134.29,11.64L671.75,115A393,393,0,0,1,788.83,395.16Z"/><polyline class="cls-1" points="679.82 667.1 679.91 667.09 679.9 667.01"/><line class="cls-3" x1="671.75" y1="115.04" x2="671.75" y2="115.04"/><text class="cls-4" transform="translate(365.67 102.63) rotate(-0.93)">A</text><text class="cls-4" transform="matrix(0.99, 0.12, -0.12, 0.99, 407.56, 102.06)">u</text><text class="cls-4" transform="translate(441.54 105.77) rotate(13.61)">d</text><text class="cls-4" transform="matrix(0.95, 0.33, -0.33, 0.95, 477.27, 114.79)">i</text><text class="cls-4" transform="translate(494.16 120.4) rotate(23.33)">t</text><text class="cls-4" transform="translate(517.51 130.64) rotate(27.26)"> </text><text class="cls-4" transform="matrix(0.86, 0.5, -0.5, 0.86, 530.32, 137.21)"> </text><text class="cls-4" transform="matrix(0.84, 0.54, -0.54, 0.84, 542.75, 144.39)"> </text><text class="cls-4" transform="translate(554.83 152.19) rotate(35.81)"> </text><text class="cls-4" transform="translate(566.49 160.58) rotate(38.64)"> </text><text class="cls-4" transform="translate(577.76 169.55) rotate(41.48)"> </text><text class="cls-4" transform="translate(588.54 179.05) rotate(44.31)"> </text><text class="cls-4" transform="translate(598.86 189.09) rotate(47.15)"> </text><text class="cls-4" transform="matrix(0.64, 0.77, -0.77, 0.64, 608.66, 199.61)"> </text><text class="cls-4" transform="translate(617.93 210.61) rotate(52.81)"> </text><text class="cls-4" transform="translate(626.64 222.04) rotate(55.65)"> </text><text class="cls-4" transform="translate(634.77 233.89) rotate(58.5)"> </text><text class="cls-4" transform="translate(642.3 246.13) rotate(61.35)"> </text><text class="cls-4" transform="matrix(0.44, 0.9, -0.9, 0.44, 649.22, 258.74)"> </text><text class="cls-4" transform="matrix(0.39, 0.92, -0.92, 0.39, 655.49, 271.65)"> </text><text class="cls-4" transform="translate(661.11 284.86) rotate(69.93)"> </text><text class="cls-4" transform="translate(666.06 298.35) rotate(72.81)"> </text><text class="cls-4" transform="translate(670.34 312.07) rotate(75.68)"> </text><text class="cls-4" transform="translate(673.92 326) rotate(78.55)"> </text><text class="cls-4" transform="translate(677.24 339.14) rotate(83.71)">R</text><text class="cls-4" transform="translate(681.49 376.71) rotate(90.93)">e</text><text class="cls-4" transform="matrix(-0.13, 0.99, -0.99, -0.13, 681.24, 410.43)">p</text><text class="cls-4" transform="matrix(-0.25, 0.97, -0.97, -0.25, 676.6, 446.4)">o</text><text class="cls-4" transform="translate(667.48 480.54) rotate(110.5)">r</text><text class="cls-4" transform="translate(659.26 502.83) rotate(115.38)">t</text><text class="cls-4" transform="translate(648.19 525.82) rotate(119.3)"> </text><text class="cls-4" transform="translate(641.18 538.36) rotate(122.15)"> </text><text class="cls-4" transform="matrix(-0.57, 0.82, -0.82, -0.57, 633.56, 550.53)"> </text><text class="cls-4" transform="translate(625.32 562.34) rotate(127.84)"> </text><text class="cls-4" transform="matrix(-0.65, 0.76, -0.76, -0.65, 616.52, 573.71)"> </text><text class="cls-4" transform="translate(607.18 584.63) rotate(133.5)"> </text><text class="cls-4" transform="matrix(-0.72, 0.69, -0.69, -0.72, 597.29, 595.09)"> </text><text class="cls-4" transform="matrix(-0.76, 0.65, -0.65, -0.76, 586.91, 605.03)"> </text><text class="cls-4" transform="translate(576.05 614.45) rotate(142)"> </text><text class="cls-4" transform="matrix(-0.82, 0.58, -0.58, -0.82, 564.74, 623.32)"> </text><text class="cls-4" transform="matrix(-0.85, 0.53, -0.53, -0.85, 552.99, 631.63)"> </text><text class="cls-4" transform="matrix(-0.87, 0.49, -0.49, -0.87, 540.87, 639.33)"> </text><text class="cls-4" transform="matrix(-0.89, 0.45, -0.45, -0.89, 528.37, 646.43)"> </text><text class="cls-4" transform="translate(515.54 652.89) rotate(156.25)"> </text><text class="cls-4" transform="matrix(-0.93, 0.36, -0.36, -0.93, 502.4, 658.7)"> </text><text class="cls-4" transform="translate(488.98 663.85) rotate(161.99)"> </text><text class="cls-4" transform="translate(475.32 668.32) rotate(164.86)"> </text><text class="cls-4" transform="translate(461.47 672.09) rotate(167.72)"> </text><text class="cls-4" transform="translate(447.43 675.17) rotate(170.59)"> </text><text class="cls-4" transform="translate(433.24 677.55) rotate(173.44)"> </text><text class="cls-4" transform="translate(418.96 679.22) rotate(176.27)"> </text><text class="cls-5" transform="translate(405.37 680.65) rotate(-178.89)">T</text><text class="cls-5" transform="translate(373.44 680.03) rotate(-173.83)">r</text><text class="cls-5" transform="translate(350.87 677.96) rotate(-168.4)">a</text><text class="cls-5" transform="translate(318.57 671.07) rotate(-163.37)">i</text><text class="cls-5" transform="matrix(-0.93, -0.37, 0.37, -0.93, 301.68, 666.52)">n</text><text class="cls-4" transform="translate(269.43 653.19) rotate(-153.31)"> </text><text class="cls-4" transform="matrix(-0.87, -0.49, 0.49, -0.87, 256.57, 646.76)"> </text><text class="cls-4" transform="matrix(-0.84, -0.54, 0.54, -0.84, 244.04, 639.68)"> </text><text class="cls-4" transform="translate(231.9 632.01) rotate(-144.76)"> </text><text class="cls-4" transform="matrix(-0.79, -0.62, 0.62, -0.79, 220.13, 623.73)"> </text><text class="cls-4" transform="matrix(-0.76, -0.65, 0.65, -0.76, 208.79, 614.88)"> </text><text class="cls-4" transform="translate(197.92 605.49) rotate(-136.26)"> </text><text class="cls-4" transform="translate(187.5 595.55) rotate(-133.43)"> </text><text class="cls-4" transform="translate(177.6 585.14) rotate(-130.6)"> </text><text class="cls-4" transform="translate(168.22 574.23) rotate(-127.76)"> </text><text class="cls-4" transform="translate(159.4 562.89) rotate(-124.92)"> </text><text class="cls-4" transform="translate(151.14 551.1) rotate(-122.08)"> </text><text class="cls-4" transform="translate(143.49 538.94) rotate(-119.23)"> </text><text class="cls-4" transform="translate(136.45 526.41) rotate(-116.37)"> </text><text class="cls-4" transform="translate(130.04 513.55) rotate(-113.51)"> </text><text class="cls-4" transform="translate(124.28 500.38) rotate(-110.64)"> </text><text class="cls-4" transform="translate(119.2 486.96) rotate(-107.77)"> </text><text class="cls-4" transform="matrix(-0.26, -0.97, 0.97, -0.26, 114.78, 473.27)"> </text><text class="cls-4" transform="translate(111.07 459.4) rotate(-102.03)"> </text><text class="cls-4" transform="translate(107.68 446.19) rotate(-97.1)">P</text><text class="cls-4" transform="translate(103.5 411.1) rotate(-91.37)">r</text><text class="cls-4" transform="translate(102.52 388.22) rotate(-85.74)">o</text><text class="cls-4" transform="translate(104.91 353.36) rotate(-78.7)">g</text><text class="cls-4" transform="translate(112.32 317.48) rotate(-72.71)">r</text><text class="cls-4" transform="translate(118.75 295.49) rotate(-67.09)">e</text><text class="cls-4" transform="matrix(0.49, -0.87, 0.87, 0.49, 131.93, 264.34)">s</text><text class="cls-4" transform="matrix(0.57, -0.82, 0.82, 0.57, 145.99, 238.91)">s</text></g></g></svg>